SplineFontDB: 3.0
FontName: Slize
FullName: Slize
FamilyName: Slize
Weight: Black
Copyright: Slashed zero
Version: 0.1
ItalicAngle: 0
UnderlinePosition: -150
UnderlineWidth: 50
Ascent: 750
Descent: 250
InvalidEm: 0
sfntRevision: 0x0002051e
LayerCount: 2
Layer: 0 1 "Back" 1
Layer: 1 1 "Fore" 0
XUID: [1021 262 -834161442 12958928]
BaseHoriz: 4 'hang' 'ideo' 'math' 'romn'
BaseScript: 'cyrl' 3  0 -170 0 0
BaseScript: 'grek' 3  0 -170 0 0
BaseScript: 'latn' 3  0 -170 0 0
FSType: 0
OS2Version: 3
OS2_WeightWidthSlopeOnly: 0
OS2_UseTypoMetrics: 1
CreationTime: 1441032285
ModificationTime: 1455615249
PfmFamily: 17
TTFWeight: 900
TTFWidth: 5
LineGap: 0
VLineGap: 0
Panose: 2 11 8 3 3 4 3 2 2 4
OS2TypoAscent: 750
OS2TypoAOffset: 0
OS2TypoDescent: -250
OS2TypoDOffset: 0
OS2TypoLinegap: 0
OS2WinAscent: 984
OS2WinAOffset: 0
OS2WinDescent: 273
OS2WinDOffset: 0
HheadAscent: 984
HheadAOffset: 0
HheadDescent: -273
HheadDOffset: 0
OS2SubXSize: 650
OS2SubYSize: 600
OS2SubXOff: 0
OS2SubYOff: 75
OS2SupXSize: 650
OS2SupYSize: 600
OS2SupXOff: 0
OS2SupYOff: 350
OS2StrikeYSize: 50
OS2StrikeYPos: 300
OS2CapHeight: 650
OS2XHeight: 500
OS2Vendor: 'ADBO'
OS2CodePages: 2000019f.00000000
OS2UnicodeRanges: 600002f7.02000001.00000000.00000000
Lookup: 1 0 0 "'rtla' Right to Left Alternates in Cyrillic lookup 0" { "'rtla' Right to Left Alternates in Cyrillic lookup 0 subtable"  } ['rtla' ('DFLT' <'dflt' > 'cyrl' <'dflt' > ) ]
Lookup: 1 0 0 "<3,3> Small Caps in Greek lookup 1" { "<3,3> Small Caps in Greek lookup 1 subtable"  } [<3,3> ('grek' <'dflt' > ) 'smcp' ('grek' <'dflt' > ) ]
Lookup: 1 0 0 "<3,3> Small Caps in Greek lookup 2" { "<3,3> Small Caps in Greek lookup 2 subtable"  } [<3,3> ('grek' <'dflt' > ) 'smcp' ('grek' <'dflt' > ) ]
Lookup: 1 0 0 "<3,3> Small Caps lookup 3" { "<3,3> Small Caps lookup 3 subtable"  } [<3,3> ('DFLT' <'dflt' > ) 'smcp' ('DFLT' <'dflt' > ) ]

StartChar: .notdef
Encoding: 1114112 -1 0
Width: 704
Flags: W
LayerCount: 2
Back
Fore
SplineSet
76 0 m 1,0,-1
 76 660 l 1,1,-1
 628 660 l 1,2,-1
 628 0 l 1,3,-1
 76 0 l 1,0,-1
288 104 m 1,4,-1
 416 104 l 1,5,-1
 390 160 l 1,6,-1
 354 256 l 1,7,-1
 350 256 l 1,8,-1
 314 160 l 1,9,-1
 288 104 l 1,4,-1
350 424 m 1,10,-1
 354 424 l 1,11,-1
 394 520 l 1,12,-1
 412 556 l 1,13,-1
 292 556 l 1,14,-1
 310 520 l 1,15,-1
 350 424 l 1,10,-1
188 172 m 1,16,-1
 270 340 l 1,17,-1
 188 508 l 1,18,-1
 188 172 l 1,16,-1
516 172 m 1,19,-1
 516 508 l 1,20,-1
 434 340 l 1,21,-1
 516 172 l 1,19,-1
EndSplineSet
Validated: 1
EndChar

StartChar: exclam
Encoding: 33 33 4
Width: 360
Flags: W
LayerCount: 2
Back
Fore
SplineSet
124 244 m 1,0,-1
 100 522 l 1,1,-1
 94 670 l 1,2,-1
 266 670 l 1,3,-1
 260 522 l 1,4,-1
 236 244 l 1,5,-1
 124 244 l 1,0,-1
180 -12 m 128,-1,7
 137 -12 137 -12 108.5 18 c 128,-1,8
 80 48 80 48 80 92 c 128,-1,9
 80 136 80 136 108.5 166 c 128,-1,10
 137 196 137 196 180 196 c 128,-1,11
 223 196 223 196 251.5 166 c 128,-1,12
 280 136 280 136 280 92 c 128,-1,13
 280 48 280 48 251.5 18 c 128,-1,6
 223 -12 223 -12 180 -12 c 128,-1,7
EndSplineSet
Validated: 1
EndChar

StartChar: quotedbl
Encoding: 34 34 5
Width: 580
Flags: W
LayerCount: 2
Back
Fore
SplineSet
114 324 m 1,0,-1
 80 536 l 1,1,-1
 74 684 l 1,2,-1
 246 684 l 1,3,-1
 240 536 l 1,4,-1
 206 324 l 1,5,-1
 114 324 l 1,0,-1
374 324 m 1,6,-1
 340 536 l 1,7,-1
 334 684 l 1,8,-1
 506 684 l 1,9,-1
 500 536 l 1,10,-1
 466 324 l 1,11,-1
 374 324 l 1,6,-1
EndSplineSet
Validated: 1
EndChar

StartChar: numbersign
Encoding: 35 35 6
Width: 540
Flags: W
LayerCount: 2
Back
Fore
SplineSet
84 0 m 1,0,-1
 106 180 l 1,1,-1
 34 180 l 1,2,-1
 34 288 l 1,3,-1
 118 288 l 1,4,-1
 130 384 l 1,5,-1
 54 384 l 1,6,-1
 54 492 l 1,7,-1
 144 492 l 1,8,-1
 164 650 l 1,9,-1
 260 650 l 1,10,-1
 242 492 l 1,11,-1
 334 492 l 1,12,-1
 354 650 l 1,13,-1
 450 650 l 1,14,-1
 432 492 l 1,15,-1
 510 492 l 1,16,-1
 510 384 l 1,17,-1
 418 384 l 1,18,-1
 406 288 l 1,19,-1
 490 288 l 1,20,-1
 490 180 l 1,21,-1
 394 180 l 1,22,-1
 372 0 l 1,23,-1
 274 0 l 1,24,-1
 296 180 l 1,25,-1
 204 180 l 1,26,-1
 182 0 l 1,27,-1
 84 0 l 1,0,-1
216 288 m 1,28,-1
 308 288 l 1,29,-1
 320 384 l 1,30,-1
 228 384 l 1,31,-1
 216 288 l 1,28,-1
EndSplineSet
Validated: 1
EndChar

StartChar: dollar
Encoding: 36 36 7
Width: 540
Flags: W
LayerCount: 2
Back
Fore
SplineSet
212 -110 m 1,0,-1
 212 -10 l 1,1,2
 104 3 104 3 34 66 c 1,3,-1
 108 182 l 1,4,5
 184 126 184 126 246 126 c 0,6,7
 283 126 283 126 299.5 139.5 c 128,-1,8
 316 153 316 153 316 182 c 0,9,10
 316 204 316 204 289.5 223 c 128,-1,11
 263 242 263 242 225 260.5 c 128,-1,12
 187 279 187 279 149 301.5 c 128,-1,13
 111 324 111 324 84.5 361.5 c 128,-1,14
 58 399 58 399 58 448 c 0,15,16
 58 524 58 524 98.5 574 c 128,-1,17
 139 624 139 624 212 640 c 1,18,-1
 212 744 l 1,19,-1
 324 744 l 1,20,-1
 324 642 l 1,21,22
 408 629 408 629 475 558 c 1,23,-1
 390 460 l 1,24,25
 336 508 336 508 286 508 c 0,26,27
 252 508 252 508 237 496.5 c 128,-1,28
 222 485 222 485 222 456 c 0,29,30
 222 439 222 439 241 423 c 128,-1,31
 260 407 260 407 289 395 c 128,-1,32
 318 383 318 383 351 364.5 c 128,-1,33
 384 346 384 346 413 326 c 128,-1,34
 442 306 442 306 461 271.5 c 128,-1,35
 480 237 480 237 480 194 c 0,36,37
 480 119 480 119 440.5 66.5 c 128,-1,38
 401 14 401 14 324 -4 c 1,39,-1
 324 -110 l 1,40,-1
 212 -110 l 1,0,-1
EndSplineSet
Validated: 1
EndChar

StartChar: percent
Encoding: 37 37 8
Width: 870
Flags: W
LayerCount: 2
Back
Fore
SplineSet
190 248 m 128,-1,1
 116 248 116 248 69 304 c 128,-1,2
 22 360 22 360 22 456 c 0,3,4
 22 551 22 551 69 606.5 c 128,-1,5
 116 662 116 662 190 662 c 128,-1,6
 264 662 264 662 311 606.5 c 128,-1,7
 358 551 358 551 358 456 c 0,8,9
 358 360 358 360 311 304 c 128,-1,0
 264 248 264 248 190 248 c 128,-1,1
190 342 m 128,-1,11
 240 342 240 342 240 456 c 0,12,13
 240 568 240 568 190 568 c 128,-1,14
 140 568 140 568 140 456 c 0,15,10
 140 342 140 342 190 342 c 128,-1,11
214 -12 m 1,16,-1
 562 662 l 1,17,-1
 658 662 l 1,18,-1
 310 -12 l 1,19,-1
 214 -12 l 1,16,-1
680 -12 m 128,-1,21
 606 -12 606 -12 559 44 c 128,-1,22
 512 100 512 100 512 196 c 0,23,24
 512 291 512 291 559 346.5 c 128,-1,25
 606 402 606 402 680 402 c 128,-1,26
 754 402 754 402 801 346.5 c 128,-1,27
 848 291 848 291 848 196 c 0,28,29
 848 100 848 100 801 44 c 128,-1,20
 754 -12 754 -12 680 -12 c 128,-1,21
680 82 m 128,-1,31
 730 82 730 82 730 196 c 0,32,33
 730 308 730 308 680 308 c 128,-1,34
 630 308 630 308 630 196 c 0,35,30
 630 82 630 82 680 82 c 128,-1,31
EndSplineSet
Validated: 1
EndChar

StartChar: ampersand
Encoding: 38 38 9
Width: 690
Flags: W
LayerCount: 2
Back
Fore
SplineSet
246 -12 m 0,0,1
 139 -12 139 -12 80.5 42.5 c 128,-1,2
 22 97 22 97 22 176 c 0,3,4
 22 287 22 287 137 357 c 1,5,6
 98 427 98 427 98 486 c 0,7,8
 98 559 98 559 150 610.5 c 128,-1,9
 202 662 202 662 286 662 c 0,10,11
 364 662 364 662 411 620 c 128,-1,12
 458 578 458 578 458 508 c 0,13,14
 458 450 458 450 423 408 c 128,-1,15
 388 366 388 366 328 327 c 1,16,17
 374 278 374 278 442 230 c 1,18,19
 491 295 491 295 512 374 c 1,20,-1
 668 374 l 1,21,22
 632 255 632 255 562 161 c 1,23,24
 621 132 621 132 670 126 c 1,25,-1
 630 -12 l 1,26,27
 546 3 546 3 456 51 c 1,28,29
 364 -12 364 -12 246 -12 c 0,0,1
239 486 m 128,-1,31
 239 456 239 456 257 421 c 1,32,33
 328 463 328 463 328 508 c 0,34,35
 328 550 328 550 290 550 c 0,36,37
 269 550 269 550 254 533 c 128,-1,30
 239 516 239 516 239 486 c 128,-1,31
268 118 m 0,38,39
 297 118 297 118 332 134 c 1,40,41
 264 188 264 188 214 247 c 1,42,43
 184 215 184 215 184 186 c 0,44,45
 184 156 184 156 206.5 137 c 128,-1,46
 229 118 229 118 268 118 c 0,38,39
EndSplineSet
Validated: 1
EndChar

StartChar: quotesingle
Encoding: 39 39 10
Width: 320
Flags: W
LayerCount: 2
Back
Fore
SplineSet
114 324 m 1,0,-1
 80 536 l 1,1,-1
 74 684 l 1,2,-1
 246 684 l 1,3,-1
 240 536 l 1,4,-1
 206 324 l 1,5,-1
 114 324 l 1,0,-1
EndSplineSet
Validated: 1
EndChar

StartChar: parenleft
Encoding: 40 40 11
Width: 360
Flags: W
LayerCount: 2
Back
Fore
SplineSet
200 -180 m 1,0,1
 68 37 68 37 68 278 c 128,-1,2
 68 519 68 519 200 736 c 1,3,-1
 308 692 l 1,4,5
 206 508 206 508 206 278 c 128,-1,6
 206 48 206 48 308 -136 c 1,7,-1
 200 -180 l 1,0,1
EndSplineSet
Validated: 1
Substitution2: "<10,2> Inferiors lookup 18 subtable" parenleft.subs
Substitution2: "<10,1> Superiors lookup 16 subtable" parenleft.sups
Substitution2: "<11,2> Diagonal Fractions lookup 6 subtable" parenleft.numr
Substitution2: "'rtla' Right to Left Alternates in Cyrillic lookup 0 subtable" parenright
EndChar

StartChar: parenright
Encoding: 41 41 12
Width: 360
Flags: W
LayerCount: 2
Back
Fore
SplineSet
160 -180 m 1,0,-1
 52 -136 l 1,1,2
 154 48 154 48 154 278 c 128,-1,3
 154 508 154 508 52 692 c 1,4,-1
 160 736 l 1,5,6
 292 519 292 519 292 278 c 128,-1,7
 292 37 292 37 160 -180 c 1,0,-1
EndSplineSet
Validated: 1
Substitution2: "<10,2> Inferiors lookup 18 subtable" parenright.subs
Substitution2: "<10,1> Superiors lookup 16 subtable" parenright.sups
Substitution2: "<11,2> Diagonal Fractions lookup 6 subtable" parenright.numr
Substitution2: "'rtla' Right to Left Alternates in Cyrillic lookup 0 subtable" parenleft
EndChar

StartChar: asterisk
Encoding: 42 42 13
Width: 472
Flags: W
LayerCount: 2
Back
Fore
SplineSet
152 321 m 1,0,-1
 82 372 l 1,1,-1
 142 479 l 1,2,-1
 30 531 l 1,3,-1
 57 614 l 1,4,-1
 178 590 l 1,5,-1
 192 712 l 1,6,-1
 280 712 l 1,7,-1
 294 589 l 1,8,-1
 415 614 l 1,9,-1
 442 531 l 1,10,-1
 329 479 l 1,11,-1
 390 372 l 1,12,-1
 320 321 l 1,13,-1
 236 412 l 1,14,-1
 152 321 l 1,0,-1
EndSplineSet
Validated: 1
EndChar

StartChar: plus
Encoding: 43 43 14
Width: 540
Flags: W
LayerCount: 2
Back
Fore
SplineSet
208 90 m 1,0,-1
 208 270 l 1,1,-1
 34 270 l 1,2,-1
 34 390 l 1,3,-1
 208 390 l 1,4,-1
 208 570 l 1,5,-1
 332 570 l 1,6,-1
 332 390 l 1,7,-1
 506 390 l 1,8,-1
 506 270 l 1,9,-1
 332 270 l 1,10,-1
 332 90 l 1,11,-1
 208 90 l 1,0,-1
EndSplineSet
Validated: 1
EndChar

StartChar: comma
Encoding: 44 44 15
Width: 320
Flags: W
LayerCount: 2
Back
Fore
SplineSet
80 -204 m 1,0,-1
 46 -114 l 1,1,2
 105 -95 105 -95 136.5 -62 c 128,-1,3
 168 -29 168 -29 167 8 c 1,4,-1
 160 8 l 2,5,6
 119 8 119 8 89.5 33.5 c 128,-1,7
 60 59 60 59 60 102 c 0,8,9
 60 143 60 143 90 169.5 c 128,-1,10
 120 196 120 196 164 196 c 0,11,12
 219 196 219 196 248.5 155 c 128,-1,13
 278 114 278 114 278 40 c 0,14,15
 278 -50 278 -50 227 -113.5 c 128,-1,16
 176 -177 176 -177 80 -204 c 1,0,-1
EndSplineSet
Validated: 33
Substitution2: "<10,2> Inferiors lookup 18 subtable" comma.subs
Substitution2: "<10,1> Superiors lookup 16 subtable" comma.sups
Substitution2: "<11,2> Diagonal Fractions lookup 6 subtable" comma.numr
EndChar

StartChar: hyphen
Encoding: 45 45 16
Width: 340
Flags: W
LayerCount: 2
Back
Fore
SplineSet
44 194 m 1,0,-1
 44 314 l 1,1,-1
 296 314 l 1,2,-1
 296 194 l 1,3,-1
 44 194 l 1,0,-1
EndSplineSet
Validated: 1
Substitution2: "<10,1> Superiors lookup 17 subtable" hyphen.sups
EndChar

StartChar: period
Encoding: 46 46 17
Width: 320
Flags: W
LayerCount: 2
Back
Fore
SplineSet
160 -12 m 128,-1,1
 117 -12 117 -12 88.5 18 c 128,-1,2
 60 48 60 48 60 92 c 128,-1,3
 60 136 60 136 88.5 166 c 128,-1,4
 117 196 117 196 160 196 c 128,-1,5
 203 196 203 196 231.5 166 c 128,-1,6
 260 136 260 136 260 92 c 128,-1,7
 260 48 260 48 231.5 18 c 128,-1,0
 203 -12 203 -12 160 -12 c 128,-1,1
EndSplineSet
Validated: 1
Substitution2: "<10,2> Inferiors lookup 18 subtable" period.subs
Substitution2: "<10,1> Superiors lookup 16 subtable" period.sups
Substitution2: "<11,2> Diagonal Fractions lookup 6 subtable" period.numr
EndChar

StartChar: slash
Encoding: 47 47 18
Width: 334
Flags: W
LayerCount: 2
Back
Fore
SplineSet
14 -160 m 1,0,-1
 190 710 l 1,1,-1
 300 710 l 1,2,-1
 124 -160 l 1,3,-1
 14 -160 l 1,0,-1
EndSplineSet
Validated: 1
Substitution2: "<11,2> Diagonal Fractions lookup 7 subtable" slash.frac
EndChar

StartChar: zero
Encoding: 48 48 19
Width: 540
Flags: W
LayerCount: 2
Back
Fore
SplineSet
270 -12 m 128,-1,1
 162 -12 162 -12 98 74.5 c 128,-1,2
 34 161 34 161 34 320 c 128,-1,3
 34 479 34 479 98 562.5 c 128,-1,4
 162 646 162 646 270 646 c 128,-1,5
 378 646 378 646 442 562 c 128,-1,6
 506 478 506 478 506 320 c 0,7,8
 506 161 506 161 442 74.5 c 128,-1,0
 378 -12 378 -12 270 -12 c 128,-1,1
270 120 m 128,-1,10
 305 120 305 120 324.5 162 c 128,-1,11
 344 204 344 204 344 320 c 0,12,13
 344 400 344 400 333 444.5 c 128,-1,14
 322 489 322 489 307.5 501.5 c 128,-1,15
 293 514 293 514 270 514 c 128,-1,16
 247 514 247 514 232.5 501.5 c 128,-1,17
 218 489 218 489 207 444.5 c 128,-1,18
 196 400 196 400 196 320 c 0,19,20
 196 204 196 204 215.5 162 c 128,-1,9
 235 120 235 120 270 120 c 128,-1,10
EndSplineSet
Validated: 1
Substitution2: "<21,0> Lower Case Numbers lookup 19 subtable" zero.tnum
Substitution2: "<10,2> Inferiors lookup 18 subtable" zero.subs
Substitution2: "<10,1> Superiors lookup 16 subtable" zero.sups
Substitution2: "<11,2> Diagonal Fractions lookup 6 subtable" zero.numr
Substitution2: "<3,3> Small Caps lookup 3 subtable" zero.sc
EndChar

StartChar: one
Encoding: 49 49 20
Width: 540
Flags: W
LayerCount: 2
Back
Fore
SplineSet
66 0 m 1,0,-1
 66 138 l 1,1,-1
 202 138 l 1,2,-1
 202 466 l 1,3,-1
 82 466 l 1,4,-1
 82 572 l 1,5,6
 179 591 179 591 248 634 c 1,7,-1
 374 634 l 1,8,-1
 374 138 l 1,9,-1
 488 138 l 1,10,-1
 488 0 l 1,11,-1
 66 0 l 1,0,-1
EndSplineSet
Validated: 1
Substitution2: "<21,0> Lower Case Numbers lookup 19 subtable" one.tnum
Substitution2: "<10,2> Inferiors lookup 18 subtable" one.subs
Substitution2: "<10,1> Superiors lookup 16 subtable" one.sups
Substitution2: "<11,2> Diagonal Fractions lookup 6 subtable" one.numr
Substitution2: "<3,3> Small Caps lookup 3 subtable" one.sc
EndChar

StartChar: two
Encoding: 50 50 21
Width: 540
Flags: W
LayerCount: 2
Back
Fore
SplineSet
36 0 m 1,0,-1
 36 98 l 1,1,2
 96 153 96 153 123 178.5 c 128,-1,3
 150 204 150 204 192.5 247 c 128,-1,4
 235 290 235 290 253.5 316 c 128,-1,5
 272 342 272 342 287 372.5 c 128,-1,6
 302 403 302 403 302 428 c 0,7,8
 302 469 302 469 281 490.5 c 128,-1,9
 260 512 260 512 224 512 c 0,10,11
 180 512 180 512 120 452 c 1,12,-1
 28 544 l 1,13,14
 79 598 79 598 129 622 c 128,-1,15
 179 646 179 646 248 646 c 0,16,17
 345 646 345 646 405.5 589 c 128,-1,18
 466 532 466 532 466 438 c 0,19,20
 466 322 466 322 284 136 c 1,21,22
 348 144 348 144 390 144 c 2,23,-1
 496 144 l 1,24,-1
 496 0 l 1,25,-1
 36 0 l 1,0,-1
EndSplineSet
Validated: 1
Substitution2: "<21,0> Lower Case Numbers lookup 19 subtable" two.tnum
Substitution2: "<10,2> Inferiors lookup 18 subtable" two.subs
Substitution2: "<10,1> Superiors lookup 16 subtable" two.sups
Substitution2: "<11,2> Diagonal Fractions lookup 6 subtable" two.numr
Substitution2: "<3,3> Small Caps lookup 3 subtable" two.sc
EndChar

StartChar: three
Encoding: 51 51 22
Width: 540
Flags: W
LayerCount: 2
Back
Fore
SplineSet
246 -12 m 0,0,1
 97 -12 97 -12 20 78 c 1,2,-1
 98 186 l 1,3,4
 163 126 163 126 228 126 c 0,5,6
 320 126 320 126 320 186 c 0,7,8
 320 225 320 225 288 243.5 c 128,-1,9
 256 262 256 262 162 262 c 1,10,-1
 162 382 l 1,11,12
 238 382 238 382 269 400.5 c 128,-1,13
 300 419 300 419 300 454 c 0,14,15
 300 512 300 512 234 512 c 0,16,17
 183 512 183 512 122 460 c 1,18,-1
 36 564 l 1,19,20
 134 646 134 646 242 646 c 0,21,22
 348 646 348 646 410 599 c 128,-1,23
 472 552 472 552 472 467 c 0,24,25
 472 375 472 375 370 330 c 1,26,-1
 370 326 l 1,27,28
 427 309 427 309 459.5 270.5 c 128,-1,29
 492 232 492 232 492 174 c 0,30,31
 492 87 492 87 421 37.5 c 128,-1,32
 350 -12 350 -12 246 -12 c 0,0,1
EndSplineSet
Validated: 1
Substitution2: "<21,0> Lower Case Numbers lookup 19 subtable" three.tnum
Substitution2: "<10,2> Inferiors lookup 18 subtable" three.subs
Substitution2: "<10,1> Superiors lookup 16 subtable" three.sups
Substitution2: "<11,2> Diagonal Fractions lookup 6 subtable" three.numr
Substitution2: "<3,3> Small Caps lookup 3 subtable" three.sc
EndChar

StartChar: four
Encoding: 52 52 23
Width: 540
Flags: W
LayerCount: 2
Back
Fore
SplineSet
290 0 m 1,0,-1
 290 142 l 1,1,-1
 20 142 l 1,2,-1
 20 262 l 1,3,-1
 236 634 l 1,4,-1
 450 634 l 1,5,-1
 450 272 l 1,6,-1
 518 272 l 1,7,-1
 518 142 l 1,8,-1
 450 142 l 1,9,-1
 450 0 l 1,10,-1
 290 0 l 1,0,-1
182 272 m 1,11,-1
 290 272 l 1,12,-1
 290 344 l 2,13,14
 290 365 290 365 296 494 c 1,15,-1
 292 494 l 1,16,17
 276 456 276 456 240 380 c 1,18,-1
 182 272 l 1,11,-1
EndSplineSet
Validated: 1
Substitution2: "<21,0> Lower Case Numbers lookup 19 subtable" four.tnum
Substitution2: "<10,2> Inferiors lookup 18 subtable" four.subs
Substitution2: "<10,1> Superiors lookup 16 subtable" four.sups
Substitution2: "<11,2> Diagonal Fractions lookup 6 subtable" four.numr
Substitution2: "<3,3> Small Caps lookup 3 subtable" four.sc
EndChar

StartChar: five
Encoding: 53 53 24
Width: 540
Flags: W
LayerCount: 2
Back
Fore
SplineSet
252 -12 m 0,0,1
 112 -12 112 -12 22 78 c 1,2,-1
 98 186 l 1,3,4
 165 126 165 126 226 126 c 0,5,6
 320 126 320 126 320 208 c 0,7,8
 320 247 320 247 296.5 268.5 c 128,-1,9
 273 290 273 290 234 290 c 0,10,11
 209 290 209 290 192 284 c 128,-1,12
 175 278 175 278 146 260 c 1,13,-1
 72 308 l 1,14,-1
 88 634 l 1,15,-1
 464 634 l 1,16,-1
 464 490 l 1,17,-1
 236 490 l 1,18,-1
 228 398 l 1,19,20
 255 408 255 408 288 408 c 0,21,22
 376 408 376 408 434 358 c 128,-1,23
 492 308 492 308 492 212 c 0,24,25
 492 109 492 109 422.5 48.5 c 128,-1,26
 353 -12 353 -12 252 -12 c 0,0,1
EndSplineSet
Validated: 1
Substitution2: "<21,0> Lower Case Numbers lookup 19 subtable" five.tnum
Substitution2: "<10,2> Inferiors lookup 18 subtable" five.subs
Substitution2: "<10,1> Superiors lookup 16 subtable" five.sups
Substitution2: "<11,2> Diagonal Fractions lookup 6 subtable" five.numr
Substitution2: "<3,3> Small Caps lookup 3 subtable" five.sc
EndChar

StartChar: six
Encoding: 54 54 25
Width: 540
Flags: W
LayerCount: 2
Back
Fore
SplineSet
286 -12 m 0,0,1
 183 -12 183 -12 110.5 67 c 128,-1,2
 38 146 38 146 38 306 c 0,3,4
 38 469 38 469 114 557.5 c 128,-1,5
 190 646 190 646 300 646 c 0,6,7
 418 646 418 646 498 566 c 1,8,-1
 408 464 l 1,9,10
 392 482 392 482 365 495 c 128,-1,11
 338 508 338 508 312 508 c 0,12,13
 204 508 204 508 195 337 c 1,14,15
 217 366 217 366 251.5 383 c 128,-1,16
 286 400 286 400 314 400 c 0,17,18
 400 400 400 400 453 351 c 128,-1,19
 506 302 506 302 506 204 c 0,20,21
 506 105 506 105 442.5 46.5 c 128,-1,22
 379 -12 379 -12 286 -12 c 0,0,1
282 116 m 0,23,24
 350 116 350 116 350 204 c 0,25,26
 350 280 350 280 280 280 c 0,27,28
 227 280 227 280 199 226 c 1,29,30
 216 116 216 116 282 116 c 0,23,24
EndSplineSet
Validated: 1
Substitution2: "<21,0> Lower Case Numbers lookup 19 subtable" six.tnum
Substitution2: "<10,2> Inferiors lookup 18 subtable" six.subs
Substitution2: "<10,1> Superiors lookup 16 subtable" six.sups
Substitution2: "<11,2> Diagonal Fractions lookup 6 subtable" six.numr
Substitution2: "<3,3> Small Caps lookup 3 subtable" six.sc
EndChar

StartChar: seven
Encoding: 55 55 26
Width: 540
Flags: W
LayerCount: 2
Back
Fore
SplineSet
152 0 m 1,0,1
 161 156 161 156 196 264 c 128,-1,2
 231 372 231 372 316 490 c 1,3,-1
 44 490 l 1,4,-1
 44 634 l 1,5,-1
 498 634 l 1,6,-1
 498 528 l 1,7,8
 444 464 444 464 411.5 410 c 128,-1,9
 379 356 379 356 361 290.5 c 128,-1,10
 343 225 343 225 336 165 c 128,-1,11
 329 105 329 105 324 0 c 1,12,-1
 152 0 l 1,0,1
EndSplineSet
Validated: 1
Substitution2: "<21,0> Lower Case Numbers lookup 19 subtable" seven.tnum
Substitution2: "<10,2> Inferiors lookup 18 subtable" seven.subs
Substitution2: "<10,1> Superiors lookup 16 subtable" seven.sups
Substitution2: "<11,2> Diagonal Fractions lookup 6 subtable" seven.numr
Substitution2: "<3,3> Small Caps lookup 3 subtable" seven.sc
EndChar

StartChar: eight
Encoding: 56 56 27
Width: 540
Flags: W
LayerCount: 2
Back
Fore
SplineSet
268 -12 m 0,0,1
 170 -12 170 -12 106 36.5 c 128,-1,2
 42 85 42 85 42 162 c 0,3,4
 42 257 42 257 146 312 c 1,5,-1
 146 316 l 1,6,7
 62 380 62 380 62 466 c 0,8,9
 62 549 62 549 121 597.5 c 128,-1,10
 180 646 180 646 274 646 c 0,11,12
 363 646 363 646 417.5 598 c 128,-1,13
 472 550 472 550 472 470 c 0,14,15
 472 389 472 389 391 337 c 1,16,-1
 391 333 l 1,17,18
 500 275 500 275 500 166 c 0,19,20
 500 89 500 89 435.5 38.5 c 128,-1,21
 371 -12 371 -12 268 -12 c 0,0,1
306 378 m 1,22,23
 334 418 334 418 334 458 c 0,24,25
 334 491 334 491 317 509.5 c 128,-1,26
 300 528 300 528 270 528 c 0,27,28
 245 528 245 528 228.5 512.5 c 128,-1,29
 212 497 212 497 212 466 c 0,30,31
 212 436 212 436 234.5 417 c 128,-1,32
 257 398 257 398 306 378 c 1,22,23
272 106 m 0,33,34
 341 106 341 106 341 172 c 0,35,36
 341 186 341 186 335 197 c 128,-1,37
 329 208 329 208 321.5 216 c 128,-1,38
 314 224 314 224 295 234 c 128,-1,39
 276 244 276 244 264 249.5 c 128,-1,40
 252 255 252 255 222 268 c 1,41,42
 189 230 189 230 189 182 c 0,43,44
 189 146 189 146 213 126 c 128,-1,45
 237 106 237 106 272 106 c 0,33,34
EndSplineSet
Validated: 1
Substitution2: "<21,0> Lower Case Numbers lookup 19 subtable" eight.tnum
Substitution2: "<10,2> Inferiors lookup 18 subtable" eight.subs
Substitution2: "<10,1> Superiors lookup 16 subtable" eight.sups
Substitution2: "<11,2> Diagonal Fractions lookup 6 subtable" eight.numr
Substitution2: "<3,3> Small Caps lookup 3 subtable" eight.sc
EndChar

StartChar: nine
Encoding: 57 57 28
Width: 540
Flags: W
LayerCount: 2
Back
Fore
SplineSet
258 354 m 0,0,1
 311 354 311 354 339 408 c 1,2,3
 322 518 322 518 256 518 c 0,4,5
 188 518 188 518 188 430 c 0,6,7
 188 354 188 354 258 354 c 0,0,1
238 -12 m 0,8,9
 120 -12 120 -12 40 68 c 1,10,-1
 130 170 l 1,11,12
 146 152 146 152 173 139 c 128,-1,13
 200 126 200 126 226 126 c 0,14,15
 335 126 335 126 343 297 c 1,16,17
 321 268 321 268 286.5 251 c 128,-1,18
 252 234 252 234 224 234 c 0,19,20
 138 234 138 234 85 283 c 128,-1,21
 32 332 32 332 32 430 c 0,22,23
 32 529 32 529 95.5 587.5 c 128,-1,24
 159 646 159 646 252 646 c 0,25,26
 355 646 355 646 427.5 567 c 128,-1,27
 500 488 500 488 500 328 c 0,28,29
 500 165 500 165 424 76.5 c 128,-1,30
 348 -12 348 -12 238 -12 c 0,8,9
EndSplineSet
Validated: 1
Substitution2: "<21,0> Lower Case Numbers lookup 19 subtable" nine.tnum
Substitution2: "<10,2> Inferiors lookup 18 subtable" nine.subs
Substitution2: "<10,1> Superiors lookup 16 subtable" nine.sups
Substitution2: "<11,2> Diagonal Fractions lookup 6 subtable" nine.numr
Substitution2: "<3,3> Small Caps lookup 3 subtable" nine.sc
EndChar

StartChar: colon
Encoding: 58 58 29
Width: 320
Flags: W
LayerCount: 2
Back
Fore
SplineSet
160 298 m 128,-1,1
 117 298 117 298 88.5 328 c 128,-1,2
 60 358 60 358 60 402 c 128,-1,3
 60 446 60 446 88.5 476 c 128,-1,4
 117 506 117 506 160 506 c 128,-1,5
 203 506 203 506 231.5 476 c 128,-1,6
 260 446 260 446 260 402 c 128,-1,7
 260 358 260 358 231.5 328 c 128,-1,0
 203 298 203 298 160 298 c 128,-1,1
160 -12 m 128,-1,9
 117 -12 117 -12 88.5 18 c 128,-1,10
 60 48 60 48 60 92 c 128,-1,11
 60 136 60 136 88.5 166 c 128,-1,12
 117 196 117 196 160 196 c 128,-1,13
 203 196 203 196 231.5 166 c 128,-1,14
 260 136 260 136 260 92 c 128,-1,15
 260 48 260 48 231.5 18 c 128,-1,8
 203 -12 203 -12 160 -12 c 128,-1,9
EndSplineSet
Validated: 1
Substitution2: "<10,1> Superiors lookup 17 subtable" colon.sups
EndChar

StartChar: semicolon
Encoding: 59 59 30
Width: 320
Flags: W
LayerCount: 2
Back
Fore
SplineSet
160 298 m 128,-1,1
 117 298 117 298 88.5 328 c 128,-1,2
 60 358 60 358 60 402 c 128,-1,3
 60 446 60 446 88.5 476 c 128,-1,4
 117 506 117 506 160 506 c 128,-1,5
 203 506 203 506 231.5 476 c 128,-1,6
 260 446 260 446 260 402 c 128,-1,7
 260 358 260 358 231.5 328 c 128,-1,0
 203 298 203 298 160 298 c 128,-1,1
80 -204 m 1,8,-1
 46 -114 l 1,9,10
 105 -95 105 -95 136.5 -62 c 128,-1,11
 168 -29 168 -29 167 8 c 1,12,-1
 160 8 l 2,13,14
 119 8 119 8 89.5 33.5 c 128,-1,15
 60 59 60 59 60 102 c 0,16,17
 60 143 60 143 90 169.5 c 128,-1,18
 120 196 120 196 164 196 c 0,19,20
 219 196 219 196 248.5 155 c 128,-1,21
 278 114 278 114 278 40 c 0,22,23
 278 -50 278 -50 227 -113.5 c 128,-1,24
 176 -177 176 -177 80 -204 c 1,8,-1
EndSplineSet
Validated: 33
EndChar

StartChar: less
Encoding: 60 60 31
Width: 540
Flags: W
LayerCount: 2
Back
Fore
SplineSet
506 94 m 1,0,-1
 34 274 l 1,1,-1
 34 390 l 1,2,-1
 506 570 l 1,3,-1
 506 430 l 1,4,-1
 344 380 l 1,5,-1
 208 334 l 1,6,-1
 208 330 l 1,7,-1
 344 284 l 1,8,-1
 506 234 l 1,9,-1
 506 94 l 1,0,-1
EndSplineSet
Validated: 1
Substitution2: "'rtla' Right to Left Alternates in Cyrillic lookup 0 subtable" greater
EndChar

StartChar: equal
Encoding: 61 61 32
Width: 540
Flags: W
LayerCount: 2
Back
Fore
SplineSet
34 390 m 1,0,-1
 34 510 l 1,1,-1
 506 510 l 1,2,-1
 506 390 l 1,3,-1
 34 390 l 1,0,-1
34 150 m 1,4,-1
 34 270 l 1,5,-1
 506 270 l 1,6,-1
 506 150 l 1,7,-1
 34 150 l 1,4,-1
EndSplineSet
Validated: 1
EndChar

StartChar: greater
Encoding: 62 62 33
Width: 540
Flags: W
LayerCount: 2
Back
Fore
SplineSet
34 94 m 1,0,-1
 34 234 l 1,1,-1
 196 284 l 1,2,-1
 332 330 l 1,3,-1
 332 334 l 1,4,-1
 196 380 l 1,5,-1
 34 430 l 1,6,-1
 34 570 l 1,7,-1
 506 390 l 1,8,-1
 506 274 l 1,9,-1
 34 94 l 1,0,-1
EndSplineSet
Validated: 1
Substitution2: "'rtla' Right to Left Alternates in Cyrillic lookup 0 subtable" less
EndChar

StartChar: question
Encoding: 63 63 34
Width: 478
Flags: W
LayerCount: 2
Back
Fore
SplineSet
152 244 m 1,0,1
 146 280 146 280 156.5 313 c 128,-1,2
 167 346 167 346 186 370 c 128,-1,3
 205 394 205 394 225 415 c 128,-1,4
 245 436 245 436 259.5 456.5 c 128,-1,5
 274 477 274 477 274 494 c 0,6,7
 274 544 274 544 218 544 c 0,8,9
 182 544 182 544 136 502 c 1,10,-1
 42 588 l 1,11,12
 124 682 124 682 240 682 c 0,13,14
 329 682 329 682 383.5 639 c 128,-1,15
 438 596 438 596 438 506 c 0,16,17
 438 473 438 473 423 444 c 128,-1,18
 408 415 408 415 387 393 c 128,-1,19
 366 371 366 371 345.5 349.5 c 128,-1,20
 325 328 325 328 312 301 c 128,-1,21
 299 274 299 274 302 244 c 1,22,-1
 152 244 l 1,0,1
226 -12 m 128,-1,24
 183 -12 183 -12 154.5 18 c 128,-1,25
 126 48 126 48 126 92 c 128,-1,26
 126 136 126 136 154.5 166 c 128,-1,27
 183 196 183 196 226 196 c 128,-1,28
 269 196 269 196 297.5 166 c 128,-1,29
 326 136 326 136 326 92 c 128,-1,30
 326 48 326 48 297.5 18 c 128,-1,23
 269 -12 269 -12 226 -12 c 128,-1,24
EndSplineSet
Validated: 33
EndChar

StartChar: at
Encoding: 64 64 35
Width: 924
Flags: W
LayerCount: 2
Back
Fore
SplineSet
438 -178 m 0,0,1
 360 -178 360 -178 291.5 -154.5 c 128,-1,2
 223 -131 223 -131 167.5 -85.5 c 128,-1,3
 112 -40 112 -40 80 35 c 128,-1,4
 48 110 48 110 48 206 c 0,5,6
 48 344 48 344 111 453 c 128,-1,7
 174 562 174 562 279.5 620 c 128,-1,8
 385 678 385 678 512 678 c 0,9,10
 677 678 677 678 776.5 576 c 128,-1,11
 876 474 876 474 876 312 c 0,12,13
 876 182 876 182 803 108 c 128,-1,14
 730 34 730 34 638 34 c 0,15,16
 593 34 593 34 560 54.5 c 128,-1,17
 527 75 527 75 518 110 c 1,18,-1
 516 110 l 1,19,20
 497 81 497 81 462 62.5 c 128,-1,21
 427 44 427 44 396 44 c 0,22,23
 335 44 335 44 297.5 86.5 c 128,-1,24
 260 129 260 129 260 198 c 0,25,26
 260 296 260 296 321 372 c 128,-1,27
 382 448 382 448 466 448 c 0,28,29
 518 448 518 448 540 398 c 1,30,-1
 542 398 l 1,31,-1
 558 440 l 1,32,-1
 662 440 l 1,33,-1
 614 212 l 2,34,35
 596 138 596 138 656 138 c 0,36,37
 703 138 703 138 736.5 186 c 128,-1,38
 770 234 770 234 770 308 c 0,39,40
 770 362 770 362 755.5 408 c 128,-1,41
 741 454 741 454 710.5 492.5 c 128,-1,42
 680 531 680 531 625.5 553.5 c 128,-1,43
 571 576 571 576 498 576 c 0,44,45
 366 576 366 576 264 473 c 128,-1,46
 162 370 162 370 162 210 c 0,47,48
 162 70 162 70 246 -3 c 128,-1,49
 330 -76 330 -76 452 -76 c 0,50,51
 528 -76 528 -76 600 -40 c 1,52,-1
 636 -132 l 1,53,54
 547 -178 547 -178 438 -178 c 0,0,1
434 150 m 0,55,56
 461 150 461 150 490 190 c 1,57,-1
 512 316 l 1,58,59
 500 340 500 340 472 340 c 0,60,61
 436 340 436 340 412 297 c 128,-1,62
 388 254 388 254 388 208 c 0,63,64
 388 150 388 150 434 150 c 0,55,56
EndSplineSet
Validated: 33
EndChar

StartChar: A
Encoding: 65 65 36
Width: 584
Flags: W
LayerCount: 2
Back
Fore
SplineSet
240 316 m 2,0,-1
 229 271 l 1,1,-1
 349 271 l 1,2,-1
 338 316 l 2,3,4
 329 350 329 350 313 421.5 c 128,-1,5
 297 493 297 493 290 522 c 1,6,-1
 286 522 l 1,7,8
 253 366 253 366 240 316 c 2,0,-1
-10 0 m 1,9,-1
 188 650 l 1,10,-1
 396 650 l 1,11,-1
 594 0 l 1,12,-1
 412 0 l 1,13,-1
 380 138 l 1,14,-1
 198 138 l 1,15,-1
 166 0 l 1,16,-1
 -10 0 l 1,9,-1
EndSplineSet
Validated: 1
Substitution2: "<10,1> Superiors in Latin lookup 15 subtable" A.sups
EndChar

StartChar: B
Encoding: 66 66 37
Width: 612
Flags: W
LayerCount: 2
Back
Fore
SplineSet
72 0 m 1,0,-1
 72 650 l 1,1,-1
 306 650 l 2,2,3
 552 650 552 650 552 488 c 0,4,5
 552 444 552 444 529 403.5 c 128,-1,6
 506 363 506 363 470 348 c 1,7,-1
 470 344 l 1,8,9
 520 329 520 329 551 291 c 128,-1,10
 582 253 582 253 582 192 c 0,11,12
 582 96 582 96 510 48 c 128,-1,13
 438 0 438 0 326 0 c 2,14,-1
 72 0 l 1,0,-1
244 396 m 1,15,-1
 302 396 l 2,16,17
 384 396 384 396 384 462 c 0,18,19
 384 492 384 492 364 505 c 128,-1,20
 344 518 344 518 302 518 c 2,21,-1
 244 518 l 1,22,-1
 244 396 l 1,15,-1
244 132 m 1,23,-1
 314 132 l 2,24,25
 414 132 414 132 414 204 c 0,26,27
 414 239 414 239 390 254.5 c 128,-1,28
 366 270 366 270 314 270 c 2,29,-1
 244 270 l 1,30,-1
 244 132 l 1,23,-1
EndSplineSet
Validated: 1
Substitution2: "<10,1> Superiors in Latin lookup 15 subtable" B.sups
EndChar

StartChar: C
Encoding: 67 67 38
Width: 586
Flags: W
LayerCount: 2
Back
Fore
SplineSet
354 -12 m 0,0,1
 222 -12 222 -12 133 74.5 c 128,-1,2
 44 161 44 161 44 320 c 0,3,4
 44 477 44 477 136 569.5 c 128,-1,5
 228 662 228 662 358 662 c 0,6,7
 474 662 474 662 560 576 c 1,8,-1
 470 466 l 1,9,10
 415 514 415 514 362 514 c 0,11,12
 303 514 303 514 261.5 463 c 128,-1,13
 220 412 220 412 220 326 c 0,14,15
 220 236 220 236 258 186 c 128,-1,16
 296 136 296 136 360 136 c 0,17,18
 426 136 426 136 478 192 c 1,19,-1
 568 84 l 1,20,21
 485 -12 485 -12 354 -12 c 0,0,1
EndSplineSet
Validated: 1
Substitution2: "<10,1> Superiors in Latin lookup 15 subtable" C.sups
EndChar

StartChar: D
Encoding: 68 68 39
Width: 642
Flags: W
LayerCount: 2
Back
Fore
SplineSet
72 0 m 1,0,-1
 72 650 l 1,1,-1
 264 650 l 2,2,3
 420 650 420 650 509 572 c 128,-1,4
 598 494 598 494 598 328 c 128,-1,5
 598 162 598 162 510.5 81 c 128,-1,6
 423 0 423 0 274 0 c 2,7,-1
 72 0 l 1,0,-1
244 138 m 1,8,-1
 254 138 l 2,9,10
 333 138 333 138 377.5 180 c 128,-1,11
 422 222 422 222 422 328 c 0,12,13
 422 433 422 433 378 472.5 c 128,-1,14
 334 512 334 512 254 512 c 2,15,-1
 244 512 l 1,16,-1
 244 138 l 1,8,-1
EndSplineSet
Validated: 1
Substitution2: "<10,1> Superiors in Latin lookup 15 subtable" D.sups
EndChar

StartChar: E
Encoding: 69 69 40
Width: 556
Flags: W
LayerCount: 2
Back
Fore
SplineSet
72 0 m 1,0,-1
 72 650 l 1,1,-1
 492 650 l 1,2,-1
 492 506 l 1,3,-1
 244 506 l 1,4,-1
 244 404 l 1,5,-1
 456 404 l 1,6,-1
 456 260 l 1,7,-1
 244 260 l 1,8,-1
 244 144 l 1,9,-1
 502 144 l 1,10,-1
 502 0 l 1,11,-1
 72 0 l 1,0,-1
EndSplineSet
Validated: 1
Substitution2: "<10,1> Superiors in Latin lookup 15 subtable" E.sups
EndChar

StartChar: F
Encoding: 70 70 41
Width: 536
Flags: W
LayerCount: 2
Back
Fore
SplineSet
72 0 m 1,0,-1
 72 650 l 1,1,-1
 496 650 l 1,2,-1
 496 506 l 1,3,-1
 244 506 l 1,4,-1
 244 382 l 1,5,-1
 460 382 l 1,6,-1
 460 238 l 1,7,-1
 244 238 l 1,8,-1
 244 0 l 1,9,-1
 72 0 l 1,0,-1
EndSplineSet
Validated: 1
Substitution2: "<10,1> Superiors in Latin lookup 15 subtable" F.sups
EndChar

StartChar: G
Encoding: 71 71 42
Width: 646
Flags: W
LayerCount: 2
Back
Fore
SplineSet
372 -12 m 0,0,1
 228 -12 228 -12 136 74 c 128,-1,2
 44 160 44 160 44 320 c 0,3,4
 44 478 44 478 138 570 c 128,-1,5
 232 662 232 662 368 662 c 0,6,7
 494 662 494 662 580 576 c 1,8,-1
 490 466 l 1,9,10
 435 514 435 514 374 514 c 0,11,12
 306 514 306 514 263 463.5 c 128,-1,13
 220 413 220 413 220 326 c 0,14,15
 220 136 220 136 390 136 c 0,16,17
 422 136 422 136 440 148 c 1,18,-1
 440 238 l 1,19,-1
 344 238 l 1,20,-1
 344 378 l 1,21,-1
 592 378 l 1,22,-1
 592 68 l 1,23,24
 556 33 556 33 497 10.5 c 128,-1,25
 438 -12 438 -12 372 -12 c 0,0,1
EndSplineSet
Validated: 1
Substitution2: "<10,1> Superiors in Latin lookup 15 subtable" G.sups
EndChar

StartChar: H
Encoding: 72 72 43
Width: 682
Flags: W
LayerCount: 2
Back
Fore
SplineSet
72 0 m 1,0,-1
 72 650 l 1,1,-1
 244 650 l 1,2,-1
 244 408 l 1,3,-1
 438 408 l 1,4,-1
 438 650 l 1,5,-1
 610 650 l 1,6,-1
 610 0 l 1,7,-1
 438 0 l 1,8,-1
 438 258 l 1,9,-1
 244 258 l 1,10,-1
 244 0 l 1,11,-1
 72 0 l 1,0,-1
EndSplineSet
Validated: 1
Substitution2: "<10,1> Superiors in Latin lookup 15 subtable" H.sups
EndChar

StartChar: I
Encoding: 73 73 44
Width: 316
Flags: W
LayerCount: 2
Back
Fore
SplineSet
72 0 m 1,0,-1
 72 650 l 1,1,-1
 244 650 l 1,2,-1
 244 0 l 1,3,-1
 72 0 l 1,0,-1
EndSplineSet
Validated: 1
Substitution2: "<10,1> Superiors in Latin lookup 15 subtable" I.sups
EndChar

StartChar: J
Encoding: 74 74 45
Width: 520
Flags: W
LayerCount: 2
Back
Fore
SplineSet
232 -12 m 0,0,1
 81 -12 81 -12 10 111 c 1,2,-1
 126 198 l 1,3,4
 158 136 158 136 208 136 c 0,5,6
 245 136 245 136 262.5 158.5 c 128,-1,7
 280 181 280 181 280 240 c 2,8,-1
 280 650 l 1,9,-1
 452 650 l 1,10,-1
 452 226 l 2,11,12
 452 122 452 122 395.5 55 c 128,-1,13
 339 -12 339 -12 232 -12 c 0,0,1
EndSplineSet
Validated: 1
Substitution2: "<10,1> Superiors in Latin lookup 15 subtable" J.sups
EndChar

StartChar: K
Encoding: 75 75 46
Width: 628
Flags: W
LayerCount: 2
Back
Fore
SplineSet
72 0 m 1,0,-1
 72 650 l 1,1,-1
 244 650 l 1,2,-1
 244 408 l 1,3,-1
 248 408 l 1,4,-1
 412 650 l 1,5,-1
 600 650 l 1,6,-1
 406 386 l 1,7,-1
 638 0 l 1,8,-1
 450 0 l 1,9,-1
 306 250 l 1,10,-1
 244 162 l 1,11,-1
 244 0 l 1,12,-1
 72 0 l 1,0,-1
EndSplineSet
Validated: 1
Substitution2: "<10,1> Superiors in Latin lookup 15 subtable" K.sups
EndChar

StartChar: L
Encoding: 76 76 47
Width: 530
Flags: W
LayerCount: 2
Back
Fore
SplineSet
72 0 m 1,0,-1
 72 650 l 1,1,-1
 244 650 l 1,2,-1
 244 144 l 1,3,-1
 490 144 l 1,4,-1
 490 0 l 1,5,-1
 72 0 l 1,0,-1
EndSplineSet
Validated: 1
Substitution2: "<10,1> Superiors in Latin lookup 15 subtable" L.sups
EndChar

StartChar: M
Encoding: 77 77 48
Width: 776
Flags: W
LayerCount: 2
Back
Fore
SplineSet
72 0 m 1,0,-1
 72 650 l 1,1,-1
 256 650 l 1,2,-1
 354 384 l 2,3,4
 360 365 360 365 371.5 326 c 128,-1,5
 383 287 383 287 388 270 c 1,6,-1
 392 270 l 1,7,8
 397 287 397 287 408.5 326 c 128,-1,9
 420 365 420 365 426 384 c 2,10,-1
 520 650 l 1,11,-1
 704 650 l 1,12,-1
 704 0 l 1,13,-1
 548 0 l 1,14,-1
 548 192 l 2,15,16
 548 245 548 245 570 424 c 1,17,-1
 566 424 l 1,18,-1
 512 268 l 1,19,-1
 432 53 l 1,20,-1
 340 53 l 1,21,-1
 260 268 l 1,22,-1
 208 424 l 1,23,-1
 204 424 l 1,24,25
 226 245 226 245 226 192 c 2,26,-1
 226 0 l 1,27,-1
 72 0 l 1,0,-1
EndSplineSet
Validated: 1
Substitution2: "<10,1> Superiors in Latin lookup 15 subtable" M.sups
EndChar

StartChar: N
Encoding: 78 78 49
Width: 672
Flags: W
LayerCount: 2
Back
Fore
SplineSet
72 0 m 1,0,-1
 72 650 l 1,1,-1
 248 650 l 1,2,-1
 392 360 l 1,3,-1
 454 214 l 1,4,-1
 458 214 l 1,5,6
 436 406 436 406 436 462 c 2,7,-1
 436 650 l 1,8,-1
 600 650 l 1,9,-1
 600 0 l 1,10,-1
 424 0 l 1,11,-1
 280 291 l 1,12,-1
 218 436 l 1,13,-1
 214 436 l 1,14,15
 216 420 216 420 220.5 379 c 128,-1,16
 225 338 225 338 228 312.5 c 128,-1,17
 231 287 231 287 233.5 251.5 c 128,-1,18
 236 216 236 216 236 188 c 2,19,-1
 236 0 l 1,20,-1
 72 0 l 1,0,-1
EndSplineSet
Validated: 1
Substitution2: "<10,1> Superiors in Latin lookup 15 subtable" N.sups
EndChar

StartChar: O
Encoding: 79 79 50
Width: 692
Flags: W
LayerCount: 2
Back
Fore
SplineSet
346 -12 m 128,-1,1
 209 -12 209 -12 126.5 79 c 128,-1,2
 44 170 44 170 44 328 c 128,-1,3
 44 486 44 486 126.5 574 c 128,-1,4
 209 662 209 662 346 662 c 128,-1,5
 483 662 483 662 565.5 573.5 c 128,-1,6
 648 485 648 485 648 328 c 0,7,8
 648 170 648 170 565.5 79 c 128,-1,0
 483 -12 483 -12 346 -12 c 128,-1,1
346 136 m 128,-1,10
 404 136 404 136 438 187.5 c 128,-1,11
 472 239 472 239 472 328 c 0,12,13
 472 416 472 416 438.5 465 c 128,-1,14
 405 514 405 514 346 514 c 128,-1,15
 287 514 287 514 253.5 465 c 128,-1,16
 220 416 220 416 220 328 c 0,17,18
 220 239 220 239 254 187.5 c 128,-1,9
 288 136 288 136 346 136 c 128,-1,10
EndSplineSet
Validated: 1
Substitution2: "<10,1> Superiors in Latin lookup 15 subtable" O.sups
EndChar

StartChar: P
Encoding: 80 80 51
Width: 608
Flags: W
LayerCount: 2
Back
Fore
SplineSet
72 0 m 1,0,-1
 72 650 l 1,1,-1
 310 650 l 2,2,3
 428 650 428 650 501 599.5 c 128,-1,4
 574 549 574 549 574 434 c 0,5,6
 574 358 574 358 536.5 305 c 128,-1,7
 499 252 499 252 442 229 c 128,-1,8
 385 206 385 206 314 206 c 2,9,-1
 244 206 l 1,10,-1
 244 0 l 1,11,-1
 72 0 l 1,0,-1
244 342 m 1,12,-1
 306 342 l 2,13,14
 406 342 406 342 406 434 c 0,15,16
 406 514 406 514 302 514 c 2,17,-1
 244 514 l 1,18,-1
 244 342 l 1,12,-1
EndSplineSet
Validated: 1
Substitution2: "<10,1> Superiors in Latin lookup 15 subtable" P.sups
EndChar

StartChar: Q
Encoding: 81 81 52
Width: 692
Flags: W
LayerCount: 2
Back
Fore
SplineSet
346 128 m 128,-1,1
 405 128 405 128 438.5 180.5 c 128,-1,2
 472 233 472 233 472 328 c 0,3,4
 472 416 472 416 438.5 465 c 128,-1,5
 405 514 405 514 346 514 c 128,-1,6
 287 514 287 514 253.5 465 c 128,-1,7
 220 416 220 416 220 328 c 0,8,9
 220 233 220 233 253.5 180.5 c 128,-1,0
 287 128 287 128 346 128 c 128,-1,1
566 -188 m 0,10,11
 460 -188 460 -188 383.5 -138 c 128,-1,12
 307 -88 307 -88 268 -3 c 1,13,14
 164 21 164 21 104 107.5 c 128,-1,15
 44 194 44 194 44 328 c 0,16,17
 44 486 44 486 126.5 574 c 128,-1,18
 209 662 209 662 346 662 c 128,-1,19
 483 662 483 662 565.5 573.5 c 128,-1,20
 648 485 648 485 648 328 c 0,21,22
 648 203 648 203 595 119 c 128,-1,23
 542 35 542 35 449 4 c 1,24,25
 489 -52 489 -52 586 -52 c 0,26,27
 626 -52 626 -52 660 -40 c 1,28,-1
 690 -164 l 1,29,30
 645 -188 645 -188 566 -188 c 0,10,11
EndSplineSet
Validated: 1
Substitution2: "<10,1> Superiors in Latin lookup 15 subtable" Q.sups
EndChar

StartChar: R
Encoding: 82 82 53
Width: 630
Flags: W
LayerCount: 2
Back
Fore
SplineSet
72 0 m 1,0,-1
 72 650 l 1,1,-1
 318 650 l 2,2,3
 578 650 578 650 578 440 c 0,4,5
 578 309 578 309 473 252 c 1,6,-1
 614 0 l 1,7,-1
 422 0 l 1,8,-1
 310 218 l 1,9,-1
 244 218 l 1,10,-1
 244 0 l 1,11,-1
 72 0 l 1,0,-1
244 354 m 1,12,-1
 306 354 l 2,13,14
 410 354 410 354 410 440 c 0,15,16
 410 481 410 481 384.5 497.5 c 128,-1,17
 359 514 359 514 306 514 c 2,18,-1
 244 514 l 1,19,-1
 244 354 l 1,12,-1
EndSplineSet
Validated: 1
Substitution2: "<10,1> Superiors in Latin lookup 15 subtable" R.sups
EndChar

StartChar: S
Encoding: 83 83 54
Width: 564
Flags: W
LayerCount: 2
Back
Fore
SplineSet
278 -12 m 0,0,1
 214 -12 214 -12 148.5 11.5 c 128,-1,2
 83 35 83 35 32 81 c 1,3,-1
 130 199 l 1,4,5
 208 136 208 136 282 136 c 128,-1,6
 356 136 356 136 356 182 c 0,7,8
 356 210 356 210 282 239 c 0,9,10
 273 243 273 243 268 245 c 2,11,-1
 187 279 l 2,12,13
 129 302 129 302 92.5 348 c 128,-1,14
 56 394 56 394 56 460 c 0,15,16
 56 545 56 545 124.5 603.5 c 128,-1,17
 193 662 193 662 298 662 c 0,18,19
 356 662 356 662 413.5 640 c 128,-1,20
 471 618 471 618 514 575 c 1,21,-1
 428 467 l 1,22,23
 361 514 361 514 298 514 c 0,24,25
 230 514 230 514 230 470 c 0,26,27
 230 451 230 451 248 439.5 c 128,-1,28
 266 428 266 428 310 411 c 0,29,30
 320 407 320 407 326 405 c 2,31,-1
 405 374 l 2,32,33
 532 324 532 324 532 196 c 0,34,35
 532 109 532 109 463.5 48.5 c 128,-1,36
 395 -12 395 -12 278 -12 c 0,0,1
EndSplineSet
Validated: 1
Substitution2: "<10,1> Superiors in Latin lookup 15 subtable" S.sups
EndChar

StartChar: T
Encoding: 84 84 55
Width: 564
Flags: W
LayerCount: 2
Back
Fore
SplineSet
196 0 m 1,0,-1
 196 506 l 1,1,-1
 24 506 l 1,2,-1
 24 650 l 1,3,-1
 540 650 l 1,4,-1
 540 506 l 1,5,-1
 368 506 l 1,6,-1
 368 0 l 1,7,-1
 196 0 l 1,0,-1
EndSplineSet
Validated: 1
Substitution2: "<10,1> Superiors in Latin lookup 15 subtable" T.sups
EndChar

StartChar: U
Encoding: 85 85 56
Width: 672
Flags: W
LayerCount: 2
Back
Fore
SplineSet
338 -12 m 0,0,1
 201 -12 201 -12 134.5 68 c 128,-1,2
 68 148 68 148 68 314 c 2,3,-1
 68 650 l 1,4,-1
 240 650 l 1,5,-1
 240 294 l 2,6,7
 240 208 240 208 263 172 c 128,-1,8
 286 136 286 136 338 136 c 128,-1,9
 390 136 390 136 414 172.5 c 128,-1,10
 438 209 438 209 438 294 c 2,11,-1
 438 650 l 1,12,-1
 604 650 l 1,13,-1
 604 314 l 2,14,15
 604 147 604 147 539 67.5 c 128,-1,16
 474 -12 474 -12 338 -12 c 0,0,1
EndSplineSet
Validated: 1
Substitution2: "<10,1> Superiors in Latin lookup 15 subtable" U.sups
EndChar

StartChar: V
Encoding: 86 86 57
Width: 572
Flags: W
LayerCount: 2
Back
Fore
SplineSet
182 0 m 1,0,-1
 -10 650 l 1,1,-1
 172 650 l 1,2,-1
 240 366 l 2,3,4
 249 331 249 331 264 262.5 c 128,-1,5
 279 194 279 194 288 160 c 1,6,-1
 292 160 l 1,7,8
 302 198 302 198 317.5 267 c 128,-1,9
 333 336 333 336 340 366 c 2,10,-1
 406 650 l 1,11,-1
 582 650 l 1,12,-1
 390 0 l 1,13,-1
 182 0 l 1,0,-1
EndSplineSet
Validated: 1
Substitution2: "<10,1> Superiors in Latin lookup 15 subtable" V.sups
EndChar

StartChar: W
Encoding: 87 87 58
Width: 824
Flags: W
LayerCount: 2
Back
Fore
SplineSet
124 0 m 1,0,-1
 10 650 l 1,1,-1
 186 650 l 1,2,-1
 222 366 l 2,3,4
 226 332 226 332 233.5 264 c 128,-1,5
 241 196 241 196 244 162 c 1,6,-1
 248 162 l 1,7,8
 252 185 252 185 259.5 226.5 c 128,-1,9
 267 268 267 268 273 302 c 128,-1,10
 279 336 279 336 284 366 c 2,11,-1
 346 650 l 1,12,-1
 490 650 l 1,13,-1
 552 366 l 2,14,15
 561 317 561 317 588 162 c 1,16,-1
 592 162 l 1,17,18
 596 201 596 201 604 272.5 c 128,-1,19
 612 344 612 344 614 366 c 2,20,-1
 650 650 l 1,21,-1
 814 650 l 1,22,-1
 706 0 l 1,23,-1
 488 0 l 1,24,-1
 438 258 l 2,25,26
 425 325 425 325 414 410 c 1,27,-1
 410 410 l 1,28,29
 393 292 393 292 386 258 c 2,30,-1
 338 0 l 1,31,-1
 124 0 l 1,0,-1
EndSplineSet
Validated: 1
Substitution2: "<10,1> Superiors in Latin lookup 15 subtable" W.sups
EndChar

StartChar: X
Encoding: 88 88 59
Width: 588
Flags: W
LayerCount: 2
Back
Fore
SplineSet
10 0 m 1,0,-1
 186 334 l 1,1,-1
 20 650 l 1,2,-1
 212 650 l 1,3,-1
 256 544 l 2,4,5
 262 531 262 531 269.5 514 c 128,-1,6
 277 497 277 497 286 474 c 128,-1,7
 295 451 295 451 302 436 c 1,8,-1
 306 436 l 1,9,10
 322 484 322 484 346 544 c 2,11,-1
 384 650 l 1,12,-1
 568 650 l 1,13,-1
 402 326 l 1,14,-1
 578 0 l 1,15,-1
 386 0 l 1,16,-1
 334 116 l 2,17,18
 315 156 315 156 288 224 c 1,19,-1
 284 224 l 1,20,21
 270 184 270 184 242 116 c 2,22,-1
 194 0 l 1,23,-1
 10 0 l 1,0,-1
EndSplineSet
Validated: 1
Substitution2: "<10,1> Superiors in Latin lookup 15 subtable" X.sups
EndChar

StartChar: Y
Encoding: 89 89 60
Width: 544
Flags: W
LayerCount: 2
Back
Fore
SplineSet
186 0 m 1,0,-1
 186 224 l 1,1,-1
 -10 650 l 1,2,-1
 174 650 l 1,3,-1
 222 514 l 2,4,5
 231 487 231 487 247.5 438.5 c 128,-1,6
 264 390 264 390 271 369 c 1,7,-1
 275 369 l 1,8,9
 285 398 285 398 302.5 448 c 128,-1,10
 320 498 320 498 326 514 c 2,11,-1
 374 650 l 1,12,-1
 554 650 l 1,13,-1
 358 224 l 1,14,-1
 358 0 l 1,15,-1
 186 0 l 1,0,-1
EndSplineSet
Validated: 1
Substitution2: "<10,1> Superiors in Latin lookup 15 subtable" Y.sups
EndChar

StartChar: Z
Encoding: 90 90 61
Width: 542
Flags: W
LayerCount: 2
Back
Fore
SplineSet
32 0 m 1,0,-1
 32 104 l 1,1,-1
 298 506 l 1,2,-1
 58 506 l 1,3,-1
 58 650 l 1,4,-1
 510 650 l 1,5,-1
 510 546 l 1,6,-1
 244 144 l 1,7,-1
 512 144 l 1,8,-1
 512 0 l 1,9,-1
 32 0 l 1,0,-1
EndSplineSet
Validated: 1
Substitution2: "<10,1> Superiors in Latin lookup 15 subtable" Z.sups
EndChar

StartChar: bracketleft
Encoding: 91 91 62
Width: 360
Flags: W
LayerCount: 2
Back
Fore
SplineSet
84 -152 m 1,0,-1
 84 708 l 1,1,-1
 308 708 l 1,2,-1
 308 618 l 1,3,-1
 212 618 l 1,4,-1
 212 -62 l 1,5,-1
 308 -62 l 1,6,-1
 308 -152 l 1,7,-1
 84 -152 l 1,0,-1
EndSplineSet
Validated: 1
Substitution2: "'rtla' Right to Left Alternates in Cyrillic lookup 0 subtable" bracketright
EndChar

StartChar: backslash
Encoding: 92 92 63
Width: 334
Flags: W
LayerCount: 2
Back
Fore
SplineSet
210 -160 m 1,0,-1
 34 710 l 1,1,-1
 144 710 l 1,2,-1
 320 -160 l 1,3,-1
 210 -160 l 1,0,-1
EndSplineSet
Validated: 1
EndChar

StartChar: bracketright
Encoding: 93 93 64
Width: 360
Flags: W
LayerCount: 2
Back
Fore
SplineSet
52 -152 m 1,0,-1
 52 -62 l 1,1,-1
 148 -62 l 1,2,-1
 148 618 l 1,3,-1
 52 618 l 1,4,-1
 52 708 l 1,5,-1
 276 708 l 1,6,-1
 276 -152 l 1,7,-1
 52 -152 l 1,0,-1
EndSplineSet
Validated: 1
Substitution2: "'rtla' Right to Left Alternates in Cyrillic lookup 0 subtable" bracketleft
EndChar

StartChar: asciicircum
Encoding: 94 94 65
Width: 540
Flags: W
LayerCount: 2
Back
Fore
SplineSet
46 270 m 1,0,-1
 202 670 l 1,1,-1
 338 670 l 1,2,-1
 494 270 l 1,3,-1
 354 270 l 1,4,-1
 316 380 l 1,5,-1
 272 516 l 1,6,-1
 268 516 l 1,7,-1
 224 380 l 1,8,-1
 186 270 l 1,9,-1
 46 270 l 1,0,-1
EndSplineSet
Validated: 1
EndChar

StartChar: underscore
Encoding: 95 95 66
Width: 500
Flags: W
LayerCount: 2
Back
Fore
SplineSet
12 -146 m 1,0,-1
 12 -52 l 1,1,-1
 488 -52 l 1,2,-1
 488 -146 l 1,3,-1
 12 -146 l 1,0,-1
EndSplineSet
Validated: 1
EndChar

StartChar: grave
Encoding: 96 96 67
Width: 560
Flags: W
LayerCount: 2
Back
Fore
SplineSet
260 572 m 1,0,-1
 70 730 l 1,1,-1
 186 844 l 1,2,-1
 344 656 l 1,3,-1
 260 572 l 1,0,-1
EndSplineSet
Validated: 1
EndChar

StartChar: a
Encoding: 97 97 68
Width: 536
Flags: W
LayerCount: 2
Back
Fore
SplineSet
188 -12 m 0,0,1
 120 -12 120 -12 79 33 c 128,-1,2
 38 78 38 78 38 142 c 0,3,4
 38 221 38 221 102.5 265 c 128,-1,5
 167 309 167 309 310 324 c 1,6,7
 304 376 304 376 240 376 c 0,8,9
 192 376 192 376 114 334 c 1,10,-1
 54 446 l 1,11,12
 164 512 164 512 274 512 c 0,13,14
 482 512 482 512 482 278 c 2,15,-1
 482 0 l 1,16,-1
 342 0 l 1,17,-1
 330 48 l 1,18,-1
 326 48 l 1,19,20
 259 -12 259 -12 188 -12 c 0,0,1
248 120 m 0,21,22
 279 120 279 120 310 154 c 1,23,-1
 310 222 l 1,24,25
 202 206 202 206 202 156 c 0,26,27
 202 120 202 120 248 120 c 0,21,22
EndSplineSet
Validated: 1
Substitution2: "<10,1> Superiors in Latin lookup 14 subtable" a.sups
Substitution2: "<3,3> Small Caps in Latin lookup 4 subtable" A.sc
EndChar

StartChar: b
Encoding: 98 98 69
Width: 580
Flags: W
LayerCount: 2
Back
Fore
SplineSet
336 -12 m 0,0,1
 267 -12 267 -12 210 54 c 1,2,-1
 206 54 l 1,3,-1
 192 0 l 1,4,-1
 58 0 l 1,5,-1
 58 696 l 1,6,-1
 230 696 l 1,7,-1
 230 534 l 1,8,-1
 226 462 l 1,9,10
 281 512 281 512 349 512 c 0,11,12
 437 512 437 512 490.5 443 c 128,-1,13
 544 374 544 374 544 259 c 0,14,15
 544 135 544 135 482 61.5 c 128,-1,16
 420 -12 420 -12 336 -12 c 0,0,1
294 128 m 0,17,18
 368 128 368 128 368 256 c 0,19,20
 368 372 368 372 298 372 c 0,21,22
 260 372 260 372 230 336 c 1,23,-1
 230 152 l 1,24,25
 257 128 257 128 294 128 c 0,17,18
EndSplineSet
Validated: 1
Substitution2: "<10,1> Superiors in Latin lookup 14 subtable" b.sups
Substitution2: "<3,3> Small Caps in Latin lookup 4 subtable" B.sc
EndChar

StartChar: c
Encoding: 99 99 70
Width: 472
Flags: W
LayerCount: 2
Back
Fore
SplineSet
284 -12 m 0,0,1
 174 -12 174 -12 103 58.5 c 128,-1,2
 32 129 32 129 32 250 c 0,3,4
 32 370 32 370 110 441 c 128,-1,5
 188 512 188 512 300 512 c 0,6,7
 384 512 384 512 446 460 c 1,8,-1
 366 350 l 1,9,10
 337 374 337 374 310 374 c 0,11,12
 262 374 262 374 235 340.5 c 128,-1,13
 208 307 208 307 208 250 c 0,14,15
 208 194 208 194 235.5 160 c 128,-1,16
 263 126 263 126 304 126 c 0,17,18
 341 126 341 126 384 158 c 1,19,-1
 450 46 l 1,20,21
 384 -12 384 -12 284 -12 c 0,0,1
EndSplineSet
Validated: 1
Substitution2: "<10,1> Superiors in Latin lookup 14 subtable" c.sups
Substitution2: "<3,3> Small Caps in Latin lookup 4 subtable" C.sc
EndChar

StartChar: d
Encoding: 100 100 71
Width: 580
Flags: W
LayerCount: 2
Back
Fore
SplineSet
240 -12 m 0,0,1
 147 -12 147 -12 91.5 58.5 c 128,-1,2
 36 129 36 129 36 250 c 0,3,4
 36 368 36 368 97.5 440 c 128,-1,5
 159 512 159 512 240 512 c 0,6,7
 306 512 306 512 356 462 c 1,8,-1
 350 534 l 1,9,-1
 350 696 l 1,10,-1
 522 696 l 1,11,-1
 522 0 l 1,12,-1
 382 0 l 1,13,-1
 370 46 l 1,14,-1
 366 46 l 1,15,16
 308 -12 308 -12 240 -12 c 0,0,1
286 128 m 0,17,18
 327 128 327 128 350 164 c 1,19,-1
 350 348 l 1,20,21
 323 372 323 372 282 372 c 0,22,23
 252 372 252 372 232 343 c 128,-1,24
 212 314 212 314 212 252 c 0,25,26
 212 128 212 128 286 128 c 0,17,18
EndSplineSet
Validated: 1
Substitution2: "<10,1> Superiors in Latin lookup 14 subtable" d.sups
Substitution2: "<3,3> Small Caps in Latin lookup 4 subtable" D.sc
EndChar

StartChar: e
Encoding: 101 101 72
Width: 526
Flags: W
LayerCount: 2
Back
Fore
SplineSet
290 -12 m 0,0,1
 177 -12 177 -12 104.5 58.5 c 128,-1,2
 32 129 32 129 32 250 c 0,3,4
 32 367 32 367 104 439.5 c 128,-1,5
 176 512 176 512 272 512 c 0,6,7
 378 512 378 512 434 444 c 128,-1,8
 490 376 490 376 490 270 c 0,9,10
 490 226 490 226 483 198 c 1,11,-1
 198 198 l 1,12,13
 219 118 219 118 314 118 c 0,14,15
 362 118 362 118 416 148 c 1,16,-1
 472 46 l 1,17,18
 390 -12 390 -12 290 -12 c 0,0,1
196 310 m 1,19,-1
 344 310 l 1,20,21
 344 382 344 382 276 382 c 0,22,23
 246 382 246 382 224.5 364 c 128,-1,24
 203 346 203 346 196 310 c 1,19,-1
EndSplineSet
Validated: 1
Substitution2: "<10,1> Superiors in Latin lookup 14 subtable" e.sups
Substitution2: "<3,3> Small Caps in Latin lookup 4 subtable" E.sc
EndChar

StartChar: f
Encoding: 102 102 73
Width: 360
Flags: W
LayerCount: 2
Back
Fore
SplineSet
88 0 m 1,0,-1
 88 366 l 1,1,-1
 22 366 l 1,2,-1
 22 494 l 1,3,-1
 88 499 l 1,4,-1
 88 506 l 2,5,6
 88 595 88 595 135 651.5 c 128,-1,7
 182 708 182 708 286 708 c 0,8,9
 343 708 343 708 392 690 c 1,10,-1
 362 564 l 1,11,12
 335 574 335 574 312 574 c 0,13,14
 260 574 260 574 260 512 c 2,15,-1
 260 500 l 1,16,-1
 344 500 l 1,17,-1
 344 366 l 1,18,-1
 260 366 l 1,19,-1
 260 0 l 1,20,-1
 88 0 l 1,0,-1
EndSplineSet
Validated: 1
Substitution2: "<10,1> Superiors in Latin lookup 14 subtable" f.sups
Substitution2: "<3,3> Small Caps in Latin lookup 4 subtable" F.sc
EndChar

StartChar: g
Encoding: 103 103 74
Width: 546
Flags: W
LayerCount: 2
Back
Fore
SplineSet
240 -206 m 0,0,1
 147 -206 147 -206 88.5 -176 c 128,-1,2
 30 -146 30 -146 30 -82 c 0,3,4
 30 -23 30 -23 100 14 c 1,5,-1
 100 18 l 1,6,7
 54 50 54 50 54 104 c 128,-1,8
 54 158 54 158 110 198 c 1,9,-1
 110 202 l 1,10,11
 81 222 81 222 61.5 255.5 c 128,-1,12
 42 289 42 289 42 330 c 0,13,14
 42 418 42 418 104.5 465 c 128,-1,15
 167 512 167 512 256 512 c 0,16,17
 300 512 300 512 336 500 c 1,18,-1
 522 500 l 1,19,-1
 522 376 l 1,20,-1
 450 376 l 1,21,22
 458 352 458 352 458 324 c 0,23,24
 458 240 458 240 402 199 c 128,-1,25
 346 158 346 158 256 158 c 0,26,27
 231 158 231 158 200 165 c 1,28,29
 188 154 188 154 188 136 c 0,30,31
 188 120 188 120 204 113 c 128,-1,32
 220 106 220 106 258 106 c 2,33,-1
 333 106 l 2,34,35
 530 106 530 106 530 -24 c 0,36,37
 530 -106 530 -106 451 -156 c 128,-1,38
 372 -206 372 -206 240 -206 c 0,0,1
256 260 m 128,-1,40
 310 260 310 260 310 330 c 0,41,42
 310 363 310 363 295.5 380.5 c 128,-1,43
 281 398 281 398 256 398 c 128,-1,44
 231 398 231 398 216.5 380.5 c 128,-1,45
 202 363 202 363 202 330 c 0,46,39
 202 260 202 260 256 260 c 128,-1,40
268 -100 m 0,47,48
 311 -100 311 -100 338.5 -87.5 c 128,-1,49
 366 -75 366 -75 366 -54 c 0,50,51
 366 -36 366 -36 350.5 -30 c 128,-1,52
 335 -24 335 -24 299 -24 c 2,53,-1
 260 -24 l 2,54,55
 209 -24 209 -24 188 -18 c 1,56,57
 170 -36 170 -36 170 -54 c 0,58,59
 170 -100 170 -100 268 -100 c 0,47,48
EndSplineSet
Validated: 1
Substitution2: "<10,1> Superiors in Latin lookup 14 subtable" g.sups
Substitution2: "<3,3> Small Caps in Latin lookup 4 subtable" G.sc
EndChar

StartChar: h
Encoding: 104 104 75
Width: 582
Flags: W
LayerCount: 2
Back
Fore
SplineSet
58 0 m 1,0,-1
 58 696 l 1,1,-1
 230 696 l 1,2,-1
 230 534 l 1,3,-1
 222 448 l 1,4,5
 295 512 295 512 372 512 c 0,6,7
 528 512 528 512 528 308 c 2,8,-1
 528 0 l 1,9,-1
 356 0 l 1,10,-1
 356 286 l 2,11,12
 356 332 356 332 344.5 349 c 128,-1,13
 333 366 333 366 306 366 c 0,14,15
 271 366 271 366 230 328 c 1,16,-1
 230 0 l 1,17,-1
 58 0 l 1,0,-1
EndSplineSet
Validated: 1
Substitution2: "<10,1> Superiors in Latin lookup 14 subtable" h.sups
Substitution2: "<3,3> Small Caps in Latin lookup 4 subtable" H.sc
EndChar

StartChar: i
Encoding: 105 105 76
Width: 288
Flags: W
LayerCount: 2
Back
Fore
SplineSet
50 639 m 128,-1,1
 50 676 50 676 76 702.5 c 128,-1,2
 102 729 102 729 140 729 c 128,-1,3
 178 729 178 729 204 702.5 c 128,-1,4
 230 676 230 676 230 639 c 128,-1,5
 230 602 230 602 204 575.5 c 128,-1,6
 178 549 178 549 140 549 c 128,-1,7
 102 549 102 549 76 575.5 c 128,-1,0
 50 602 50 602 50 639 c 128,-1,1
58 0 m 1,8,-1
 58 500 l 1,9,-1
 230 500 l 1,10,-1
 230 0 l 1,11,-1
 58 0 l 1,8,-1
EndSplineSet
Validated: 1
Substitution2: "<10,1> Superiors in Latin lookup 14 subtable" i.sups
Substitution2: "<3,3> Small Caps in Latin lookup 4 subtable" I.sc
EndChar

StartChar: j
Encoding: 106 106 77
Width: 290
Flags: W
LayerCount: 2
Back
Fore
SplineSet
50 639 m 128,-1,1
 50 676 50 676 76 702.5 c 128,-1,2
 102 729 102 729 140 729 c 128,-1,3
 178 729 178 729 204 702.5 c 128,-1,4
 230 676 230 676 230 639 c 128,-1,5
 230 602 230 602 204 575.5 c 128,-1,6
 178 549 178 549 140 549 c 128,-1,7
 102 549 102 549 76 575.5 c 128,-1,0
 50 602 50 602 50 639 c 128,-1,1
38 -188 m 0,8,9
 -18 -188 -18 -188 -56 -174 c 1,10,-1
 -26 -48 l 1,11,12
 -5 -54 -5 -54 10 -54 c 0,13,14
 37 -54 37 -54 48.5 -37 c 128,-1,15
 60 -20 60 -20 60 20 c 2,16,-1
 60 500 l 1,17,-1
 232 500 l 1,18,-1
 232 26 l 2,19,20
 232 -69 232 -69 187 -128.5 c 128,-1,21
 142 -188 142 -188 38 -188 c 0,8,9
EndSplineSet
Validated: 1
Substitution2: "<10,1> Superiors in Latin lookup 14 subtable" j.sups
Substitution2: "<3,3> Small Caps in Latin lookup 4 subtable" J.sc
EndChar

StartChar: k
Encoding: 107 107 78
Width: 568
Flags: W
LayerCount: 2
Back
Fore
SplineSet
58 0 m 1,0,-1
 58 696 l 1,1,-1
 226 696 l 1,2,-1
 226 326 l 1,3,-1
 230 326 l 1,4,-1
 368 500 l 1,5,-1
 554 500 l 1,6,-1
 376 292 l 1,7,-1
 564 0 l 1,8,-1
 378 0 l 1,9,-1
 278 178 l 1,10,-1
 226 120 l 1,11,-1
 226 0 l 1,12,-1
 58 0 l 1,0,-1
EndSplineSet
Validated: 1
Substitution2: "<10,1> Superiors in Latin lookup 14 subtable" k.sups
Substitution2: "<3,3> Small Caps in Latin lookup 4 subtable" K.sc
EndChar

StartChar: l
Encoding: 108 108 79
Width: 298
Flags: WO
LayerCount: 2
Back
Fore
SplineSet
201 -12 m 0,0,1
 46.4863387978 -12 46.4863387978 -12 47 176 c 2,2,-1
 48 542 l 1,3,-1
 219 588 l 1,4,-1
 219 170 l 2,5,6
 219 147 219 147 227.5 136.5 c 128,-1,7
 236 126 236 126 247 126 c 0,8,9
 257 126 257 126 265 128 c 1,10,-1
 285 2 l 1,11,12
 254 -12 254 -12 201 -12 c 0,0,1
EndSplineSet
Substitution2: "<10,1> Superiors in Latin lookup 14 subtable" l.sups
Substitution2: "<3,3> Small Caps in Latin lookup 4 subtable" L.sc
EndChar

StartChar: m
Encoding: 109 109 80
Width: 868
Flags: W
LayerCount: 2
Back
Fore
SplineSet
58 0 m 1,0,-1
 58 500 l 1,1,-1
 198 500 l 1,2,-1
 210 439 l 1,3,-1
 214 439 l 1,4,5
 250 474 250 474 284 493 c 128,-1,6
 318 512 318 512 364 512 c 0,7,8
 460 512 460 512 502 432 c 1,9,10
 539 470 539 470 574.5 491 c 128,-1,11
 610 512 610 512 656 512 c 0,12,13
 736 512 736 512 775 458 c 128,-1,14
 814 404 814 404 814 308 c 2,15,-1
 814 0 l 1,16,-1
 642 0 l 1,17,-1
 642 286 l 2,18,19
 642 332 642 332 630.5 349 c 128,-1,20
 619 366 619 366 592 366 c 0,21,22
 560 366 560 366 522 328 c 1,23,-1
 522 0 l 1,24,-1
 350 0 l 1,25,-1
 350 286 l 2,26,27
 350 332 350 332 338.5 349 c 128,-1,28
 327 366 327 366 300 366 c 0,29,30
 268 366 268 366 230 328 c 1,31,-1
 230 0 l 1,32,-1
 58 0 l 1,0,-1
EndSplineSet
Validated: 1
Substitution2: "<10,1> Superiors in Latin lookup 14 subtable" m.sups
Substitution2: "<3,3> Small Caps in Latin lookup 4 subtable" M.sc
EndChar

StartChar: n
Encoding: 110 110 81
Width: 582
Flags: W
LayerCount: 2
Back
Fore
SplineSet
58 0 m 1,0,-1
 58 500 l 1,1,-1
 198 500 l 1,2,-1
 210 440 l 1,3,-1
 214 440 l 1,4,5
 290 512 290 512 372 512 c 0,6,7
 528 512 528 512 528 308 c 2,8,-1
 528 0 l 1,9,-1
 356 0 l 1,10,-1
 356 286 l 2,11,12
 356 332 356 332 344.5 349 c 128,-1,13
 333 366 333 366 306 366 c 0,14,15
 271 366 271 366 230 328 c 1,16,-1
 230 0 l 1,17,-1
 58 0 l 1,0,-1
EndSplineSet
Validated: 1
Substitution2: "<10,1> Superiors in Latin lookup 14 subtable" n.sups
Substitution2: "<3,3> Small Caps in Latin lookup 4 subtable" N.sc
EndChar

StartChar: o
Encoding: 111 111 82
Width: 560
Flags: W
LayerCount: 2
Back
Fore
SplineSet
280 -12 m 128,-1,1
 179 -12 179 -12 105.5 59.5 c 128,-1,2
 32 131 32 131 32 250 c 128,-1,3
 32 369 32 369 105.5 440.5 c 128,-1,4
 179 512 179 512 280 512 c 128,-1,5
 381 512 381 512 454.5 440.5 c 128,-1,6
 528 369 528 369 528 250 c 128,-1,7
 528 131 528 131 454.5 59.5 c 128,-1,0
 381 -12 381 -12 280 -12 c 128,-1,1
280 126 m 128,-1,9
 352 126 352 126 352 250 c 128,-1,10
 352 374 352 374 280 374 c 128,-1,11
 208 374 208 374 208 250 c 128,-1,8
 208 126 208 126 280 126 c 128,-1,9
EndSplineSet
Validated: 1
Substitution2: "<10,1> Superiors in Latin lookup 14 subtable" o.sups
Substitution2: "<3,3> Small Caps in Latin lookup 4 subtable" O.sc
EndChar

StartChar: p
Encoding: 112 112 83
Width: 580
Flags: W
LayerCount: 2
Back
Fore
SplineSet
58 -176 m 1,0,-1
 58 500 l 1,1,-1
 198 500 l 1,2,-1
 210 454 l 1,3,-1
 214 454 l 1,4,5
 277 512 277 512 350 512 c 0,6,7
 438 512 438 512 491 443 c 128,-1,8
 544 374 544 374 544 258 c 0,9,10
 544 135 544 135 482 61.5 c 128,-1,11
 420 -12 420 -12 336 -12 c 0,12,13
 274 -12 274 -12 224 38 c 1,14,-1
 230 -38 l 1,15,-1
 230 -176 l 1,16,-1
 58 -176 l 1,0,-1
294 128 m 0,17,18
 368 128 368 128 368 256 c 0,19,20
 368 372 368 372 298 372 c 0,21,22
 260 372 260 372 230 336 c 1,23,-1
 230 152 l 1,24,25
 257 128 257 128 294 128 c 0,17,18
EndSplineSet
Validated: 1
Substitution2: "<10,1> Superiors in Latin lookup 14 subtable" p.sups
Substitution2: "<3,3> Small Caps in Latin lookup 4 subtable" P.sc
EndChar

StartChar: q
Encoding: 113 113 84
Width: 580
Flags: W
LayerCount: 2
Back
Fore
SplineSet
350 -176 m 1,0,-1
 350 -33 l 1,1,-1
 356 38 l 1,2,3
 306 -12 306 -12 240 -12 c 0,4,5
 147 -12 147 -12 91.5 58.5 c 128,-1,6
 36 129 36 129 36 250 c 0,7,8
 36 368 36 368 97.5 440 c 128,-1,9
 159 512 159 512 240 512 c 0,10,11
 316 512 316 512 370 450 c 1,12,-1
 374 450 l 1,13,-1
 388 500 l 1,14,-1
 522 500 l 1,15,-1
 522 -176 l 1,16,-1
 350 -176 l 1,0,-1
286 128 m 0,17,18
 327 128 327 128 350 164 c 1,19,-1
 350 348 l 1,20,21
 323 372 323 372 282 372 c 0,22,23
 252 372 252 372 232 343 c 128,-1,24
 212 314 212 314 212 252 c 0,25,26
 212 128 212 128 286 128 c 0,17,18
EndSplineSet
Validated: 1
Substitution2: "<10,1> Superiors in Latin lookup 14 subtable" q.sups
Substitution2: "<3,3> Small Caps in Latin lookup 4 subtable" Q.sc
EndChar

StartChar: r
Encoding: 114 114 85
Width: 418
Flags: W
LayerCount: 2
Back
Fore
SplineSet
58 0 m 1,0,-1
 58 500 l 1,1,-1
 198 500 l 1,2,-1
 210 414 l 1,3,-1
 214 414 l 1,4,5
 240 463 240 463 278.5 487.5 c 128,-1,6
 317 512 317 512 356 512 c 128,-1,7
 395 512 395 512 418 502 c 1,8,-1
 390 354 l 1,9,10
 354 362 354 362 334 362 c 0,11,12
 304 362 304 362 275.5 341.5 c 128,-1,13
 247 321 247 321 230 278 c 1,14,-1
 230 0 l 1,15,-1
 58 0 l 1,0,-1
EndSplineSet
Validated: 1
Substitution2: "<10,1> Superiors in Latin lookup 14 subtable" r.sups
Substitution2: "<3,3> Small Caps in Latin lookup 4 subtable" R.sc
EndChar

StartChar: s
Encoding: 115 115 86
Width: 452
Flags: W
LayerCount: 2
Back
Fore
SplineSet
212 -12 m 0,0,1
 164 -12 164 -12 110.5 7.5 c 128,-1,2
 57 27 57 27 18 58 c 1,3,-1
 94 164 l 1,4,5
 162 114 162 114 216 114 c 0,6,7
 266 114 266 114 266 144 c 0,8,9
 266 151 266 151 261.5 157.5 c 128,-1,10
 257 164 257 164 245.5 170.5 c 128,-1,11
 234 177 234 177 226.5 180.5 c 128,-1,12
 219 184 219 184 198.5 191.5 c 128,-1,13
 178 199 178 199 170 202 c 0,14,15
 44 252 44 252 44 350 c 0,16,17
 44 423 44 423 98.5 467.5 c 128,-1,18
 153 512 153 512 242 512 c 0,19,20
 338 512 338 512 426 446 c 1,21,-1
 350 344 l 1,22,23
 292 386 292 386 248 386 c 128,-1,24
 204 386 204 386 204 358 c 0,25,26
 204 353 204 353 206.5 348 c 128,-1,27
 209 343 209 343 214.5 339 c 128,-1,28
 220 335 220 335 225 331.5 c 128,-1,29
 230 328 230 328 240 324.5 c 128,-1,30
 250 321 250 321 257 318.5 c 128,-1,31
 264 316 264 316 277 311.5 c 128,-1,32
 290 307 290 307 298 304 c 0,33,34
 426 257 426 257 426 154 c 0,35,36
 426 81 426 81 370 34.5 c 128,-1,37
 314 -12 314 -12 212 -12 c 0,0,1
EndSplineSet
Validated: 1
Substitution2: "<10,1> Superiors in Latin lookup 14 subtable" s.sups
Substitution2: "<3,3> Small Caps in Latin lookup 4 subtable" S.sc
EndChar

StartChar: t
Encoding: 116 116 87
Width: 400
Flags: W
LayerCount: 2
Back
Fore
SplineSet
264 -12 m 0,0,1
 170 -12 170 -12 125 42 c 128,-1,2
 80 96 80 96 80 192 c 2,3,-1
 80 366 l 1,4,-1
 14 366 l 1,5,-1
 14 494 l 1,6,-1
 90 500 l 1,7,-1
 110 630 l 1,8,-1
 252 630 l 1,9,-1
 252 500 l 1,10,-1
 366 500 l 1,11,-1
 366 366 l 1,12,-1
 252 366 l 1,13,-1
 252 195 l 2,14,15
 252 122 252 122 312 122 c 0,16,17
 332 122 332 122 356 130 c 1,18,-1
 382 6 l 1,19,20
 324 -12 324 -12 264 -12 c 0,0,1
EndSplineSet
Validated: 1
Substitution2: "<10,1> Superiors in Latin lookup 14 subtable" t.sups
Substitution2: "<3,3> Small Caps in Latin lookup 4 subtable" T.sc
EndChar

StartChar: u
Encoding: 117 117 88
Width: 578
Flags: W
LayerCount: 2
Back
Fore
SplineSet
210 -12 m 0,0,1
 54 -12 54 -12 54 192 c 2,2,-1
 54 500 l 1,3,-1
 226 500 l 1,4,-1
 226 214 l 2,5,6
 226 168 226 168 237.5 151 c 128,-1,7
 249 134 249 134 276 134 c 0,8,9
 318 134 318 134 348 178 c 1,10,-1
 348 500 l 1,11,-1
 520 500 l 1,12,-1
 520 0 l 1,13,-1
 380 0 l 1,14,-1
 368 66 l 1,15,-1
 364 66 l 1,16,17
 299 -12 299 -12 210 -12 c 0,0,1
EndSplineSet
Validated: 1
Substitution2: "<10,1> Superiors in Latin lookup 14 subtable" u.sups
Substitution2: "<3,3> Small Caps in Latin lookup 4 subtable" U.sc
EndChar

StartChar: v
Encoding: 118 118 89
Width: 544
Flags: W
LayerCount: 2
Back
Fore
SplineSet
176 0 m 1,0,-1
 12 500 l 1,1,-1
 184 500 l 1,2,-1
 238 282 l 2,3,4
 256 207 256 207 274 126 c 1,5,-1
 278 126 l 1,6,7
 296 207 296 207 314 282 c 2,8,-1
 368 500 l 1,9,-1
 532 500 l 1,10,-1
 374 0 l 1,11,-1
 176 0 l 1,0,-1
EndSplineSet
Validated: 1
Substitution2: "<10,1> Superiors in Latin lookup 14 subtable" v.sups
Substitution2: "<3,3> Small Caps in Latin lookup 4 subtable" V.sc
EndChar

StartChar: w
Encoding: 119 119 90
Width: 798
Flags: W
LayerCount: 2
Back
Fore
SplineSet
144 0 m 1,0,-1
 24 500 l 1,1,-1
 194 500 l 1,2,-1
 232 290 l 2,3,4
 236 264 236 264 242 213.5 c 128,-1,5
 248 163 248 163 252 138 c 1,6,-1
 256 138 l 1,7,8
 272 242 272 242 284 290 c 2,9,-1
 330 500 l 1,10,-1
 476 500 l 1,11,-1
 524 290 l 2,12,13
 528 274 528 274 554 138 c 1,14,-1
 558 138 l 1,15,16
 562 163 562 163 568 213.5 c 128,-1,17
 574 264 574 264 578 290 c 2,18,-1
 616 500 l 1,19,-1
 774 500 l 1,20,-1
 660 0 l 1,21,-1
 460 0 l 1,22,-1
 424 174 l 2,23,24
 408 266 408 266 400 321 c 1,25,-1
 396 321 l 1,26,27
 378 196 378 196 374 174 c 2,28,-1
 340 0 l 1,29,-1
 144 0 l 1,0,-1
EndSplineSet
Validated: 1
Substitution2: "<10,1> Superiors in Latin lookup 14 subtable" w.sups
Substitution2: "<3,3> Small Caps in Latin lookup 4 subtable" W.sc
EndChar

StartChar: x
Encoding: 120 120 91
Width: 540
Flags: W
LayerCount: 2
Back
Fore
SplineSet
14 0 m 1,0,-1
 164 260 l 1,1,-1
 22 500 l 1,2,-1
 206 500 l 1,3,-1
 242 430 l 2,4,5
 248 416 248 416 261.5 387 c 128,-1,6
 275 358 275 358 282 344 c 1,7,-1
 286 344 l 1,8,9
 290 358 290 358 300.5 387 c 128,-1,10
 311 416 311 416 316 430 c 2,11,-1
 340 500 l 1,12,-1
 518 500 l 1,13,-1
 376 240 l 1,14,-1
 526 0 l 1,15,-1
 342 0 l 1,16,-1
 302 70 l 2,17,18
 294 84 294 84 279.5 113 c 128,-1,19
 265 142 265 142 258 156 c 1,20,-1
 254 156 l 1,21,22
 251 149 251 149 238.5 118 c 128,-1,23
 226 87 226 87 220 70 c 2,24,-1
 192 0 l 1,25,-1
 14 0 l 1,0,-1
EndSplineSet
Validated: 1
Substitution2: "<10,1> Superiors in Latin lookup 14 subtable" x.sups
Substitution2: "<3,3> Small Caps in Latin lookup 4 subtable" X.sc
EndChar

StartChar: y
Encoding: 121 121 92
Width: 542
Flags: W
LayerCount: 2
Back
Fore
SplineSet
132 -188 m 0,0,1
 93 -188 93 -188 56 -178 c 1,2,-1
 86 -48 l 1,3,4
 113 -54 113 -54 118 -54 c 0,5,6
 179 -54 179 -54 196 -4 c 2,7,-1
 202 18 l 1,8,-1
 12 500 l 1,9,-1
 184 500 l 1,10,-1
 244 308 l 2,11,12
 253 278 253 278 280 166 c 1,13,-1
 284 166 l 1,14,15
 302 250 302 250 316 308 c 2,16,-1
 366 500 l 1,17,-1
 530 500 l 1,18,-1
 362 8 l 1,19,20
 321 -98 321 -98 271.5 -143 c 128,-1,21
 222 -188 222 -188 132 -188 c 0,0,1
EndSplineSet
Validated: 1
Substitution2: "<10,1> Superiors in Latin lookup 14 subtable" y.sups
Substitution2: "<3,3> Small Caps in Latin lookup 4 subtable" Y.sc
EndChar

StartChar: z
Encoding: 122 122 93
Width: 474
Flags: W
LayerCount: 2
Back
Fore
SplineSet
40 0 m 1,0,-1
 40 92 l 1,1,-1
 230 366 l 1,2,-1
 62 366 l 1,3,-1
 62 500 l 1,4,-1
 444 500 l 1,5,-1
 444 408 l 1,6,-1
 254 134 l 1,7,-1
 450 134 l 1,8,-1
 450 0 l 1,9,-1
 40 0 l 1,0,-1
EndSplineSet
Validated: 1
Substitution2: "<10,1> Superiors in Latin lookup 14 subtable" z.sups
Substitution2: "<3,3> Small Caps in Latin lookup 4 subtable" Z.sc
EndChar

StartChar: braceleft
Encoding: 123 123 94
Width: 360
Flags: W
LayerCount: 2
Back
Fore
SplineSet
238 -152 m 2,0,1
 168 -152 168 -152 137 -119.5 c 128,-1,2
 106 -87 106 -87 106 -6 c 0,3,4
 106 30 106 30 111 78 c 128,-1,5
 116 126 116 126 116 156 c 0,6,7
 116 185 116 185 95 206 c 128,-1,8
 74 227 74 227 30 228 c 1,9,-1
 30 328 l 1,10,11
 74 329 74 329 95 350 c 128,-1,12
 116 371 116 371 116 400 c 0,13,14
 116 430 116 430 111 478 c 128,-1,15
 106 526 106 526 106 562 c 0,16,17
 106 643 106 643 137 675.5 c 128,-1,18
 168 708 168 708 238 708 c 2,19,-1
 308 708 l 1,20,-1
 308 618 l 1,21,-1
 292 618 l 2,22,23
 264 618 264 618 254 606 c 128,-1,24
 244 594 244 594 244 556 c 0,25,26
 244 531 244 531 246 480.5 c 128,-1,27
 248 430 248 430 248 400 c 0,28,29
 248 342 248 342 229 315.5 c 128,-1,30
 210 289 210 289 168 280 c 1,31,-1
 168 276 l 1,32,33
 210 267 210 267 229 240.5 c 128,-1,34
 248 214 248 214 248 156 c 0,35,36
 248 126 248 126 246 75.5 c 128,-1,37
 244 25 244 25 244 0 c 0,38,39
 244 -38 244 -38 254 -50 c 128,-1,40
 264 -62 264 -62 292 -62 c 2,41,-1
 308 -62 l 1,42,-1
 308 -152 l 1,43,-1
 238 -152 l 2,0,1
EndSplineSet
Validated: 1
Substitution2: "'rtla' Right to Left Alternates in Cyrillic lookup 0 subtable" braceright
EndChar

StartChar: bar
Encoding: 124 124 95
Width: 278
Flags: W
LayerCount: 2
Back
Fore
SplineSet
84 -250 m 1,0,-1
 84 750 l 1,1,-1
 194 750 l 1,2,-1
 194 -250 l 1,3,-1
 84 -250 l 1,0,-1
EndSplineSet
Validated: 1
EndChar

StartChar: braceright
Encoding: 125 125 96
Width: 360
Flags: W
LayerCount: 2
Back
Fore
SplineSet
52 -152 m 1,0,-1
 52 -62 l 1,1,-1
 68 -62 l 2,2,3
 96 -62 96 -62 106 -50 c 128,-1,4
 116 -38 116 -38 116 0 c 0,5,6
 116 25 116 25 114 75.5 c 128,-1,7
 112 126 112 126 112 156 c 0,8,9
 112 214 112 214 131 240.5 c 128,-1,10
 150 267 150 267 192 276 c 1,11,-1
 192 280 l 1,12,13
 150 289 150 289 131 315.5 c 128,-1,14
 112 342 112 342 112 400 c 0,15,16
 112 430 112 430 114 480.5 c 128,-1,17
 116 531 116 531 116 556 c 0,18,19
 116 594 116 594 106 606 c 128,-1,20
 96 618 96 618 68 618 c 2,21,-1
 52 618 l 1,22,-1
 52 708 l 1,23,-1
 122 708 l 2,24,25
 192 708 192 708 223 675.5 c 128,-1,26
 254 643 254 643 254 562 c 0,27,28
 254 526 254 526 249 478 c 128,-1,29
 244 430 244 430 244 400 c 0,30,31
 244 371 244 371 265 350 c 128,-1,32
 286 329 286 329 330 328 c 1,33,-1
 330 228 l 1,34,35
 286 227 286 227 265 206 c 128,-1,36
 244 185 244 185 244 156 c 0,37,38
 244 126 244 126 249 78 c 128,-1,39
 254 30 254 30 254 -6 c 0,40,41
 254 -87 254 -87 223 -119.5 c 128,-1,42
 192 -152 192 -152 122 -152 c 2,43,-1
 52 -152 l 1,0,-1
EndSplineSet
Validated: 1
Substitution2: "'rtla' Right to Left Alternates in Cyrillic lookup 0 subtable" braceleft
EndChar

StartChar: asciitilde
Encoding: 126 126 97
Width: 540
Flags: W
LayerCount: 2
Back
Fore
SplineSet
354 234 m 0,0,1
 318 234 318 234 287 252 c 128,-1,2
 256 270 256 270 231 288 c 128,-1,3
 206 306 206 306 184 306 c 0,4,5
 147 306 147 306 114 250 c 1,6,-1
 26 318 l 1,7,8
 99 426 99 426 186 426 c 0,9,10
 222 426 222 426 253 408 c 128,-1,11
 284 390 284 390 309 372 c 128,-1,12
 334 354 334 354 356 354 c 0,13,14
 393 354 393 354 426 410 c 1,15,-1
 514 342 l 1,16,17
 441 234 441 234 354 234 c 0,0,1
EndSplineSet
Validated: 1
EndChar

StartChar: exclamdown
Encoding: 161 161 99
Width: 360
Flags: W
LayerCount: 2
Back
Fore
SplineSet
94 -170 m 1,0,-1
 100 -22 l 1,1,-1
 124 256 l 1,2,-1
 236 256 l 1,3,-1
 260 -22 l 1,4,-1
 266 -170 l 1,5,-1
 94 -170 l 1,0,-1
180 304 m 128,-1,7
 137 304 137 304 108.5 334 c 128,-1,8
 80 364 80 364 80 408 c 128,-1,9
 80 452 80 452 108.5 482 c 128,-1,10
 137 512 137 512 180 512 c 128,-1,11
 223 512 223 512 251.5 482 c 128,-1,12
 280 452 280 452 280 408 c 128,-1,13
 280 364 280 364 251.5 334 c 128,-1,6
 223 304 223 304 180 304 c 128,-1,7
EndSplineSet
Validated: 1
EndChar

StartChar: cent
Encoding: 162 162 100
Width: 540
Flags: W
LayerCount: 2
Back
Fore
SplineSet
226 306 m 0,0,1
 226 230 226 230 280 199 c 1,2,-1
 280 413 l 1,3,4
 226 384 226 384 226 306 c 0,0,1
280 -44 m 1,5,-1
 280 47 l 1,6,7
 178 61 178 61 119 129 c 128,-1,8
 60 197 60 197 60 306 c 0,9,10
 60 410 60 410 120.5 477 c 128,-1,11
 181 544 181 544 280 562 c 1,12,-1
 280 656 l 1,13,-1
 372 656 l 1,14,-1
 372 567 l 1,15,16
 446 560 446 560 494 512 c 1,17,-1
 416 406 l 1,18,19
 393 424 393 424 372 429 c 1,20,-1
 372 184 l 1,21,22
 401 190 401 190 432 214 c 1,23,-1
 500 106 l 1,24,25
 446 59 446 59 372 47 c 1,26,-1
 372 -44 l 1,27,-1
 280 -44 l 1,5,-1
EndSplineSet
Validated: 1
EndChar

StartChar: sterling
Encoding: 163 163 101
Width: 540
Flags: W
LayerCount: 2
Back
Fore
SplineSet
46 0 m 1,0,-1
 46 106 l 1,1,2
 92 126 92 126 122 163.5 c 128,-1,3
 152 201 152 201 152 250 c 0,4,5
 152 261 152 261 151 266 c 1,6,-1
 52 266 l 1,7,-1
 52 364 l 1,8,-1
 120 370 l 1,9,-1
 122 370 l 1,10,11
 110 408 110 408 110 432 c 0,12,13
 110 529 110 529 173 587.5 c 128,-1,14
 236 646 236 646 334 646 c 0,15,16
 442 646 442 646 514 562 c 1,17,-1
 422 470 l 1,18,19
 390 508 390 508 352 508 c 0,20,21
 274 508 274 508 274 422 c 0,22,23
 274 406 274 406 280 370 c 1,24,-1
 424 370 l 1,25,-1
 424 266 l 1,26,-1
 301 266 l 1,27,28
 302 260 302 260 302 248 c 0,29,30
 302 194 302 194 264 148 c 1,31,-1
 264 144 l 1,32,-1
 514 144 l 1,33,-1
 514 0 l 1,34,-1
 46 0 l 1,0,-1
EndSplineSet
Validated: 1
EndChar

StartChar: currency
Encoding: 164 164 102
Width: 540
Flags: W
LayerCount: 2
Back
Fore
SplineSet
102 76 m 1,0,-1
 17 161 l 1,1,-1
 77 221 l 1,2,3
 44 268 44 268 44 330 c 0,4,5
 44 391 44 391 76 437 c 1,6,-1
 17 497 l 1,7,-1
 102 582 l 1,8,-1
 172 512 l 1,9,10
 220 532 220 532 270 532 c 128,-1,11
 320 532 320 532 368 512 c 1,12,-1
 438 582 l 1,13,-1
 523 497 l 1,14,-1
 463 437 l 1,15,16
 496 391 496 391 496 330 c 0,17,18
 496 270 496 270 462 221 c 1,19,-1
 523 161 l 1,20,-1
 438 76 l 1,21,-1
 367 147 l 1,22,23
 322 128 322 128 270 128 c 128,-1,24
 218 128 218 128 173 147 c 1,25,-1
 102 76 l 1,0,-1
270 246 m 128,-1,27
 302 246 302 246 323 269 c 128,-1,28
 344 292 344 292 344 330 c 128,-1,29
 344 368 344 368 323 391 c 128,-1,30
 302 414 302 414 270 414 c 128,-1,31
 238 414 238 414 217 391 c 128,-1,32
 196 368 196 368 196 330 c 128,-1,33
 196 292 196 292 217 269 c 128,-1,26
 238 246 238 246 270 246 c 128,-1,27
EndSplineSet
Validated: 1
EndChar

StartChar: yen
Encoding: 165 165 103
Width: 540
Flags: W
LayerCount: 2
Back
Fore
SplineSet
184 0 m 1,0,-1
 184 142 l 1,1,-1
 34 142 l 1,2,-1
 34 222 l 1,3,-1
 184 222 l 1,4,-1
 184 272 l 1,5,-1
 34 272 l 1,6,-1
 34 352 l 1,7,-1
 148 352 l 1,8,-1
 8 634 l 1,9,-1
 184 634 l 1,10,-1
 224 516 l 2,11,12
 254 428 254 428 270 386 c 1,13,-1
 274 386 l 1,14,15
 281 408 281 408 296.5 451 c 128,-1,16
 312 494 312 494 320 516 c 2,17,-1
 360 634 l 1,18,-1
 532 634 l 1,19,-1
 392 352 l 1,20,-1
 506 352 l 1,21,-1
 506 272 l 1,22,-1
 356 272 l 1,23,-1
 356 222 l 1,24,-1
 506 222 l 1,25,-1
 506 142 l 1,26,-1
 356 142 l 1,27,-1
 356 0 l 1,28,-1
 184 0 l 1,0,-1
EndSplineSet
Validated: 1
EndChar

StartChar: brokenbar
Encoding: 166 166 104
Width: 278
Flags: W
LayerCount: 2
Back
Fore
SplineSet
84 320 m 1,0,-1
 84 750 l 1,1,-1
 194 750 l 1,2,-1
 194 320 l 1,3,-1
 84 320 l 1,0,-1
84 -250 m 1,4,-1
 84 200 l 1,5,-1
 194 200 l 1,6,-1
 194 -250 l 1,7,-1
 84 -250 l 1,4,-1
EndSplineSet
Validated: 1
EndChar

StartChar: section
Encoding: 167 167 105
Width: 540
Flags: W
LayerCount: 2
Back
Fore
SplineSet
178 332 m 0,0,1
 178 313 178 313 194 297 c 128,-1,2
 210 281 210 281 228 271.5 c 128,-1,3
 246 262 246 262 282.5 246 c 128,-1,4
 319 230 319 230 337 221 c 1,5,6
 362 239 362 239 362 270 c 0,7,8
 362 285 362 285 353.5 298 c 128,-1,9
 345 311 345 311 327 322 c 128,-1,10
 309 333 309 333 292.5 340.5 c 128,-1,11
 276 348 276 348 247.5 360 c 128,-1,12
 219 372 219 372 203 380 c 1,13,14
 178 361 178 361 178 332 c 0,0,1
242 -92 m 0,15,16
 183 -92 183 -92 128 -69 c 128,-1,17
 73 -46 73 -46 40 -2 c 1,18,-1
 138 84 l 1,19,20
 185 34 185 34 242 34 c 0,21,22
 292 34 292 34 292 66 c 0,23,24
 292 83 292 83 265.5 98 c 128,-1,25
 239 113 239 113 201 129 c 128,-1,26
 163 145 163 145 125 166.5 c 128,-1,27
 87 188 87 188 60.5 227.5 c 128,-1,28
 34 267 34 267 34 320 c 0,29,30
 34 355 34 355 54.5 389.5 c 128,-1,31
 75 424 75 424 111 447 c 1,32,33
 84 482 84 482 84 530 c 0,34,35
 84 604 84 604 134.5 648 c 128,-1,36
 185 692 185 692 272 692 c 0,37,38
 375 692 375 692 462 624 c 1,39,-1
 384 518 l 1,40,41
 329 566 329 566 282 566 c 0,42,43
 238 566 238 566 238 536 c 0,44,45
 238 521 238 521 265.5 506 c 128,-1,46
 293 491 293 491 332.5 474 c 128,-1,47
 372 457 372 457 411.5 435 c 128,-1,48
 451 413 451 413 478.5 373.5 c 128,-1,49
 506 334 506 334 506 284 c 0,50,51
 506 201 506 201 425 149 c 1,52,53
 446 117 446 117 446 74 c 0,54,55
 446 0 446 0 393.5 -46 c 128,-1,56
 341 -92 341 -92 242 -92 c 0,15,16
EndSplineSet
Validated: 1
EndChar

StartChar: dieresis
Encoding: 168 168 106
Width: 560
Flags: W
LayerCount: 2
Back
Fore
SplineSet
166 562 m 128,-1,1
 131 562 131 562 108.5 585 c 128,-1,2
 86 608 86 608 86 642 c 128,-1,3
 86 676 86 676 108.5 699 c 128,-1,4
 131 722 131 722 166 722 c 128,-1,5
 201 722 201 722 223.5 699 c 128,-1,6
 246 676 246 676 246 642 c 128,-1,7
 246 608 246 608 223.5 585 c 128,-1,0
 201 562 201 562 166 562 c 128,-1,1
394 562 m 128,-1,9
 359 562 359 562 336.5 585 c 128,-1,10
 314 608 314 608 314 642 c 128,-1,11
 314 676 314 676 336.5 699 c 128,-1,12
 359 722 359 722 394 722 c 128,-1,13
 429 722 429 722 451.5 699 c 128,-1,14
 474 676 474 676 474 642 c 128,-1,15
 474 608 474 608 451.5 585 c 128,-1,8
 429 562 429 562 394 562 c 128,-1,9
EndSplineSet
Validated: 1
EndChar

StartChar: copyright
Encoding: 169 169 107
Width: 752
Flags: W
LayerCount: 2
Back
Fore
SplineSet
376 -8 m 128,-1,1
 237 -8 237 -8 140.5 83.5 c 128,-1,2
 44 175 44 175 44 326 c 128,-1,3
 44 477 44 477 140.5 566.5 c 128,-1,4
 237 656 237 656 376 656 c 128,-1,5
 515 656 515 656 611.5 566 c 128,-1,6
 708 476 708 476 708 326 c 0,7,8
 708 175 708 175 611.5 83.5 c 128,-1,0
 515 -8 515 -8 376 -8 c 128,-1,1
376 60 m 128,-1,10
 487 60 487 60 559.5 133.5 c 128,-1,11
 632 207 632 207 632 326 c 0,12,13
 632 444 632 444 559.5 516 c 128,-1,14
 487 588 487 588 376 588 c 128,-1,15
 265 588 265 588 192.5 516 c 128,-1,16
 120 444 120 444 120 326 c 0,17,18
 120 207 120 207 192.5 133.5 c 128,-1,9
 265 60 265 60 376 60 c 128,-1,10
390 128 m 0,19,20
 302 128 302 128 247 181.5 c 128,-1,21
 192 235 192 235 192 324 c 0,22,23
 192 410 192 410 250 464 c 128,-1,24
 308 518 308 518 388 518 c 0,25,26
 464 518 464 518 524 458 c 1,27,-1
 461 388 l 1,28,29
 431 420 431 420 400 420 c 0,30,31
 358 420 358 420 335.5 392.5 c 128,-1,32
 313 365 313 365 313 324 c 0,33,34
 313 279 313 279 335 252.5 c 128,-1,35
 357 226 357 226 394 226 c 0,36,37
 426 226 426 226 466 256 c 1,38,-1
 520 178 l 1,39,40
 457 128 457 128 390 128 c 0,19,20
EndSplineSet
Validated: 1
EndChar

StartChar: ordfeminine
Encoding: 170 170 108
Width: 364
Flags: W
LayerCount: 2
Back
Fore
SplineSet
128 360 m 0,0,1
 82 360 82 360 54 390 c 128,-1,2
 26 420 26 420 26 462 c 0,3,4
 26 515 26 515 69.5 544 c 128,-1,5
 113 573 113 573 208 582 c 1,6,7
 204 614 204 614 164 614 c 0,8,9
 132 614 132 614 78 586 c 1,10,-1
 36 664 l 1,11,12
 111 708 111 708 186 708 c 0,13,14
 253 708 253 708 290.5 669.5 c 128,-1,15
 328 631 328 631 328 554 c 2,16,-1
 328 368 l 1,17,-1
 232 368 l 1,18,-1
 222 400 l 1,19,-1
 218 400 l 1,20,21
 178 360 178 360 128 360 c 0,0,1
169 450 m 0,22,23
 188 450 188 450 208 470 c 1,24,-1
 208 514 l 1,25,26
 140 506 140 506 140 472 c 0,27,28
 140 450 140 450 169 450 c 0,22,23
EndSplineSet
Validated: 1
EndChar

StartChar: guillemotleft
Encoding: 171 171 109
Width: 500
Flags: W
LayerCount: 2
Back
Fore
SplineSet
184 52 m 1,0,-1
 50 192 l 1,1,-1
 50 312 l 1,2,-1
 184 452 l 1,3,-1
 246 402 l 1,4,-1
 138 252 l 1,5,-1
 246 102 l 1,6,-1
 184 52 l 1,0,-1
384 52 m 1,7,-1
 250 192 l 1,8,-1
 250 312 l 1,9,-1
 384 452 l 1,10,-1
 446 402 l 1,11,-1
 338 252 l 1,12,-1
 446 102 l 1,13,-1
 384 52 l 1,7,-1
EndSplineSet
Validated: 1
EndChar

StartChar: logicalnot
Encoding: 172 172 110
Width: 540
Flags: W
LayerCount: 2
Back
Fore
SplineSet
382 90 m 1,0,-1
 382 270 l 1,1,-1
 34 270 l 1,2,-1
 34 390 l 1,3,-1
 506 390 l 1,4,-1
 506 90 l 1,5,-1
 382 90 l 1,0,-1
EndSplineSet
Validated: 1
EndChar

StartChar: uni00AD
Encoding: 173 173 111
Width: 340
Flags: W
LayerCount: 2
Back
Fore
SplineSet
44 194 m 1,0,-1
 44 314 l 1,1,-1
 296 314 l 1,2,-1
 296 194 l 1,3,-1
 44 194 l 1,0,-1
EndSplineSet
Validated: 1
EndChar

StartChar: registered
Encoding: 174 174 112
Width: 477
Flags: W
LayerCount: 2
Back
Fore
SplineSet
238 308 m 128,-1,1
 153 308 153 308 94.5 366 c 128,-1,2
 36 424 36 424 36 512 c 128,-1,3
 36 600 36 600 94.5 658 c 128,-1,4
 153 716 153 716 238 716 c 128,-1,5
 323 716 323 716 381.5 658 c 128,-1,6
 440 600 440 600 440 512 c 128,-1,7
 440 424 440 424 381.5 366 c 128,-1,0
 323 308 323 308 238 308 c 128,-1,1
238 362 m 128,-1,9
 302 362 302 362 341 403 c 128,-1,10
 380 444 380 444 380 512 c 128,-1,11
 380 580 380 580 341 621 c 128,-1,12
 302 662 302 662 238 662 c 128,-1,13
 174 662 174 662 135 621 c 128,-1,14
 96 580 96 580 96 512 c 128,-1,15
 96 444 96 444 135 403 c 128,-1,8
 174 362 174 362 238 362 c 128,-1,9
154 416 m 1,16,-1
 154 610 l 1,17,-1
 248 610 l 2,18,19
 285 610 285 610 307.5 593 c 128,-1,20
 330 576 330 576 330 544 c 0,21,22
 330 507 330 507 296 490 c 1,23,-1
 336 416 l 1,24,-1
 270 416 l 1,25,-1
 242 472 l 1,26,-1
 218 472 l 1,27,-1
 218 416 l 1,28,-1
 154 416 l 1,16,-1
218 515 m 1,29,-1
 236 515 l 2,30,31
 249 515 249 515 255.5 522.5 c 128,-1,32
 262 530 262 530 262 540 c 128,-1,33
 262 550 262 550 255 556.5 c 128,-1,34
 248 563 248 563 236 563 c 2,35,-1
 218 563 l 1,36,-1
 218 515 l 1,29,-1
EndSplineSet
Validated: 1
EndChar

StartChar: macron
Encoding: 175 175 113
Width: 560
Flags: W
LayerCount: 2
Back
Fore
SplineSet
126 588 m 1,0,-1
 126 696 l 1,1,-1
 434 696 l 1,2,-1
 434 588 l 1,3,-1
 126 588 l 1,0,-1
EndSplineSet
Validated: 1
EndChar

StartChar: degree
Encoding: 176 176 114
Width: 378
Flags: W
LayerCount: 2
Back
Fore
SplineSet
190 386 m 128,-1,1
 125 386 125 386 81.5 429 c 128,-1,2
 38 472 38 472 38 536 c 128,-1,3
 38 600 38 600 81.5 643 c 128,-1,4
 125 686 125 686 190 686 c 128,-1,5
 255 686 255 686 298.5 643 c 128,-1,6
 342 600 342 600 342 536 c 128,-1,7
 342 472 342 472 298.5 429 c 128,-1,0
 255 386 255 386 190 386 c 128,-1,1
190 466 m 128,-1,9
 219 466 219 466 236.5 485.5 c 128,-1,10
 254 505 254 505 254 536 c 128,-1,11
 254 567 254 567 236.5 586.5 c 128,-1,12
 219 606 219 606 190 606 c 128,-1,13
 161 606 161 606 143.5 586.5 c 128,-1,14
 126 567 126 567 126 536 c 128,-1,15
 126 505 126 505 143.5 485.5 c 128,-1,8
 161 466 161 466 190 466 c 128,-1,9
EndSplineSet
Validated: 1
EndChar

StartChar: plusminus
Encoding: 177 177 115
Width: 540
Flags: W
LayerCount: 2
Back
Fore
SplineSet
208 170 m 1,0,-1
 208 290 l 1,1,-1
 34 290 l 1,2,-1
 34 410 l 1,3,-1
 208 410 l 1,4,-1
 208 570 l 1,5,-1
 332 570 l 1,6,-1
 332 410 l 1,7,-1
 506 410 l 1,8,-1
 506 290 l 1,9,-1
 332 290 l 1,10,-1
 332 170 l 1,11,-1
 208 170 l 1,0,-1
34 0 m 1,12,-1
 34 120 l 1,13,-1
 506 120 l 1,14,-1
 506 0 l 1,15,-1
 34 0 l 1,12,-1
EndSplineSet
Validated: 1
EndChar

StartChar: two.sups
Encoding: 178 178 116
Width: 380
Flags: W
LayerCount: 2
Back
Fore
SplineSet
42 368 m 1,0,-1
 42 434 l 1,1,2
 123 497 123 497 165.5 540.5 c 128,-1,3
 208 584 208 584 208 614 c 0,4,5
 208 668 208 668 158 668 c 0,6,7
 127 668 127 668 92 624 c 1,8,-1
 22 688 l 1,9,10
 86 770 86 770 178 770 c 0,11,12
 246 770 246 770 287 734 c 128,-1,13
 328 698 328 698 328 636 c 0,14,15
 328 608 328 608 313.5 577 c 128,-1,16
 299 546 299 546 284 526 c 128,-1,17
 269 506 269 506 240 472 c 1,18,-1
 340 472 l 1,19,-1
 340 368 l 1,20,-1
 42 368 l 1,0,-1
EndSplineSet
Validated: 1
EndChar

StartChar: three.sups
Encoding: 179 179 117
Width: 380
Flags: W
LayerCount: 2
Back
Fore
SplineSet
188 356 m 0,0,1
 77 356 77 356 24 436 c 1,2,-1
 98 494 l 1,3,4
 131 450 131 450 174 450 c 0,5,6
 195 450 195 450 208.5 460 c 128,-1,7
 222 470 222 470 222 488 c 0,8,9
 222 532 222 532 140 532 c 1,10,-1
 140 602 l 1,11,12
 208 602 208 602 208 642 c 0,13,14
 208 676 208 676 168 676 c 0,15,16
 139 676 139 676 110 640 c 1,17,-1
 40 702 l 1,18,19
 75 739 75 739 109 754.5 c 128,-1,20
 143 770 143 770 190 770 c 0,21,22
 248 770 248 770 289 739.5 c 128,-1,23
 330 709 330 709 330 660 c 0,24,25
 330 606 330 606 278 572 c 1,26,27
 344 541 344 541 344 478 c 0,28,29
 344 425 344 425 297.5 390.5 c 128,-1,30
 251 356 251 356 188 356 c 0,0,1
EndSplineSet
Validated: 1
EndChar

StartChar: acute
Encoding: 180 180 118
Width: 560
Flags: W
LayerCount: 2
Back
Fore
SplineSet
300 572 m 1,0,-1
 216 656 l 1,1,-1
 374 844 l 1,2,-1
 490 730 l 1,3,-1
 300 572 l 1,0,-1
EndSplineSet
Validated: 1
EndChar

StartChar: uni00B5
Encoding: 181 181 119
Width: 606
Flags: W
LayerCount: 2
Back
Fore
SplineSet
58 -176 m 1,0,-1
 58 500 l 1,1,-1
 230 500 l 1,2,-1
 230 214 l 2,3,4
 230 168 230 168 241.5 151 c 128,-1,5
 253 134 253 134 280 134 c 0,6,7
 321 134 321 134 348 188 c 1,8,-1
 348 500 l 1,9,-1
 522 500 l 1,10,11
 521 463 521 463 517.5 387 c 128,-1,12
 514 311 514 311 512 256 c 128,-1,13
 510 201 510 201 510 170 c 0,14,15
 510 126 510 126 558 126 c 0,16,17
 575 126 575 126 590 132 c 1,18,-1
 610 6 l 1,19,20
 567 -12 567 -12 512 -12 c 0,21,22
 399 -12 399 -12 368 66 c 1,23,-1
 364 66 l 1,24,25
 333 -6 333 -6 270 -6 c 0,26,27
 236 -6 236 -6 220 8 c 1,28,29
 224 -106 224 -106 232 -176 c 1,30,-1
 58 -176 l 1,0,-1
EndSplineSet
Validated: 1
EndChar

StartChar: paragraph
Encoding: 182 182 120
Width: 666
Flags: W
LayerCount: 2
Back
Fore
SplineSet
398 -80 m 1,0,-1
 398 650 l 1,1,-1
 570 650 l 1,2,-1
 570 -80 l 1,3,-1
 398 -80 l 1,0,-1
298 186 m 2,4,5
 188 186 188 186 113 249 c 128,-1,6
 38 312 38 312 38 424 c 0,7,8
 38 544 38 544 109.5 597 c 128,-1,9
 181 650 181 650 298 650 c 2,10,-1
 342 650 l 1,11,-1
 342 186 l 1,12,-1
 298 186 l 2,4,5
EndSplineSet
Validated: 1
EndChar

StartChar: periodcentered
Encoding: 183 183 121
Width: 320
Flags: W
LayerCount: 2
Back
Fore
SplineSet
160 216 m 128,-1,1
 117 216 117 216 88.5 246 c 128,-1,2
 60 276 60 276 60 320 c 128,-1,3
 60 364 60 364 88.5 394 c 128,-1,4
 117 424 117 424 160 424 c 128,-1,5
 203 424 203 424 231.5 394 c 128,-1,6
 260 364 260 364 260 320 c 128,-1,7
 260 276 260 276 231.5 246 c 128,-1,0
 203 216 203 216 160 216 c 128,-1,1
EndSplineSet
Validated: 1
EndChar

StartChar: cedilla
Encoding: 184 184 122
Width: 560
Flags: W
LayerCount: 2
Back
Fore
SplineSet
172 -244 m 1,0,-1
 160 -178 l 1,1,2
 217 -175 217 -175 238.5 -166 c 128,-1,3
 260 -157 260 -157 260 -136 c 0,4,5
 260 -106 260 -106 184 -96 c 1,6,-1
 234 4 l 1,7,-1
 332 4 l 1,8,-1
 304 -60 l 1,9,10
 382 -78 382 -78 382 -136 c 0,11,12
 382 -238 382 -238 172 -244 c 1,0,-1
EndSplineSet
Validated: 1
EndChar

StartChar: one.sups
Encoding: 185 185 123
Width: 380
Flags: W
LayerCount: 2
Back
Fore
SplineSet
162 368 m 1,0,-1
 162 638 l 1,1,-1
 72 638 l 1,2,-1
 72 714 l 1,3,4
 138 723 138 723 190 758 c 1,5,-1
 288 758 l 1,6,-1
 288 368 l 1,7,-1
 162 368 l 1,0,-1
EndSplineSet
Validated: 1
EndChar

StartChar: ordmasculine
Encoding: 186 186 124
Width: 376
Flags: W
LayerCount: 2
Back
Fore
SplineSet
188 360 m 128,-1,1
 120 360 120 360 71 407.5 c 128,-1,2
 22 455 22 455 22 533 c 0,3,4
 22 612 22 612 71 660 c 128,-1,5
 120 708 120 708 188 708 c 128,-1,6
 256 708 256 708 305 660 c 128,-1,7
 354 612 354 612 354 533 c 0,8,9
 354 455 354 455 305 407.5 c 128,-1,0
 256 360 256 360 188 360 c 128,-1,1
188 454 m 128,-1,11
 232 454 232 454 232 533 c 0,12,13
 232 614 232 614 188 614 c 128,-1,14
 144 614 144 614 144 533 c 0,15,10
 144 454 144 454 188 454 c 128,-1,11
EndSplineSet
Validated: 1
EndChar

StartChar: guillemotright
Encoding: 187 187 125
Width: 500
Flags: W
LayerCount: 2
Back
Fore
SplineSet
116 52 m 1,0,-1
 54 102 l 1,1,-1
 162 252 l 1,2,-1
 54 402 l 1,3,-1
 116 452 l 1,4,-1
 250 312 l 1,5,-1
 250 192 l 1,6,-1
 116 52 l 1,0,-1
316 52 m 1,7,-1
 254 102 l 1,8,-1
 362 252 l 1,9,-1
 254 402 l 1,10,-1
 316 452 l 1,11,-1
 450 312 l 1,12,-1
 450 192 l 1,13,-1
 316 52 l 1,7,-1
EndSplineSet
Validated: 1
EndChar

StartChar: onequarter
Encoding: 188 188 126
Width: 820
Flags: W
LayerCount: 2
Back
Fore
SplineSet
130 260 m 1,0,-1
 130 530 l 1,1,-1
 40 530 l 1,2,-1
 40 606 l 1,3,4
 106 615 106 615 158 650 c 1,5,-1
 256 650 l 1,6,-1
 256 260 l 1,7,-1
 130 260 l 1,0,-1
188 -12 m 1,8,-1
 536 662 l 1,9,-1
 632 662 l 1,10,-1
 284 -12 l 1,11,-1
 188 -12 l 1,8,-1
652 0 m 1,12,-1
 652 80 l 1,13,-1
 472 80 l 1,14,-1
 472 142 l 1,15,-1
 604 390 l 1,16,-1
 762 390 l 1,17,-1
 762 160 l 1,18,-1
 820 160 l 1,19,-1
 820 80 l 1,20,-1
 762 80 l 1,21,-1
 762 0 l 1,22,-1
 652 0 l 1,12,-1
584 160 m 1,23,-1
 652 160 l 1,24,-1
 652 190 l 1,25,-1
 658 310 l 1,26,-1
 654 310 l 1,27,-1
 618 234 l 1,28,-1
 584 160 l 1,23,-1
EndSplineSet
Validated: 1
EndChar

StartChar: onehalf
Encoding: 189 189 127
Width: 860
Flags: W
LayerCount: 2
Back
Fore
SplineSet
130 260 m 1,0,-1
 130 530 l 1,1,-1
 40 530 l 1,2,-1
 40 606 l 1,3,4
 106 615 106 615 158 650 c 1,5,-1
 256 650 l 1,6,-1
 256 260 l 1,7,-1
 130 260 l 1,0,-1
174 -12 m 1,8,-1
 522 662 l 1,9,-1
 618 662 l 1,10,-1
 270 -12 l 1,11,-1
 174 -12 l 1,8,-1
522 0 m 1,12,-1
 522 66 l 1,13,14
 603 129 603 129 645.5 172.5 c 128,-1,15
 688 216 688 216 688 246 c 0,16,17
 688 300 688 300 638 300 c 0,18,19
 607 300 607 300 572 256 c 1,20,-1
 502 320 l 1,21,22
 566 402 566 402 658 402 c 0,23,24
 726 402 726 402 767 366 c 128,-1,25
 808 330 808 330 808 268 c 0,26,27
 808 240 808 240 793.5 209 c 128,-1,28
 779 178 779 178 764 158 c 128,-1,29
 749 138 749 138 720 104 c 1,30,-1
 820 104 l 1,31,-1
 820 0 l 1,32,-1
 522 0 l 1,12,-1
EndSplineSet
Validated: 1
EndChar

StartChar: threequarters
Encoding: 190 190 128
Width: 826
Flags: W
LayerCount: 2
Back
Fore
SplineSet
184 248 m 0,0,1
 73 248 73 248 20 328 c 1,2,-1
 94 386 l 1,3,4
 127 342 127 342 170 342 c 0,5,6
 191 342 191 342 204.5 352 c 128,-1,7
 218 362 218 362 218 380 c 0,8,9
 218 424 218 424 136 424 c 1,10,-1
 136 494 l 1,11,12
 204 494 204 494 204 534 c 0,13,14
 204 568 204 568 164 568 c 0,15,16
 135 568 135 568 106 532 c 1,17,-1
 36 594 l 1,18,19
 71 631 71 631 105 646.5 c 128,-1,20
 139 662 139 662 186 662 c 0,21,22
 244 662 244 662 285 631.5 c 128,-1,23
 326 601 326 601 326 552 c 0,24,25
 326 498 326 498 274 464 c 1,26,27
 340 433 340 433 340 370 c 0,28,29
 340 317 340 317 293.5 282.5 c 128,-1,30
 247 248 247 248 184 248 c 0,0,1
204 -12 m 1,31,-1
 552 662 l 1,32,-1
 648 662 l 1,33,-1
 300 -12 l 1,34,-1
 204 -12 l 1,31,-1
658 0 m 1,35,-1
 658 80 l 1,36,-1
 478 80 l 1,37,-1
 478 142 l 1,38,-1
 610 390 l 1,39,-1
 768 390 l 1,40,-1
 768 160 l 1,41,-1
 826 160 l 1,42,-1
 826 80 l 1,43,-1
 768 80 l 1,44,-1
 768 0 l 1,45,-1
 658 0 l 1,35,-1
590 160 m 1,46,-1
 658 160 l 1,47,-1
 658 190 l 1,48,-1
 664 310 l 1,49,-1
 660 310 l 1,50,-1
 624 234 l 1,51,-1
 590 160 l 1,46,-1
EndSplineSet
Validated: 1
EndChar

StartChar: questiondown
Encoding: 191 191 129
Width: 478
Flags: W
LayerCount: 2
Back
Fore
SplineSet
238 -182 m 0,0,1
 149 -182 149 -182 94.5 -139 c 128,-1,2
 40 -96 40 -96 40 -6 c 0,3,4
 40 27 40 27 55 56 c 128,-1,5
 70 85 70 85 91 107 c 128,-1,6
 112 129 112 129 132.5 150.5 c 128,-1,7
 153 172 153 172 166 199 c 128,-1,8
 179 226 179 226 176 256 c 1,9,-1
 326 256 l 1,10,11
 332 220 332 220 321.5 187 c 128,-1,12
 311 154 311 154 292 130 c 128,-1,13
 273 106 273 106 253 85 c 128,-1,14
 233 64 233 64 218.5 43.5 c 128,-1,15
 204 23 204 23 204 6 c 0,16,17
 204 -44 204 -44 260 -44 c 0,18,19
 297 -44 297 -44 342 -2 c 1,20,-1
 436 -88 l 1,21,22
 352 -182 352 -182 238 -182 c 0,0,1
252 304 m 128,-1,24
 209 304 209 304 180.5 334 c 128,-1,25
 152 364 152 364 152 408 c 128,-1,26
 152 452 152 452 180.5 482 c 128,-1,27
 209 512 209 512 252 512 c 128,-1,28
 295 512 295 512 323.5 482 c 128,-1,29
 352 452 352 452 352 408 c 128,-1,30
 352 364 352 364 323.5 334 c 128,-1,23
 295 304 295 304 252 304 c 128,-1,24
EndSplineSet
Validated: 33
Substitution2: "'rtla' Right to Left Alternates in Cyrillic lookup 0 subtable" questiondown
EndChar

StartChar: Agrave
Encoding: 192 192 130
Width: 584
Flags: W
LayerCount: 2
Back
Fore
SplineSet
240 316 m 2,0,-1
 229 271 l 1,1,-1
 349 271 l 1,2,-1
 338 316 l 2,3,4
 329 350 329 350 313 421.5 c 128,-1,5
 297 493 297 493 290 522 c 1,6,-1
 286 522 l 1,7,8
 253 366 253 366 240 316 c 2,0,-1
-10 0 m 1,9,-1
 188 650 l 1,10,-1
 396 650 l 1,11,-1
 594 0 l 1,12,-1
 412 0 l 1,13,-1
 380 138 l 1,14,-1
 198 138 l 1,15,-1
 166 0 l 1,16,-1
 -10 0 l 1,9,-1
296 674 m 1,17,-1
 100 794 l 1,18,-1
 190 904 l 1,19,-1
 372 760 l 1,20,-1
 296 674 l 1,17,-1
EndSplineSet
Validated: 1
EndChar

StartChar: Aacute
Encoding: 193 193 131
Width: 584
Flags: W
LayerCount: 2
Back
Fore
SplineSet
240 316 m 2,0,-1
 229 271 l 1,1,-1
 349 271 l 1,2,-1
 338 316 l 2,3,4
 329 350 329 350 313 421.5 c 128,-1,5
 297 493 297 493 290 522 c 1,6,-1
 286 522 l 1,7,8
 253 366 253 366 240 316 c 2,0,-1
-10 0 m 1,9,-1
 188 650 l 1,10,-1
 396 650 l 1,11,-1
 594 0 l 1,12,-1
 412 0 l 1,13,-1
 380 138 l 1,14,-1
 198 138 l 1,15,-1
 166 0 l 1,16,-1
 -10 0 l 1,9,-1
280 674 m 1,17,-1
 204 760 l 1,18,-1
 386 904 l 1,19,-1
 476 794 l 1,20,-1
 280 674 l 1,17,-1
EndSplineSet
Validated: 1
EndChar

StartChar: Acircumflex
Encoding: 194 194 132
Width: 584
Flags: W
LayerCount: 2
Back
Fore
SplineSet
240 316 m 2,0,-1
 229 271 l 1,1,-1
 349 271 l 1,2,-1
 338 316 l 2,3,4
 329 350 329 350 313 421.5 c 128,-1,5
 297 493 297 493 290 522 c 1,6,-1
 286 522 l 1,7,8
 253 366 253 366 240 316 c 2,0,-1
-10 0 m 1,9,-1
 188 650 l 1,10,-1
 396 650 l 1,11,-1
 594 0 l 1,12,-1
 412 0 l 1,13,-1
 380 138 l 1,14,-1
 198 138 l 1,15,-1
 166 0 l 1,16,-1
 -10 0 l 1,9,-1
110 724 m 1,17,-1
 194 834 l 1,18,-1
 382 834 l 1,19,-1
 466 724 l 1,20,-1
 392 680 l 1,21,-1
 290 760 l 1,22,-1
 286 760 l 1,23,-1
 184 680 l 1,24,-1
 110 724 l 1,17,-1
EndSplineSet
Validated: 1
EndChar

StartChar: Atilde
Encoding: 195 195 133
Width: 584
Flags: W
LayerCount: 2
Back
Fore
SplineSet
240 316 m 2,0,-1
 229 271 l 1,1,-1
 349 271 l 1,2,-1
 338 316 l 2,3,4
 329 350 329 350 313 421.5 c 128,-1,5
 297 493 297 493 290 522 c 1,6,-1
 286 522 l 1,7,8
 253 366 253 366 240 316 c 2,0,-1
-10 0 m 1,9,-1
 188 650 l 1,10,-1
 396 650 l 1,11,-1
 594 0 l 1,12,-1
 412 0 l 1,13,-1
 380 138 l 1,14,-1
 198 138 l 1,15,-1
 166 0 l 1,16,-1
 -10 0 l 1,9,-1
358 686 m 0,17,18
 318 686 318 686 275.5 712 c 128,-1,19
 233 738 233 738 224 738 c 0,20,21
 197 738 197 738 192 696 c 1,22,-1
 82 704 l 1,23,24
 86 782 86 782 122.5 819 c 128,-1,25
 159 856 159 856 218 856 c 0,26,27
 258 856 258 856 300.5 830 c 128,-1,28
 343 804 343 804 352 804 c 0,29,30
 379 804 379 804 384 846 c 1,31,-1
 494 838 l 1,32,33
 490 760 490 760 453.5 723 c 128,-1,34
 417 686 417 686 358 686 c 0,17,18
EndSplineSet
Validated: 1
EndChar

StartChar: Adieresis
Encoding: 196 196 134
Width: 584
Flags: W
LayerCount: 2
Back
Fore
SplineSet
240 316 m 2,0,-1
 229 271 l 1,1,-1
 349 271 l 1,2,-1
 338 316 l 2,3,4
 329 350 329 350 313 421.5 c 128,-1,5
 297 493 297 493 290 522 c 1,6,-1
 286 522 l 1,7,8
 253 366 253 366 240 316 c 2,0,-1
-10 0 m 1,9,-1
 188 650 l 1,10,-1
 396 650 l 1,11,-1
 594 0 l 1,12,-1
 412 0 l 1,13,-1
 380 138 l 1,14,-1
 198 138 l 1,15,-1
 166 0 l 1,16,-1
 -10 0 l 1,9,-1
174 694 m 128,-1,18
 140 694 140 694 118 716.5 c 128,-1,19
 96 739 96 739 96 772 c 128,-1,20
 96 805 96 805 118 827.5 c 128,-1,21
 140 850 140 850 174 850 c 128,-1,22
 208 850 208 850 230 827.5 c 128,-1,23
 252 805 252 805 252 772 c 128,-1,24
 252 739 252 739 230 716.5 c 128,-1,17
 208 694 208 694 174 694 c 128,-1,18
402 694 m 128,-1,26
 368 694 368 694 346 716.5 c 128,-1,27
 324 739 324 739 324 772 c 128,-1,28
 324 805 324 805 346 827.5 c 128,-1,29
 368 850 368 850 402 850 c 128,-1,30
 436 850 436 850 458 827.5 c 128,-1,31
 480 805 480 805 480 772 c 128,-1,32
 480 739 480 739 458 716.5 c 128,-1,25
 436 694 436 694 402 694 c 128,-1,26
EndSplineSet
Validated: 1
EndChar

StartChar: Aring
Encoding: 197 197 135
Width: 584
Flags: W
LayerCount: 2
Back
Fore
SplineSet
240 316 m 2,0,-1
 229 271 l 1,1,-1
 349 271 l 1,2,-1
 338 316 l 2,3,4
 329 350 329 350 313 421.5 c 128,-1,5
 297 493 297 493 290 522 c 1,6,-1
 286 522 l 1,7,8
 253 366 253 366 240 316 c 2,0,-1
-10 0 m 1,9,-1
 188 650 l 1,10,-1
 396 650 l 1,11,-1
 594 0 l 1,12,-1
 412 0 l 1,13,-1
 380 138 l 1,14,-1
 198 138 l 1,15,-1
 166 0 l 1,16,-1
 -10 0 l 1,9,-1
288 696 m 128,-1,18
 234 696 234 696 201 724 c 128,-1,19
 168 752 168 752 168 798 c 128,-1,20
 168 844 168 844 201 872 c 128,-1,21
 234 900 234 900 288 900 c 128,-1,22
 342 900 342 900 375 872 c 128,-1,23
 408 844 408 844 408 798 c 128,-1,24
 408 752 408 752 375 724 c 128,-1,17
 342 696 342 696 288 696 c 128,-1,18
288 758 m 128,-1,26
 304 758 304 758 315 769 c 128,-1,27
 326 780 326 780 326 798 c 128,-1,28
 326 816 326 816 315 827 c 128,-1,29
 304 838 304 838 288 838 c 128,-1,30
 272 838 272 838 261 827 c 128,-1,31
 250 816 250 816 250 798 c 128,-1,32
 250 780 250 780 261 769 c 128,-1,25
 272 758 272 758 288 758 c 128,-1,26
EndSplineSet
Validated: 1
EndChar

StartChar: AE
Encoding: 198 198 136
Width: 854
Flags: W
LayerCount: 2
Back
Fore
SplineSet
308 348 m 2,0,-1
 272 265 l 1,1,-1
 380 265 l 1,2,-1
 380 522 l 1,3,-1
 376 522 l 1,4,5
 316 366 316 366 308 348 c 2,0,-1
-22 0 m 1,6,-1
 274 650 l 1,7,-1
 790 650 l 1,8,-1
 790 506 l 1,9,-1
 552 506 l 1,10,-1
 552 404 l 1,11,-1
 754 404 l 1,12,-1
 754 260 l 1,13,-1
 552 260 l 1,14,-1
 552 144 l 1,15,-1
 800 144 l 1,16,-1
 800 0 l 1,17,-1
 380 0 l 1,18,-1
 380 132 l 1,19,-1
 215 132 l 1,20,-1
 158 0 l 1,21,-1
 -22 0 l 1,6,-1
EndSplineSet
Validated: 1
EndChar

StartChar: Ccedilla
Encoding: 199 199 137
Width: 586
Flags: W
LayerCount: 2
Back
Fore
SplineSet
244 -244 m 1,0,-1
 232 -178 l 1,1,2
 289 -175 289 -175 310.5 -166 c 128,-1,3
 332 -157 332 -157 332 -136 c 0,4,5
 332 -106 332 -106 256 -96 c 1,6,-1
 300 -8 l 1,7,8
 187 9 187 9 115.5 93.5 c 128,-1,9
 44 178 44 178 44 320 c 0,10,11
 44 477 44 477 136 569.5 c 128,-1,12
 228 662 228 662 358 662 c 0,13,14
 474 662 474 662 560 576 c 1,15,-1
 470 466 l 1,16,17
 415 514 415 514 362 514 c 0,18,19
 303 514 303 514 261.5 463 c 128,-1,20
 220 412 220 412 220 326 c 0,21,22
 220 236 220 236 258 186 c 128,-1,23
 296 136 296 136 360 136 c 0,24,25
 426 136 426 136 478 192 c 1,26,-1
 568 84 l 1,27,28
 501 7 501 7 398 -9 c 1,29,-1
 376 -60 l 1,30,31
 454 -78 454 -78 454 -136 c 0,32,33
 454 -238 454 -238 244 -244 c 1,0,-1
EndSplineSet
Validated: 1
EndChar

StartChar: Egrave
Encoding: 200 200 138
Width: 556
Flags: W
LayerCount: 2
Back
Fore
SplineSet
72 0 m 1,0,-1
 72 650 l 1,1,-1
 492 650 l 1,2,-1
 492 506 l 1,3,-1
 244 506 l 1,4,-1
 244 404 l 1,5,-1
 456 404 l 1,6,-1
 456 260 l 1,7,-1
 244 260 l 1,8,-1
 244 144 l 1,9,-1
 502 144 l 1,10,-1
 502 0 l 1,11,-1
 72 0 l 1,0,-1
298 674 m 1,12,-1
 102 794 l 1,13,-1
 192 904 l 1,14,-1
 374 760 l 1,15,-1
 298 674 l 1,12,-1
EndSplineSet
Validated: 1
EndChar

StartChar: Eacute
Encoding: 201 201 139
Width: 556
Flags: W
LayerCount: 2
Back
Fore
SplineSet
72 0 m 1,0,-1
 72 650 l 1,1,-1
 492 650 l 1,2,-1
 492 506 l 1,3,-1
 244 506 l 1,4,-1
 244 404 l 1,5,-1
 456 404 l 1,6,-1
 456 260 l 1,7,-1
 244 260 l 1,8,-1
 244 144 l 1,9,-1
 502 144 l 1,10,-1
 502 0 l 1,11,-1
 72 0 l 1,0,-1
282 674 m 1,12,-1
 206 760 l 1,13,-1
 388 904 l 1,14,-1
 478 794 l 1,15,-1
 282 674 l 1,12,-1
EndSplineSet
Validated: 1
EndChar

StartChar: Ecircumflex
Encoding: 202 202 140
Width: 556
Flags: W
LayerCount: 2
Back
Fore
SplineSet
72 0 m 1,0,-1
 72 650 l 1,1,-1
 492 650 l 1,2,-1
 492 506 l 1,3,-1
 244 506 l 1,4,-1
 244 404 l 1,5,-1
 456 404 l 1,6,-1
 456 260 l 1,7,-1
 244 260 l 1,8,-1
 244 144 l 1,9,-1
 502 144 l 1,10,-1
 502 0 l 1,11,-1
 72 0 l 1,0,-1
112 724 m 1,12,-1
 196 834 l 1,13,-1
 384 834 l 1,14,-1
 468 724 l 1,15,-1
 394 680 l 1,16,-1
 292 760 l 1,17,-1
 288 760 l 1,18,-1
 186 680 l 1,19,-1
 112 724 l 1,12,-1
EndSplineSet
Validated: 1
EndChar

StartChar: Edieresis
Encoding: 203 203 141
Width: 556
Flags: W
LayerCount: 2
Back
Fore
SplineSet
72 0 m 1,0,-1
 72 650 l 1,1,-1
 492 650 l 1,2,-1
 492 506 l 1,3,-1
 244 506 l 1,4,-1
 244 404 l 1,5,-1
 456 404 l 1,6,-1
 456 260 l 1,7,-1
 244 260 l 1,8,-1
 244 144 l 1,9,-1
 502 144 l 1,10,-1
 502 0 l 1,11,-1
 72 0 l 1,0,-1
176 694 m 128,-1,13
 142 694 142 694 120 716.5 c 128,-1,14
 98 739 98 739 98 772 c 128,-1,15
 98 805 98 805 120 827.5 c 128,-1,16
 142 850 142 850 176 850 c 128,-1,17
 210 850 210 850 232 827.5 c 128,-1,18
 254 805 254 805 254 772 c 128,-1,19
 254 739 254 739 232 716.5 c 128,-1,12
 210 694 210 694 176 694 c 128,-1,13
404 694 m 128,-1,21
 370 694 370 694 348 716.5 c 128,-1,22
 326 739 326 739 326 772 c 128,-1,23
 326 805 326 805 348 827.5 c 128,-1,24
 370 850 370 850 404 850 c 128,-1,25
 438 850 438 850 460 827.5 c 128,-1,26
 482 805 482 805 482 772 c 128,-1,27
 482 739 482 739 460 716.5 c 128,-1,20
 438 694 438 694 404 694 c 128,-1,21
EndSplineSet
Validated: 1
EndChar

StartChar: Igrave
Encoding: 204 204 142
Width: 316
Flags: W
LayerCount: 2
Back
Fore
SplineSet
72 0 m 1,0,-1
 72 650 l 1,1,-1
 244 650 l 1,2,-1
 244 0 l 1,3,-1
 72 0 l 1,0,-1
166 674 m 1,4,-1
 -30 794 l 1,5,-1
 60 904 l 1,6,-1
 242 760 l 1,7,-1
 166 674 l 1,4,-1
EndSplineSet
Validated: 1
EndChar

StartChar: Iacute
Encoding: 205 205 143
Width: 316
Flags: W
LayerCount: 2
Back
Fore
SplineSet
72 0 m 1,0,-1
 72 650 l 1,1,-1
 244 650 l 1,2,-1
 244 0 l 1,3,-1
 72 0 l 1,0,-1
150 674 m 1,4,-1
 74 760 l 1,5,-1
 256 904 l 1,6,-1
 346 794 l 1,7,-1
 150 674 l 1,4,-1
EndSplineSet
Validated: 1
EndChar

StartChar: Icircumflex
Encoding: 206 206 144
Width: 316
Flags: W
LayerCount: 2
Back
Fore
SplineSet
72 0 m 1,0,-1
 72 650 l 1,1,-1
 244 650 l 1,2,-1
 244 0 l 1,3,-1
 72 0 l 1,0,-1
-20 724 m 1,4,-1
 64 834 l 1,5,-1
 252 834 l 1,6,-1
 336 724 l 1,7,-1
 262 680 l 1,8,-1
 160 760 l 1,9,-1
 156 760 l 1,10,-1
 54 680 l 1,11,-1
 -20 724 l 1,4,-1
EndSplineSet
Validated: 1
EndChar

StartChar: Idieresis
Encoding: 207 207 145
Width: 316
Flags: W
LayerCount: 2
Back
Fore
SplineSet
72 0 m 1,0,-1
 72 650 l 1,1,-1
 244 650 l 1,2,-1
 244 0 l 1,3,-1
 72 0 l 1,0,-1
44 694 m 128,-1,5
 10 694 10 694 -12 716.5 c 128,-1,6
 -34 739 -34 739 -34 772 c 128,-1,7
 -34 805 -34 805 -12 827.5 c 128,-1,8
 10 850 10 850 44 850 c 128,-1,9
 78 850 78 850 100 827.5 c 128,-1,10
 122 805 122 805 122 772 c 128,-1,11
 122 739 122 739 100 716.5 c 128,-1,4
 78 694 78 694 44 694 c 128,-1,5
272 694 m 128,-1,13
 238 694 238 694 216 716.5 c 128,-1,14
 194 739 194 739 194 772 c 128,-1,15
 194 805 194 805 216 827.5 c 128,-1,16
 238 850 238 850 272 850 c 128,-1,17
 306 850 306 850 328 827.5 c 128,-1,18
 350 805 350 805 350 772 c 128,-1,19
 350 739 350 739 328 716.5 c 128,-1,12
 306 694 306 694 272 694 c 128,-1,13
EndSplineSet
Validated: 1
EndChar

StartChar: Eth
Encoding: 208 208 146
Width: 668
Flags: W
LayerCount: 2
Back
Fore
SplineSet
24 294 m 1,0,-1
 24 368 l 1,1,-1
 98 374 l 1,2,-1
 98 650 l 1,3,-1
 290 650 l 2,4,5
 446 650 446 650 535 572 c 128,-1,6
 624 494 624 494 624 328 c 128,-1,7
 624 162 624 162 536.5 81 c 128,-1,8
 449 0 449 0 300 0 c 2,9,-1
 98 0 l 1,10,-1
 98 294 l 1,11,-1
 24 294 l 1,0,-1
270 138 m 1,12,-1
 280 138 l 2,13,14
 359 138 359 138 403.5 180 c 128,-1,15
 448 222 448 222 448 328 c 0,16,17
 448 433 448 433 404 472.5 c 128,-1,18
 360 512 360 512 280 512 c 2,19,-1
 270 512 l 1,20,-1
 270 374 l 1,21,-1
 386 374 l 1,22,-1
 386 294 l 1,23,-1
 270 294 l 1,24,-1
 270 138 l 1,12,-1
EndSplineSet
Validated: 1
EndChar

StartChar: Ntilde
Encoding: 209 209 147
Width: 672
Flags: W
LayerCount: 2
Back
Fore
SplineSet
72 0 m 1,0,-1
 72 650 l 1,1,-1
 248 650 l 1,2,-1
 392 360 l 1,3,-1
 454 214 l 1,4,-1
 458 214 l 1,5,6
 436 406 436 406 436 462 c 2,7,-1
 436 650 l 1,8,-1
 600 650 l 1,9,-1
 600 0 l 1,10,-1
 424 0 l 1,11,-1
 280 291 l 1,12,-1
 218 436 l 1,13,-1
 214 436 l 1,14,15
 216 420 216 420 220.5 379 c 128,-1,16
 225 338 225 338 228 312.5 c 128,-1,17
 231 287 231 287 233.5 251.5 c 128,-1,18
 236 216 236 216 236 188 c 2,19,-1
 236 0 l 1,20,-1
 72 0 l 1,0,-1
406 686 m 0,21,22
 366 686 366 686 323.5 712 c 128,-1,23
 281 738 281 738 272 738 c 0,24,25
 245 738 245 738 240 696 c 1,26,-1
 130 704 l 1,27,28
 134 782 134 782 170.5 819 c 128,-1,29
 207 856 207 856 266 856 c 0,30,31
 306 856 306 856 348.5 830 c 128,-1,32
 391 804 391 804 400 804 c 0,33,34
 427 804 427 804 432 846 c 1,35,-1
 542 838 l 1,36,37
 538 760 538 760 501.5 723 c 128,-1,38
 465 686 465 686 406 686 c 0,21,22
EndSplineSet
Validated: 1
EndChar

StartChar: Ograve
Encoding: 210 210 148
Width: 692
Flags: W
LayerCount: 2
Back
Fore
SplineSet
346 -12 m 128,-1,1
 209 -12 209 -12 126.5 79 c 128,-1,2
 44 170 44 170 44 328 c 128,-1,3
 44 486 44 486 126.5 574 c 128,-1,4
 209 662 209 662 346 662 c 128,-1,5
 483 662 483 662 565.5 573.5 c 128,-1,6
 648 485 648 485 648 328 c 0,7,8
 648 170 648 170 565.5 79 c 128,-1,0
 483 -12 483 -12 346 -12 c 128,-1,1
346 136 m 128,-1,10
 404 136 404 136 438 187.5 c 128,-1,11
 472 239 472 239 472 328 c 0,12,13
 472 416 472 416 438.5 465 c 128,-1,14
 405 514 405 514 346 514 c 128,-1,15
 287 514 287 514 253.5 465 c 128,-1,16
 220 416 220 416 220 328 c 0,17,18
 220 239 220 239 254 187.5 c 128,-1,9
 288 136 288 136 346 136 c 128,-1,10
354 674 m 1,19,-1
 158 794 l 1,20,-1
 248 904 l 1,21,-1
 430 760 l 1,22,-1
 354 674 l 1,19,-1
EndSplineSet
Validated: 1
EndChar

StartChar: Oacute
Encoding: 211 211 149
Width: 692
Flags: W
LayerCount: 2
Back
Fore
SplineSet
346 -12 m 128,-1,1
 209 -12 209 -12 126.5 79 c 128,-1,2
 44 170 44 170 44 328 c 128,-1,3
 44 486 44 486 126.5 574 c 128,-1,4
 209 662 209 662 346 662 c 128,-1,5
 483 662 483 662 565.5 573.5 c 128,-1,6
 648 485 648 485 648 328 c 0,7,8
 648 170 648 170 565.5 79 c 128,-1,0
 483 -12 483 -12 346 -12 c 128,-1,1
346 136 m 128,-1,10
 404 136 404 136 438 187.5 c 128,-1,11
 472 239 472 239 472 328 c 0,12,13
 472 416 472 416 438.5 465 c 128,-1,14
 405 514 405 514 346 514 c 128,-1,15
 287 514 287 514 253.5 465 c 128,-1,16
 220 416 220 416 220 328 c 0,17,18
 220 239 220 239 254 187.5 c 128,-1,9
 288 136 288 136 346 136 c 128,-1,10
338 674 m 1,19,-1
 262 760 l 1,20,-1
 444 904 l 1,21,-1
 534 794 l 1,22,-1
 338 674 l 1,19,-1
EndSplineSet
Validated: 1
EndChar

StartChar: Ocircumflex
Encoding: 212 212 150
Width: 692
Flags: W
LayerCount: 2
Back
Fore
SplineSet
346 -12 m 128,-1,1
 209 -12 209 -12 126.5 79 c 128,-1,2
 44 170 44 170 44 328 c 128,-1,3
 44 486 44 486 126.5 574 c 128,-1,4
 209 662 209 662 346 662 c 128,-1,5
 483 662 483 662 565.5 573.5 c 128,-1,6
 648 485 648 485 648 328 c 0,7,8
 648 170 648 170 565.5 79 c 128,-1,0
 483 -12 483 -12 346 -12 c 128,-1,1
346 136 m 128,-1,10
 404 136 404 136 438 187.5 c 128,-1,11
 472 239 472 239 472 328 c 0,12,13
 472 416 472 416 438.5 465 c 128,-1,14
 405 514 405 514 346 514 c 128,-1,15
 287 514 287 514 253.5 465 c 128,-1,16
 220 416 220 416 220 328 c 0,17,18
 220 239 220 239 254 187.5 c 128,-1,9
 288 136 288 136 346 136 c 128,-1,10
168 724 m 1,19,-1
 252 834 l 1,20,-1
 440 834 l 1,21,-1
 524 724 l 1,22,-1
 450 680 l 1,23,-1
 348 760 l 1,24,-1
 344 760 l 1,25,-1
 242 680 l 1,26,-1
 168 724 l 1,19,-1
EndSplineSet
Validated: 1
EndChar

StartChar: Otilde
Encoding: 213 213 151
Width: 692
Flags: W
LayerCount: 2
Back
Fore
SplineSet
346 -12 m 128,-1,1
 209 -12 209 -12 126.5 79 c 128,-1,2
 44 170 44 170 44 328 c 128,-1,3
 44 486 44 486 126.5 574 c 128,-1,4
 209 662 209 662 346 662 c 128,-1,5
 483 662 483 662 565.5 573.5 c 128,-1,6
 648 485 648 485 648 328 c 0,7,8
 648 170 648 170 565.5 79 c 128,-1,0
 483 -12 483 -12 346 -12 c 128,-1,1
346 136 m 128,-1,10
 404 136 404 136 438 187.5 c 128,-1,11
 472 239 472 239 472 328 c 0,12,13
 472 416 472 416 438.5 465 c 128,-1,14
 405 514 405 514 346 514 c 128,-1,15
 287 514 287 514 253.5 465 c 128,-1,16
 220 416 220 416 220 328 c 0,17,18
 220 239 220 239 254 187.5 c 128,-1,9
 288 136 288 136 346 136 c 128,-1,10
416 686 m 0,19,20
 376 686 376 686 333.5 712 c 128,-1,21
 291 738 291 738 282 738 c 0,22,23
 255 738 255 738 250 696 c 1,24,-1
 140 704 l 1,25,26
 144 782 144 782 180.5 819 c 128,-1,27
 217 856 217 856 276 856 c 0,28,29
 316 856 316 856 358.5 830 c 128,-1,30
 401 804 401 804 410 804 c 0,31,32
 437 804 437 804 442 846 c 1,33,-1
 552 838 l 1,34,35
 548 760 548 760 511.5 723 c 128,-1,36
 475 686 475 686 416 686 c 0,19,20
EndSplineSet
Validated: 1
EndChar

StartChar: Odieresis
Encoding: 214 214 152
Width: 692
Flags: W
LayerCount: 2
Back
Fore
SplineSet
346 -12 m 128,-1,1
 209 -12 209 -12 126.5 79 c 128,-1,2
 44 170 44 170 44 328 c 128,-1,3
 44 486 44 486 126.5 574 c 128,-1,4
 209 662 209 662 346 662 c 128,-1,5
 483 662 483 662 565.5 573.5 c 128,-1,6
 648 485 648 485 648 328 c 0,7,8
 648 170 648 170 565.5 79 c 128,-1,0
 483 -12 483 -12 346 -12 c 128,-1,1
346 136 m 128,-1,10
 404 136 404 136 438 187.5 c 128,-1,11
 472 239 472 239 472 328 c 0,12,13
 472 416 472 416 438.5 465 c 128,-1,14
 405 514 405 514 346 514 c 128,-1,15
 287 514 287 514 253.5 465 c 128,-1,16
 220 416 220 416 220 328 c 0,17,18
 220 239 220 239 254 187.5 c 128,-1,9
 288 136 288 136 346 136 c 128,-1,10
232 694 m 128,-1,20
 198 694 198 694 176 716.5 c 128,-1,21
 154 739 154 739 154 772 c 128,-1,22
 154 805 154 805 176 827.5 c 128,-1,23
 198 850 198 850 232 850 c 128,-1,24
 266 850 266 850 288 827.5 c 128,-1,25
 310 805 310 805 310 772 c 128,-1,26
 310 739 310 739 288 716.5 c 128,-1,19
 266 694 266 694 232 694 c 128,-1,20
460 694 m 128,-1,28
 426 694 426 694 404 716.5 c 128,-1,29
 382 739 382 739 382 772 c 128,-1,30
 382 805 382 805 404 827.5 c 128,-1,31
 426 850 426 850 460 850 c 128,-1,32
 494 850 494 850 516 827.5 c 128,-1,33
 538 805 538 805 538 772 c 128,-1,34
 538 739 538 739 516 716.5 c 128,-1,27
 494 694 494 694 460 694 c 128,-1,28
EndSplineSet
Validated: 1
EndChar

StartChar: multiply
Encoding: 215 215 153
Width: 540
Flags: W
LayerCount: 2
Back
Fore
SplineSet
132 106 m 1,0,-1
 47 191 l 1,1,-1
 185 329 l 1,2,-1
 47 467 l 1,3,-1
 132 552 l 1,4,-1
 270 414 l 1,5,-1
 408 552 l 1,6,-1
 493 467 l 1,7,-1
 355 329 l 1,8,-1
 493 191 l 1,9,-1
 408 106 l 1,10,-1
 270 244 l 1,11,-1
 132 106 l 1,0,-1
EndSplineSet
Validated: 1
EndChar

StartChar: Oslash
Encoding: 216 216 154
Width: 692
Flags: W
LayerCount: 2
Back
Fore
SplineSet
346 -12 m 0,0,1
 254 -12 254 -12 186 30 c 1,2,-1
 124 -46 l 1,3,-1
 36 22 l 1,4,-1
 105 106 l 1,5,6
 44 194 44 194 44 328 c 0,7,8
 44 486 44 486 126.5 574 c 128,-1,9
 209 662 209 662 346 662 c 0,10,11
 446 662 446 662 520 613 c 1,12,-1
 588 696 l 1,13,-1
 676 628 l 1,14,-1
 597 532 l 1,15,16
 648 450 648 450 648 328 c 0,17,18
 648 170 648 170 565.5 79 c 128,-1,19
 483 -12 483 -12 346 -12 c 0,0,1
220 328 m 0,20,21
 220 286 220 286 227 255 c 1,22,-1
 418 488 l 1,23,24
 387 514 387 514 346 514 c 0,25,26
 287 514 287 514 253.5 465 c 128,-1,27
 220 416 220 416 220 328 c 0,20,21
346 136 m 0,28,29
 404 136 404 136 438 187.5 c 128,-1,30
 472 239 472 239 472 328 c 0,31,32
 472 354 472 354 469 375 c 1,33,-1
 287 153 l 1,34,35
 313 136 313 136 346 136 c 0,28,29
EndSplineSet
Validated: 1
EndChar

StartChar: Ugrave
Encoding: 217 217 155
Width: 672
Flags: W
LayerCount: 2
Back
Fore
SplineSet
338 -12 m 0,0,1
 201 -12 201 -12 134.5 68 c 128,-1,2
 68 148 68 148 68 314 c 2,3,-1
 68 650 l 1,4,-1
 240 650 l 1,5,-1
 240 294 l 2,6,7
 240 208 240 208 263 172 c 128,-1,8
 286 136 286 136 338 136 c 128,-1,9
 390 136 390 136 414 172.5 c 128,-1,10
 438 209 438 209 438 294 c 2,11,-1
 438 650 l 1,12,-1
 604 650 l 1,13,-1
 604 314 l 2,14,15
 604 147 604 147 539 67.5 c 128,-1,16
 474 -12 474 -12 338 -12 c 0,0,1
344 674 m 1,17,-1
 148 794 l 1,18,-1
 238 904 l 1,19,-1
 420 760 l 1,20,-1
 344 674 l 1,17,-1
EndSplineSet
Validated: 1
EndChar

StartChar: Uacute
Encoding: 218 218 156
Width: 672
Flags: W
LayerCount: 2
Back
Fore
SplineSet
338 -12 m 0,0,1
 201 -12 201 -12 134.5 68 c 128,-1,2
 68 148 68 148 68 314 c 2,3,-1
 68 650 l 1,4,-1
 240 650 l 1,5,-1
 240 294 l 2,6,7
 240 208 240 208 263 172 c 128,-1,8
 286 136 286 136 338 136 c 128,-1,9
 390 136 390 136 414 172.5 c 128,-1,10
 438 209 438 209 438 294 c 2,11,-1
 438 650 l 1,12,-1
 604 650 l 1,13,-1
 604 314 l 2,14,15
 604 147 604 147 539 67.5 c 128,-1,16
 474 -12 474 -12 338 -12 c 0,0,1
328 674 m 1,17,-1
 252 760 l 1,18,-1
 434 904 l 1,19,-1
 524 794 l 1,20,-1
 328 674 l 1,17,-1
EndSplineSet
Validated: 1
EndChar

StartChar: Ucircumflex
Encoding: 219 219 157
Width: 672
Flags: W
LayerCount: 2
Back
Fore
SplineSet
338 -12 m 0,0,1
 201 -12 201 -12 134.5 68 c 128,-1,2
 68 148 68 148 68 314 c 2,3,-1
 68 650 l 1,4,-1
 240 650 l 1,5,-1
 240 294 l 2,6,7
 240 208 240 208 263 172 c 128,-1,8
 286 136 286 136 338 136 c 128,-1,9
 390 136 390 136 414 172.5 c 128,-1,10
 438 209 438 209 438 294 c 2,11,-1
 438 650 l 1,12,-1
 604 650 l 1,13,-1
 604 314 l 2,14,15
 604 147 604 147 539 67.5 c 128,-1,16
 474 -12 474 -12 338 -12 c 0,0,1
158 724 m 1,17,-1
 242 834 l 1,18,-1
 430 834 l 1,19,-1
 514 724 l 1,20,-1
 440 680 l 1,21,-1
 338 760 l 1,22,-1
 334 760 l 1,23,-1
 232 680 l 1,24,-1
 158 724 l 1,17,-1
EndSplineSet
Validated: 1
EndChar

StartChar: Udieresis
Encoding: 220 220 158
Width: 672
Flags: W
LayerCount: 2
Back
Fore
SplineSet
338 -12 m 0,0,1
 201 -12 201 -12 134.5 68 c 128,-1,2
 68 148 68 148 68 314 c 2,3,-1
 68 650 l 1,4,-1
 240 650 l 1,5,-1
 240 294 l 2,6,7
 240 208 240 208 263 172 c 128,-1,8
 286 136 286 136 338 136 c 128,-1,9
 390 136 390 136 414 172.5 c 128,-1,10
 438 209 438 209 438 294 c 2,11,-1
 438 650 l 1,12,-1
 604 650 l 1,13,-1
 604 314 l 2,14,15
 604 147 604 147 539 67.5 c 128,-1,16
 474 -12 474 -12 338 -12 c 0,0,1
222 694 m 128,-1,18
 188 694 188 694 166 716.5 c 128,-1,19
 144 739 144 739 144 772 c 128,-1,20
 144 805 144 805 166 827.5 c 128,-1,21
 188 850 188 850 222 850 c 128,-1,22
 256 850 256 850 278 827.5 c 128,-1,23
 300 805 300 805 300 772 c 128,-1,24
 300 739 300 739 278 716.5 c 128,-1,17
 256 694 256 694 222 694 c 128,-1,18
450 694 m 128,-1,26
 416 694 416 694 394 716.5 c 128,-1,27
 372 739 372 739 372 772 c 128,-1,28
 372 805 372 805 394 827.5 c 128,-1,29
 416 850 416 850 450 850 c 128,-1,30
 484 850 484 850 506 827.5 c 128,-1,31
 528 805 528 805 528 772 c 128,-1,32
 528 739 528 739 506 716.5 c 128,-1,25
 484 694 484 694 450 694 c 128,-1,26
EndSplineSet
Validated: 1
EndChar

StartChar: Yacute
Encoding: 221 221 159
Width: 544
Flags: W
LayerCount: 2
Back
Fore
SplineSet
186 0 m 1,0,-1
 186 224 l 1,1,-1
 -10 650 l 1,2,-1
 174 650 l 1,3,-1
 222 514 l 2,4,5
 231 487 231 487 247.5 438.5 c 128,-1,6
 264 390 264 390 271 369 c 1,7,-1
 275 369 l 1,8,9
 285 398 285 398 302.5 448 c 128,-1,10
 320 498 320 498 326 514 c 2,11,-1
 374 650 l 1,12,-1
 554 650 l 1,13,-1
 358 224 l 1,14,-1
 358 0 l 1,15,-1
 186 0 l 1,0,-1
264 674 m 1,16,-1
 188 760 l 1,17,-1
 370 904 l 1,18,-1
 460 794 l 1,19,-1
 264 674 l 1,16,-1
EndSplineSet
Validated: 1
EndChar

StartChar: Thorn
Encoding: 222 222 160
Width: 630
Flags: W
LayerCount: 2
Back
Fore
SplineSet
72 0 m 1,0,-1
 72 650 l 1,1,-1
 244 650 l 1,2,-1
 244 556 l 1,3,-1
 324 556 l 2,4,5
 379 556 379 556 424 545 c 128,-1,6
 469 534 469 534 506 510 c 128,-1,7
 543 486 543 486 563.5 442.5 c 128,-1,8
 584 399 584 399 584 340 c 0,9,10
 584 264 584 264 546.5 211 c 128,-1,11
 509 158 509 158 452 135 c 128,-1,12
 395 112 395 112 324 112 c 2,13,-1
 244 112 l 1,14,-1
 244 0 l 1,15,-1
 72 0 l 1,0,-1
244 248 m 1,16,-1
 316 248 l 2,17,18
 416 248 416 248 416 340 c 0,19,20
 416 420 416 420 316 420 c 2,21,-1
 244 420 l 1,22,-1
 244 248 l 1,16,-1
EndSplineSet
Validated: 1
EndChar

StartChar: germandbls
Encoding: 223 223 161
Width: 654
Flags: W
LayerCount: 2
Back
Fore
SplineSet
434 -12 m 0,0,1
 359 -12 359 -12 280 32 c 1,2,-1
 338 148 l 1,3,4
 383 114 383 114 428 114 c 0,5,6
 448 114 448 114 460 124 c 128,-1,7
 472 134 472 134 472 150 c 128,-1,8
 472 166 472 166 454.5 180.5 c 128,-1,9
 437 195 437 195 412.5 208 c 128,-1,10
 388 221 388 221 363.5 237 c 128,-1,11
 339 253 339 253 321.5 280.5 c 128,-1,12
 304 308 304 308 304 344 c 128,-1,13
 304 380 304 380 336 428.5 c 128,-1,14
 368 477 368 477 368 512 c 0,15,16
 368 538 368 538 353 555 c 128,-1,17
 338 572 338 572 312 572 c 0,18,19
 270 572 270 572 249 541.5 c 128,-1,20
 228 511 228 511 228 458 c 2,21,-1
 228 0 l 1,22,-1
 58 0 l 1,23,-1
 58 476 l 2,24,25
 58 579 58 579 122 642.5 c 128,-1,26
 186 706 186 706 312 706 c 0,27,28
 417 706 417 706 474.5 654.5 c 128,-1,29
 532 603 532 603 532 532 c 0,30,31
 532 500 532 500 521 472.5 c 128,-1,32
 510 445 510 445 496 430 c 128,-1,33
 482 415 482 415 471 397.5 c 128,-1,34
 460 380 460 380 460 366 c 128,-1,35
 460 352 460 352 477.5 339 c 128,-1,36
 495 326 495 326 519.5 312.5 c 128,-1,37
 544 299 544 299 568.5 281 c 128,-1,38
 593 263 593 263 610.5 231.5 c 128,-1,39
 628 200 628 200 628 158 c 0,40,41
 628 84 628 84 578 36 c 128,-1,42
 528 -12 528 -12 434 -12 c 0,0,1
EndSplineSet
Validated: 1
Substitution2: "<3,3> Small Caps in Latin lookup 4 subtable" uni1E9E.sc
EndChar

StartChar: agrave
Encoding: 224 224 162
Width: 536
Flags: W
LayerCount: 2
Back
Fore
SplineSet
188 -12 m 0,0,1
 120 -12 120 -12 79 33 c 128,-1,2
 38 78 38 78 38 142 c 0,3,4
 38 221 38 221 102.5 265 c 128,-1,5
 167 309 167 309 310 324 c 1,6,7
 304 376 304 376 240 376 c 0,8,9
 192 376 192 376 114 334 c 1,10,-1
 54 446 l 1,11,12
 164 512 164 512 274 512 c 0,13,14
 482 512 482 512 482 278 c 2,15,-1
 482 0 l 1,16,-1
 342 0 l 1,17,-1
 330 48 l 1,18,-1
 326 48 l 1,19,20
 259 -12 259 -12 188 -12 c 0,0,1
248 120 m 0,21,22
 279 120 279 120 310 154 c 1,23,-1
 310 222 l 1,24,25
 202 206 202 206 202 156 c 0,26,27
 202 120 202 120 248 120 c 0,21,22
261 572 m 1,28,-1
 71 730 l 1,29,-1
 187 844 l 1,30,-1
 345 656 l 1,31,-1
 261 572 l 1,28,-1
EndSplineSet
Validated: 1
Substitution2: "<3,3> Small Caps in Latin lookup 4 subtable" Agrave.sc
EndChar

StartChar: aacute
Encoding: 225 225 163
Width: 536
Flags: W
LayerCount: 2
Back
Fore
SplineSet
188 -12 m 0,0,1
 120 -12 120 -12 79 33 c 128,-1,2
 38 78 38 78 38 142 c 0,3,4
 38 221 38 221 102.5 265 c 128,-1,5
 167 309 167 309 310 324 c 1,6,7
 304 376 304 376 240 376 c 0,8,9
 192 376 192 376 114 334 c 1,10,-1
 54 446 l 1,11,12
 164 512 164 512 274 512 c 0,13,14
 482 512 482 512 482 278 c 2,15,-1
 482 0 l 1,16,-1
 342 0 l 1,17,-1
 330 48 l 1,18,-1
 326 48 l 1,19,20
 259 -12 259 -12 188 -12 c 0,0,1
248 120 m 0,21,22
 279 120 279 120 310 154 c 1,23,-1
 310 222 l 1,24,25
 202 206 202 206 202 156 c 0,26,27
 202 120 202 120 248 120 c 0,21,22
301 572 m 1,28,-1
 217 656 l 1,29,-1
 375 844 l 1,30,-1
 491 730 l 1,31,-1
 301 572 l 1,28,-1
EndSplineSet
Validated: 1
Substitution2: "<3,3> Small Caps in Latin lookup 4 subtable" Aacute.sc
EndChar

StartChar: acircumflex
Encoding: 226 226 164
Width: 536
Flags: W
LayerCount: 2
Back
Fore
SplineSet
188 -12 m 0,0,1
 120 -12 120 -12 79 33 c 128,-1,2
 38 78 38 78 38 142 c 0,3,4
 38 221 38 221 102.5 265 c 128,-1,5
 167 309 167 309 310 324 c 1,6,7
 304 376 304 376 240 376 c 0,8,9
 192 376 192 376 114 334 c 1,10,-1
 54 446 l 1,11,12
 164 512 164 512 274 512 c 0,13,14
 482 512 482 512 482 278 c 2,15,-1
 482 0 l 1,16,-1
 342 0 l 1,17,-1
 330 48 l 1,18,-1
 326 48 l 1,19,20
 259 -12 259 -12 188 -12 c 0,0,1
248 120 m 0,21,22
 279 120 279 120 310 154 c 1,23,-1
 310 222 l 1,24,25
 202 206 202 206 202 156 c 0,26,27
 202 120 202 120 248 120 c 0,21,22
87 618 m 1,28,-1
 193 746 l 1,29,-1
 369 746 l 1,30,-1
 475 618 l 1,31,-1
 411 558 l 1,32,-1
 283 642 l 1,33,-1
 279 642 l 1,34,-1
 151 558 l 1,35,-1
 87 618 l 1,28,-1
EndSplineSet
Validated: 1
Substitution2: "<3,3> Small Caps in Latin lookup 4 subtable" Acircumflex.sc
EndChar

StartChar: atilde
Encoding: 227 227 165
Width: 536
Flags: W
LayerCount: 2
Back
Fore
SplineSet
188 -12 m 0,0,1
 120 -12 120 -12 79 33 c 128,-1,2
 38 78 38 78 38 142 c 0,3,4
 38 221 38 221 102.5 265 c 128,-1,5
 167 309 167 309 310 324 c 1,6,7
 304 376 304 376 240 376 c 0,8,9
 192 376 192 376 114 334 c 1,10,-1
 54 446 l 1,11,12
 164 512 164 512 274 512 c 0,13,14
 482 512 482 512 482 278 c 2,15,-1
 482 0 l 1,16,-1
 342 0 l 1,17,-1
 330 48 l 1,18,-1
 326 48 l 1,19,20
 259 -12 259 -12 188 -12 c 0,0,1
248 120 m 0,21,22
 279 120 279 120 310 154 c 1,23,-1
 310 222 l 1,24,25
 202 206 202 206 202 156 c 0,26,27
 202 120 202 120 248 120 c 0,21,22
345 572 m 0,28,29
 311 572 311 572 270.5 600 c 128,-1,30
 230 628 230 628 221 628 c 0,31,32
 196 628 196 628 191 582 c 1,33,-1
 85 588 l 1,34,35
 88 746 88 746 217 746 c 0,36,37
 251 746 251 746 291.5 718 c 128,-1,38
 332 690 332 690 341 690 c 0,39,40
 366 690 366 690 371 736 c 1,41,-1
 477 730 l 1,42,43
 474 572 474 572 345 572 c 0,28,29
EndSplineSet
Validated: 1
Substitution2: "<3,3> Small Caps in Latin lookup 4 subtable" Atilde.sc
EndChar

StartChar: adieresis
Encoding: 228 228 166
Width: 536
Flags: W
LayerCount: 2
Back
Fore
SplineSet
188 -12 m 0,0,1
 120 -12 120 -12 79 33 c 128,-1,2
 38 78 38 78 38 142 c 0,3,4
 38 221 38 221 102.5 265 c 128,-1,5
 167 309 167 309 310 324 c 1,6,7
 304 376 304 376 240 376 c 0,8,9
 192 376 192 376 114 334 c 1,10,-1
 54 446 l 1,11,12
 164 512 164 512 274 512 c 0,13,14
 482 512 482 512 482 278 c 2,15,-1
 482 0 l 1,16,-1
 342 0 l 1,17,-1
 330 48 l 1,18,-1
 326 48 l 1,19,20
 259 -12 259 -12 188 -12 c 0,0,1
248 120 m 0,21,22
 279 120 279 120 310 154 c 1,23,-1
 310 222 l 1,24,25
 202 206 202 206 202 156 c 0,26,27
 202 120 202 120 248 120 c 0,21,22
167 562 m 128,-1,29
 132 562 132 562 109.5 585 c 128,-1,30
 87 608 87 608 87 642 c 128,-1,31
 87 676 87 676 109.5 699 c 128,-1,32
 132 722 132 722 167 722 c 128,-1,33
 202 722 202 722 224.5 699 c 128,-1,34
 247 676 247 676 247 642 c 128,-1,35
 247 608 247 608 224.5 585 c 128,-1,28
 202 562 202 562 167 562 c 128,-1,29
395 562 m 128,-1,37
 360 562 360 562 337.5 585 c 128,-1,38
 315 608 315 608 315 642 c 128,-1,39
 315 676 315 676 337.5 699 c 128,-1,40
 360 722 360 722 395 722 c 128,-1,41
 430 722 430 722 452.5 699 c 128,-1,42
 475 676 475 676 475 642 c 128,-1,43
 475 608 475 608 452.5 585 c 128,-1,36
 430 562 430 562 395 562 c 128,-1,37
EndSplineSet
Validated: 1
Substitution2: "<3,3> Small Caps in Latin lookup 4 subtable" Adieresis.sc
EndChar

StartChar: aring
Encoding: 229 229 167
Width: 536
Flags: W
LayerCount: 2
Back
Fore
SplineSet
188 -12 m 0,0,1
 120 -12 120 -12 79 33 c 128,-1,2
 38 78 38 78 38 142 c 0,3,4
 38 221 38 221 102.5 265 c 128,-1,5
 167 309 167 309 310 324 c 1,6,7
 304 376 304 376 240 376 c 0,8,9
 192 376 192 376 114 334 c 1,10,-1
 54 446 l 1,11,12
 164 512 164 512 274 512 c 0,13,14
 482 512 482 512 482 278 c 2,15,-1
 482 0 l 1,16,-1
 342 0 l 1,17,-1
 330 48 l 1,18,-1
 326 48 l 1,19,20
 259 -12 259 -12 188 -12 c 0,0,1
248 120 m 0,21,22
 279 120 279 120 310 154 c 1,23,-1
 310 222 l 1,24,25
 202 206 202 206 202 156 c 0,26,27
 202 120 202 120 248 120 c 0,21,22
281 568 m 128,-1,29
 213 568 213 568 177 598 c 128,-1,30
 141 628 141 628 141 674 c 128,-1,31
 141 720 141 720 177 750 c 128,-1,32
 213 780 213 780 281 780 c 128,-1,33
 349 780 349 780 385 750 c 128,-1,34
 421 720 421 720 421 674 c 128,-1,35
 421 628 421 628 385 598 c 128,-1,28
 349 568 349 568 281 568 c 128,-1,29
281 630 m 128,-1,37
 297 630 297 630 308 642.5 c 128,-1,38
 319 655 319 655 319 674 c 128,-1,39
 319 693 319 693 308 705.5 c 128,-1,40
 297 718 297 718 281 718 c 128,-1,41
 265 718 265 718 254 705.5 c 128,-1,42
 243 693 243 693 243 674 c 128,-1,43
 243 655 243 655 254 642.5 c 128,-1,36
 265 630 265 630 281 630 c 128,-1,37
EndSplineSet
Validated: 1
Substitution2: "<3,3> Small Caps in Latin lookup 4 subtable" Aring.sc
EndChar

StartChar: ae
Encoding: 230 230 168
Width: 786
Flags: W
LayerCount: 2
Back
Fore
SplineSet
192 -12 m 0,0,1
 124 -12 124 -12 83 33 c 128,-1,2
 42 78 42 78 42 142 c 0,3,4
 42 221 42 221 106 265.5 c 128,-1,5
 170 310 170 310 312 325 c 1,6,7
 309 352 309 352 293 364 c 128,-1,8
 277 376 277 376 244 376 c 0,9,10
 196 376 196 376 118 334 c 1,11,-1
 58 446 l 1,12,13
 168 512 168 512 268 512 c 0,14,15
 355 512 355 512 406 448 c 1,16,17
 473 512 473 512 548 512 c 0,18,19
 646 512 646 512 698 442 c 128,-1,20
 750 372 750 372 750 266 c 0,21,22
 750 226 750 226 743 198 c 1,23,-1
 468 198 l 1,24,25
 487 122 487 122 574 122 c 0,26,27
 613 122 613 122 674 156 c 1,28,-1
 732 46 l 1,29,30
 650 -12 650 -12 550 -12 c 0,31,32
 449 -12 449 -12 380 60 c 1,33,34
 327 19 327 19 285 3.5 c 128,-1,35
 243 -12 243 -12 192 -12 c 0,0,1
252 120 m 0,36,37
 291 120 291 120 324 150 c 1,38,39
 315 177 315 177 312 203 c 2,40,-1
 310 222 l 1,41,42
 206 205 206 205 206 156 c 0,43,44
 206 120 206 120 252 120 c 0,36,37
468 302 m 1,45,-1
 604 302 l 1,46,47
 604 382 604 382 542 382 c 0,48,49
 479 382 479 382 468 302 c 1,45,-1
EndSplineSet
Validated: 1
Substitution2: "<3,3> Small Caps in Latin lookup 4 subtable" AE.sc
EndChar

StartChar: ccedilla
Encoding: 231 231 169
Width: 472
Flags: W
LayerCount: 2
Back
Fore
SplineSet
179 -244 m 1,0,-1
 167 -178 l 1,1,2
 224 -175 224 -175 245.5 -166 c 128,-1,3
 267 -157 267 -157 267 -136 c 0,4,5
 267 -106 267 -106 191 -96 c 1,6,-1
 235 -8 l 1,7,8
 144 7 144 7 88 75 c 128,-1,9
 32 143 32 143 32 250 c 0,10,11
 32 370 32 370 110 441 c 128,-1,12
 188 512 188 512 300 512 c 0,13,14
 384 512 384 512 446 460 c 1,15,-1
 366 350 l 1,16,17
 337 374 337 374 310 374 c 0,18,19
 262 374 262 374 235 340.5 c 128,-1,20
 208 307 208 307 208 250 c 0,21,22
 208 194 208 194 235.5 160 c 128,-1,23
 263 126 263 126 304 126 c 0,24,25
 341 126 341 126 384 158 c 1,26,-1
 450 46 l 1,27,28
 403 4 403 4 334 -8 c 1,29,-1
 311 -60 l 1,30,31
 389 -78 389 -78 389 -136 c 0,32,33
 389 -238 389 -238 179 -244 c 1,0,-1
EndSplineSet
Validated: 1
Substitution2: "<3,3> Small Caps in Latin lookup 4 subtable" Ccedilla.sc
EndChar

StartChar: egrave
Encoding: 232 232 170
Width: 526
Flags: W
LayerCount: 2
Back
Fore
SplineSet
290 -12 m 0,0,1
 177 -12 177 -12 104.5 58.5 c 128,-1,2
 32 129 32 129 32 250 c 0,3,4
 32 367 32 367 104 439.5 c 128,-1,5
 176 512 176 512 272 512 c 0,6,7
 378 512 378 512 434 444 c 128,-1,8
 490 376 490 376 490 270 c 0,9,10
 490 226 490 226 483 198 c 1,11,-1
 198 198 l 1,12,13
 219 118 219 118 314 118 c 0,14,15
 362 118 362 118 416 148 c 1,16,-1
 472 46 l 1,17,18
 390 -12 390 -12 290 -12 c 0,0,1
196 310 m 1,19,-1
 344 310 l 1,20,21
 344 382 344 382 276 382 c 0,22,23
 246 382 246 382 224.5 364 c 128,-1,24
 203 346 203 346 196 310 c 1,19,-1
252 572 m 1,25,-1
 62 730 l 1,26,-1
 178 844 l 1,27,-1
 336 656 l 1,28,-1
 252 572 l 1,25,-1
EndSplineSet
Validated: 1
Substitution2: "<10,1> Superiors in Latin lookup 14 subtable" egrave.sups
Substitution2: "<3,3> Small Caps in Latin lookup 4 subtable" Egrave.sc
EndChar

StartChar: eacute
Encoding: 233 233 171
Width: 526
Flags: W
LayerCount: 2
Back
Fore
SplineSet
290 -12 m 0,0,1
 177 -12 177 -12 104.5 58.5 c 128,-1,2
 32 129 32 129 32 250 c 0,3,4
 32 367 32 367 104 439.5 c 128,-1,5
 176 512 176 512 272 512 c 0,6,7
 378 512 378 512 434 444 c 128,-1,8
 490 376 490 376 490 270 c 0,9,10
 490 226 490 226 483 198 c 1,11,-1
 198 198 l 1,12,13
 219 118 219 118 314 118 c 0,14,15
 362 118 362 118 416 148 c 1,16,-1
 472 46 l 1,17,18
 390 -12 390 -12 290 -12 c 0,0,1
196 310 m 1,19,-1
 344 310 l 1,20,21
 344 382 344 382 276 382 c 0,22,23
 246 382 246 382 224.5 364 c 128,-1,24
 203 346 203 346 196 310 c 1,19,-1
292 572 m 1,25,-1
 208 656 l 1,26,-1
 366 844 l 1,27,-1
 482 730 l 1,28,-1
 292 572 l 1,25,-1
EndSplineSet
Validated: 1
Substitution2: "<10,1> Superiors in Latin lookup 14 subtable" eacute.sups
Substitution2: "<3,3> Small Caps in Latin lookup 4 subtable" Eacute.sc
EndChar

StartChar: ecircumflex
Encoding: 234 234 172
Width: 526
Flags: W
LayerCount: 2
Back
Fore
SplineSet
290 -12 m 0,0,1
 177 -12 177 -12 104.5 58.5 c 128,-1,2
 32 129 32 129 32 250 c 0,3,4
 32 367 32 367 104 439.5 c 128,-1,5
 176 512 176 512 272 512 c 0,6,7
 378 512 378 512 434 444 c 128,-1,8
 490 376 490 376 490 270 c 0,9,10
 490 226 490 226 483 198 c 1,11,-1
 198 198 l 1,12,13
 219 118 219 118 314 118 c 0,14,15
 362 118 362 118 416 148 c 1,16,-1
 472 46 l 1,17,18
 390 -12 390 -12 290 -12 c 0,0,1
196 310 m 1,19,-1
 344 310 l 1,20,21
 344 382 344 382 276 382 c 0,22,23
 246 382 246 382 224.5 364 c 128,-1,24
 203 346 203 346 196 310 c 1,19,-1
78 618 m 1,25,-1
 184 746 l 1,26,-1
 360 746 l 1,27,-1
 466 618 l 1,28,-1
 402 558 l 1,29,-1
 274 642 l 1,30,-1
 270 642 l 1,31,-1
 142 558 l 1,32,-1
 78 618 l 1,25,-1
EndSplineSet
Validated: 1
Substitution2: "<3,3> Small Caps in Latin lookup 4 subtable" Ecircumflex.sc
EndChar

StartChar: edieresis
Encoding: 235 235 173
Width: 526
Flags: W
LayerCount: 2
Back
Fore
SplineSet
290 -12 m 0,0,1
 177 -12 177 -12 104.5 58.5 c 128,-1,2
 32 129 32 129 32 250 c 0,3,4
 32 367 32 367 104 439.5 c 128,-1,5
 176 512 176 512 272 512 c 0,6,7
 378 512 378 512 434 444 c 128,-1,8
 490 376 490 376 490 270 c 0,9,10
 490 226 490 226 483 198 c 1,11,-1
 198 198 l 1,12,13
 219 118 219 118 314 118 c 0,14,15
 362 118 362 118 416 148 c 1,16,-1
 472 46 l 1,17,18
 390 -12 390 -12 290 -12 c 0,0,1
196 310 m 1,19,-1
 344 310 l 1,20,21
 344 382 344 382 276 382 c 0,22,23
 246 382 246 382 224.5 364 c 128,-1,24
 203 346 203 346 196 310 c 1,19,-1
158 562 m 128,-1,26
 123 562 123 562 100.5 585 c 128,-1,27
 78 608 78 608 78 642 c 128,-1,28
 78 676 78 676 100.5 699 c 128,-1,29
 123 722 123 722 158 722 c 128,-1,30
 193 722 193 722 215.5 699 c 128,-1,31
 238 676 238 676 238 642 c 128,-1,32
 238 608 238 608 215.5 585 c 128,-1,25
 193 562 193 562 158 562 c 128,-1,26
386 562 m 128,-1,34
 351 562 351 562 328.5 585 c 128,-1,35
 306 608 306 608 306 642 c 128,-1,36
 306 676 306 676 328.5 699 c 128,-1,37
 351 722 351 722 386 722 c 128,-1,38
 421 722 421 722 443.5 699 c 128,-1,39
 466 676 466 676 466 642 c 128,-1,40
 466 608 466 608 443.5 585 c 128,-1,33
 421 562 421 562 386 562 c 128,-1,34
EndSplineSet
Validated: 1
Substitution2: "<3,3> Small Caps in Latin lookup 4 subtable" Edieresis.sc
EndChar

StartChar: igrave
Encoding: 236 236 174
Width: 288
Flags: W
LayerCount: 2
Back
Fore
SplineSet
58 0 m 1,0,-1
 58 500 l 1,1,-1
 230 500 l 1,2,-1
 230 0 l 1,3,-1
 58 0 l 1,0,-1
124 572 m 1,4,-1
 -66 730 l 1,5,-1
 50 844 l 1,6,-1
 208 656 l 1,7,-1
 124 572 l 1,4,-1
EndSplineSet
Validated: 1
Substitution2: "<3,3> Small Caps in Latin lookup 4 subtable" Igrave.sc
EndChar

StartChar: iacute
Encoding: 237 237 175
Width: 288
Flags: W
LayerCount: 2
Back
Fore
SplineSet
58 0 m 1,0,-1
 58 500 l 1,1,-1
 230 500 l 1,2,-1
 230 0 l 1,3,-1
 58 0 l 1,0,-1
164 572 m 1,4,-1
 80 656 l 1,5,-1
 238 844 l 1,6,-1
 354 730 l 1,7,-1
 164 572 l 1,4,-1
EndSplineSet
Validated: 1
Substitution2: "<3,3> Small Caps in Latin lookup 4 subtable" Iacute.sc
EndChar

StartChar: icircumflex
Encoding: 238 238 176
Width: 288
Flags: W
LayerCount: 2
Back
Fore
SplineSet
58 0 m 1,0,-1
 58 500 l 1,1,-1
 230 500 l 1,2,-1
 230 0 l 1,3,-1
 58 0 l 1,0,-1
-50 618 m 1,4,-1
 56 746 l 1,5,-1
 232 746 l 1,6,-1
 338 618 l 1,7,-1
 274 558 l 1,8,-1
 146 642 l 1,9,-1
 142 642 l 1,10,-1
 14 558 l 1,11,-1
 -50 618 l 1,4,-1
EndSplineSet
Validated: 1
Substitution2: "<3,3> Small Caps in Latin lookup 4 subtable" Icircumflex.sc
EndChar

StartChar: idieresis
Encoding: 239 239 177
Width: 288
Flags: W
LayerCount: 2
Back
Fore
SplineSet
58 0 m 1,0,-1
 58 500 l 1,1,-1
 230 500 l 1,2,-1
 230 0 l 1,3,-1
 58 0 l 1,0,-1
30 562 m 128,-1,5
 -5 562 -5 562 -27.5 585 c 128,-1,6
 -50 608 -50 608 -50 642 c 128,-1,7
 -50 676 -50 676 -27.5 699 c 128,-1,8
 -5 722 -5 722 30 722 c 128,-1,9
 65 722 65 722 87.5 699 c 128,-1,10
 110 676 110 676 110 642 c 128,-1,11
 110 608 110 608 87.5 585 c 128,-1,4
 65 562 65 562 30 562 c 128,-1,5
258 562 m 128,-1,13
 223 562 223 562 200.5 585 c 128,-1,14
 178 608 178 608 178 642 c 128,-1,15
 178 676 178 676 200.5 699 c 128,-1,16
 223 722 223 722 258 722 c 128,-1,17
 293 722 293 722 315.5 699 c 128,-1,18
 338 676 338 676 338 642 c 128,-1,19
 338 608 338 608 315.5 585 c 128,-1,12
 293 562 293 562 258 562 c 128,-1,13
EndSplineSet
Validated: 1
Substitution2: "<3,3> Small Caps in Latin lookup 4 subtable" Idieresis.sc
EndChar

StartChar: eth
Encoding: 240 240 178
Width: 566
Flags: W
LayerCount: 2
Back
Fore
SplineSet
274 -12 m 0,0,1
 175 -12 175 -12 106.5 55 c 128,-1,2
 38 122 38 122 38 230 c 0,3,4
 38 334 38 334 99 396 c 128,-1,5
 160 458 160 458 240 458 c 0,6,7
 298 458 298 458 332 427 c 1,8,9
 307 488 307 488 258 536 c 1,10,-1
 116 465 l 1,11,-1
 72 539 l 1,12,-1
 183 595 l 1,13,14
 149 616 149 616 103 640 c 1,15,-1
 177 744 l 1,16,17
 257 703 257 703 315 661 c 1,18,-1
 458 733 l 1,19,-1
 502 658 l 1,20,-1
 386 600 l 1,21,22
 520 464 520 464 520 270 c 0,23,24
 520 146 520 146 453.5 67 c 128,-1,25
 387 -12 387 -12 274 -12 c 0,0,1
280 126 m 0,26,27
 316 126 316 126 338 158.5 c 128,-1,28
 360 191 360 191 360 260 c 0,29,30
 360 287 360 287 359 299 c 1,31,32
 326 332 326 332 277 332 c 0,33,34
 194 332 194 332 194 230 c 0,35,36
 194 180 194 180 218.5 153 c 128,-1,37
 243 126 243 126 280 126 c 0,26,27
EndSplineSet
Validated: 1
Substitution2: "<3,3> Small Caps in Latin lookup 4 subtable" Eth.sc
EndChar

StartChar: ntilde
Encoding: 241 241 179
Width: 582
Flags: W
LayerCount: 2
Back
Fore
SplineSet
58 0 m 1,0,-1
 58 500 l 1,1,-1
 198 500 l 1,2,-1
 210 440 l 1,3,-1
 214 440 l 1,4,5
 290 512 290 512 372 512 c 0,6,7
 528 512 528 512 528 308 c 2,8,-1
 528 0 l 1,9,-1
 356 0 l 1,10,-1
 356 286 l 2,11,12
 356 332 356 332 344.5 349 c 128,-1,13
 333 366 333 366 306 366 c 0,14,15
 271 366 271 366 230 328 c 1,16,-1
 230 0 l 1,17,-1
 58 0 l 1,0,-1
378 572 m 0,18,19
 344 572 344 572 303.5 600 c 128,-1,20
 263 628 263 628 254 628 c 0,21,22
 229 628 229 628 224 582 c 1,23,-1
 118 588 l 1,24,25
 121 746 121 746 250 746 c 0,26,27
 284 746 284 746 324.5 718 c 128,-1,28
 365 690 365 690 374 690 c 0,29,30
 399 690 399 690 404 736 c 1,31,-1
 510 730 l 1,32,33
 507 572 507 572 378 572 c 0,18,19
EndSplineSet
Validated: 1
Substitution2: "<3,3> Small Caps in Latin lookup 4 subtable" Ntilde.sc
EndChar

StartChar: ograve
Encoding: 242 242 180
Width: 560
Flags: W
LayerCount: 2
Back
Fore
SplineSet
280 -12 m 128,-1,1
 179 -12 179 -12 105.5 59.5 c 128,-1,2
 32 131 32 131 32 250 c 128,-1,3
 32 369 32 369 105.5 440.5 c 128,-1,4
 179 512 179 512 280 512 c 128,-1,5
 381 512 381 512 454.5 440.5 c 128,-1,6
 528 369 528 369 528 250 c 128,-1,7
 528 131 528 131 454.5 59.5 c 128,-1,0
 381 -12 381 -12 280 -12 c 128,-1,1
280 126 m 128,-1,9
 352 126 352 126 352 250 c 128,-1,10
 352 374 352 374 280 374 c 128,-1,11
 208 374 208 374 208 250 c 128,-1,8
 208 126 208 126 280 126 c 128,-1,9
260 572 m 1,12,-1
 70 730 l 1,13,-1
 186 844 l 1,14,-1
 344 656 l 1,15,-1
 260 572 l 1,12,-1
EndSplineSet
Validated: 1
Substitution2: "<3,3> Small Caps in Latin lookup 4 subtable" Ograve.sc
EndChar

StartChar: oacute
Encoding: 243 243 181
Width: 560
Flags: W
LayerCount: 2
Back
Fore
SplineSet
280 -12 m 128,-1,1
 179 -12 179 -12 105.5 59.5 c 128,-1,2
 32 131 32 131 32 250 c 128,-1,3
 32 369 32 369 105.5 440.5 c 128,-1,4
 179 512 179 512 280 512 c 128,-1,5
 381 512 381 512 454.5 440.5 c 128,-1,6
 528 369 528 369 528 250 c 128,-1,7
 528 131 528 131 454.5 59.5 c 128,-1,0
 381 -12 381 -12 280 -12 c 128,-1,1
280 126 m 128,-1,9
 352 126 352 126 352 250 c 128,-1,10
 352 374 352 374 280 374 c 128,-1,11
 208 374 208 374 208 250 c 128,-1,8
 208 126 208 126 280 126 c 128,-1,9
300 572 m 1,12,-1
 216 656 l 1,13,-1
 374 844 l 1,14,-1
 490 730 l 1,15,-1
 300 572 l 1,12,-1
EndSplineSet
Validated: 1
Substitution2: "<3,3> Small Caps in Latin lookup 4 subtable" Oacute.sc
EndChar

StartChar: ocircumflex
Encoding: 244 244 182
Width: 560
Flags: W
LayerCount: 2
Back
Fore
SplineSet
280 -12 m 128,-1,1
 179 -12 179 -12 105.5 59.5 c 128,-1,2
 32 131 32 131 32 250 c 128,-1,3
 32 369 32 369 105.5 440.5 c 128,-1,4
 179 512 179 512 280 512 c 128,-1,5
 381 512 381 512 454.5 440.5 c 128,-1,6
 528 369 528 369 528 250 c 128,-1,7
 528 131 528 131 454.5 59.5 c 128,-1,0
 381 -12 381 -12 280 -12 c 128,-1,1
280 126 m 128,-1,9
 352 126 352 126 352 250 c 128,-1,10
 352 374 352 374 280 374 c 128,-1,11
 208 374 208 374 208 250 c 128,-1,8
 208 126 208 126 280 126 c 128,-1,9
86 618 m 1,12,-1
 192 746 l 1,13,-1
 368 746 l 1,14,-1
 474 618 l 1,15,-1
 410 558 l 1,16,-1
 282 642 l 1,17,-1
 278 642 l 1,18,-1
 150 558 l 1,19,-1
 86 618 l 1,12,-1
EndSplineSet
Validated: 1
Substitution2: "<3,3> Small Caps in Latin lookup 4 subtable" Ocircumflex.sc
EndChar

StartChar: otilde
Encoding: 245 245 183
Width: 560
Flags: W
LayerCount: 2
Back
Fore
SplineSet
280 -12 m 128,-1,1
 179 -12 179 -12 105.5 59.5 c 128,-1,2
 32 131 32 131 32 250 c 128,-1,3
 32 369 32 369 105.5 440.5 c 128,-1,4
 179 512 179 512 280 512 c 128,-1,5
 381 512 381 512 454.5 440.5 c 128,-1,6
 528 369 528 369 528 250 c 128,-1,7
 528 131 528 131 454.5 59.5 c 128,-1,0
 381 -12 381 -12 280 -12 c 128,-1,1
280 126 m 128,-1,9
 352 126 352 126 352 250 c 128,-1,10
 352 374 352 374 280 374 c 128,-1,11
 208 374 208 374 208 250 c 128,-1,8
 208 126 208 126 280 126 c 128,-1,9
344 572 m 0,12,13
 310 572 310 572 269.5 600 c 128,-1,14
 229 628 229 628 220 628 c 0,15,16
 195 628 195 628 190 582 c 1,17,-1
 84 588 l 1,18,19
 87 746 87 746 216 746 c 0,20,21
 250 746 250 746 290.5 718 c 128,-1,22
 331 690 331 690 340 690 c 0,23,24
 365 690 365 690 370 736 c 1,25,-1
 476 730 l 1,26,27
 473 572 473 572 344 572 c 0,12,13
EndSplineSet
Validated: 1
Substitution2: "<3,3> Small Caps in Latin lookup 4 subtable" Otilde.sc
EndChar

StartChar: odieresis
Encoding: 246 246 184
Width: 560
Flags: W
LayerCount: 2
Back
Fore
SplineSet
280 -12 m 128,-1,1
 179 -12 179 -12 105.5 59.5 c 128,-1,2
 32 131 32 131 32 250 c 128,-1,3
 32 369 32 369 105.5 440.5 c 128,-1,4
 179 512 179 512 280 512 c 128,-1,5
 381 512 381 512 454.5 440.5 c 128,-1,6
 528 369 528 369 528 250 c 128,-1,7
 528 131 528 131 454.5 59.5 c 128,-1,0
 381 -12 381 -12 280 -12 c 128,-1,1
280 126 m 128,-1,9
 352 126 352 126 352 250 c 128,-1,10
 352 374 352 374 280 374 c 128,-1,11
 208 374 208 374 208 250 c 128,-1,8
 208 126 208 126 280 126 c 128,-1,9
166 562 m 128,-1,13
 131 562 131 562 108.5 585 c 128,-1,14
 86 608 86 608 86 642 c 128,-1,15
 86 676 86 676 108.5 699 c 128,-1,16
 131 722 131 722 166 722 c 128,-1,17
 201 722 201 722 223.5 699 c 128,-1,18
 246 676 246 676 246 642 c 128,-1,19
 246 608 246 608 223.5 585 c 128,-1,12
 201 562 201 562 166 562 c 128,-1,13
394 562 m 128,-1,21
 359 562 359 562 336.5 585 c 128,-1,22
 314 608 314 608 314 642 c 128,-1,23
 314 676 314 676 336.5 699 c 128,-1,24
 359 722 359 722 394 722 c 128,-1,25
 429 722 429 722 451.5 699 c 128,-1,26
 474 676 474 676 474 642 c 128,-1,27
 474 608 474 608 451.5 585 c 128,-1,20
 429 562 429 562 394 562 c 128,-1,21
EndSplineSet
Validated: 1
Substitution2: "<3,3> Small Caps in Latin lookup 4 subtable" Odieresis.sc
EndChar

StartChar: divide
Encoding: 247 247 185
Width: 540
Flags: W
LayerCount: 2
Back
Fore
SplineSet
34 270 m 1,0,-1
 34 390 l 1,1,-1
 506 390 l 1,2,-1
 506 270 l 1,3,-1
 34 270 l 1,0,-1
270 64 m 128,-1,5
 231 64 231 64 204.5 88.5 c 128,-1,6
 178 113 178 113 178 150 c 128,-1,7
 178 187 178 187 204.5 211.5 c 128,-1,8
 231 236 231 236 270 236 c 128,-1,9
 309 236 309 236 335.5 211.5 c 128,-1,10
 362 187 362 187 362 150 c 128,-1,11
 362 113 362 113 335.5 88.5 c 128,-1,4
 309 64 309 64 270 64 c 128,-1,5
270 424 m 128,-1,13
 231 424 231 424 204.5 448.5 c 128,-1,14
 178 473 178 473 178 510 c 128,-1,15
 178 547 178 547 204.5 571.5 c 128,-1,16
 231 596 231 596 270 596 c 128,-1,17
 309 596 309 596 335.5 571.5 c 128,-1,18
 362 547 362 547 362 510 c 128,-1,19
 362 473 362 473 335.5 448.5 c 128,-1,12
 309 424 309 424 270 424 c 128,-1,13
EndSplineSet
Validated: 1
EndChar

StartChar: oslash
Encoding: 248 248 186
Width: 560
Flags: W
LayerCount: 2
Back
Fore
SplineSet
280 -12 m 0,0,1
 209 -12 209 -12 149 25 c 1,2,-1
 108 -26 l 1,3,-1
 46 22 l 1,4,-1
 90 77 l 1,5,6
 32 146 32 146 32 250 c 0,7,8
 32 369 32 369 105.5 440.5 c 128,-1,9
 179 512 179 512 280 512 c 0,10,11
 352 512 352 512 410 476 c 1,12,-1
 452 528 l 1,13,-1
 514 480 l 1,14,-1
 469 424 l 1,15,16
 528 354 528 354 528 250 c 0,17,18
 528 131 528 131 454.5 59.5 c 128,-1,19
 381 -12 381 -12 280 -12 c 0,0,1
198 260 m 0,20,21
 198 241 198 241 200 215 c 1,22,-1
 323 367 l 1,23,24
 306 380 306 380 280 380 c 0,25,26
 242 380 242 380 220 347.5 c 128,-1,27
 198 315 198 315 198 260 c 0,20,21
280 120 m 0,28,29
 318 120 318 120 340 152.5 c 128,-1,30
 362 185 362 185 362 240 c 0,31,32
 362 266 362 266 359 287 c 1,33,-1
 236 134 l 1,34,35
 253 120 253 120 280 120 c 0,28,29
EndSplineSet
Validated: 1
Substitution2: "<3,3> Small Caps in Latin lookup 4 subtable" Oslash.sc
EndChar

StartChar: ugrave
Encoding: 249 249 187
Width: 578
Flags: W
LayerCount: 2
Back
Fore
SplineSet
210 -12 m 0,0,1
 54 -12 54 -12 54 192 c 2,2,-1
 54 500 l 1,3,-1
 226 500 l 1,4,-1
 226 214 l 2,5,6
 226 168 226 168 237.5 151 c 128,-1,7
 249 134 249 134 276 134 c 0,8,9
 318 134 318 134 348 178 c 1,10,-1
 348 500 l 1,11,-1
 520 500 l 1,12,-1
 520 0 l 1,13,-1
 380 0 l 1,14,-1
 368 66 l 1,15,-1
 364 66 l 1,16,17
 299 -12 299 -12 210 -12 c 0,0,1
270 572 m 1,18,-1
 80 730 l 1,19,-1
 196 844 l 1,20,-1
 354 656 l 1,21,-1
 270 572 l 1,18,-1
EndSplineSet
Validated: 1
Substitution2: "<3,3> Small Caps in Latin lookup 4 subtable" Ugrave.sc
EndChar

StartChar: uacute
Encoding: 250 250 188
Width: 578
Flags: W
LayerCount: 2
Back
Fore
SplineSet
210 -12 m 0,0,1
 54 -12 54 -12 54 192 c 2,2,-1
 54 500 l 1,3,-1
 226 500 l 1,4,-1
 226 214 l 2,5,6
 226 168 226 168 237.5 151 c 128,-1,7
 249 134 249 134 276 134 c 0,8,9
 318 134 318 134 348 178 c 1,10,-1
 348 500 l 1,11,-1
 520 500 l 1,12,-1
 520 0 l 1,13,-1
 380 0 l 1,14,-1
 368 66 l 1,15,-1
 364 66 l 1,16,17
 299 -12 299 -12 210 -12 c 0,0,1
310 572 m 1,18,-1
 226 656 l 1,19,-1
 384 844 l 1,20,-1
 500 730 l 1,21,-1
 310 572 l 1,18,-1
EndSplineSet
Validated: 1
Substitution2: "<3,3> Small Caps in Latin lookup 4 subtable" Uacute.sc
EndChar

StartChar: ucircumflex
Encoding: 251 251 189
Width: 578
Flags: W
LayerCount: 2
Back
Fore
SplineSet
210 -12 m 0,0,1
 54 -12 54 -12 54 192 c 2,2,-1
 54 500 l 1,3,-1
 226 500 l 1,4,-1
 226 214 l 2,5,6
 226 168 226 168 237.5 151 c 128,-1,7
 249 134 249 134 276 134 c 0,8,9
 318 134 318 134 348 178 c 1,10,-1
 348 500 l 1,11,-1
 520 500 l 1,12,-1
 520 0 l 1,13,-1
 380 0 l 1,14,-1
 368 66 l 1,15,-1
 364 66 l 1,16,17
 299 -12 299 -12 210 -12 c 0,0,1
96 618 m 1,18,-1
 202 746 l 1,19,-1
 378 746 l 1,20,-1
 484 618 l 1,21,-1
 420 558 l 1,22,-1
 292 642 l 1,23,-1
 288 642 l 1,24,-1
 160 558 l 1,25,-1
 96 618 l 1,18,-1
EndSplineSet
Validated: 1
Substitution2: "<3,3> Small Caps in Latin lookup 4 subtable" Ucircumflex.sc
EndChar

StartChar: udieresis
Encoding: 252 252 190
Width: 578
Flags: W
LayerCount: 2
Back
Fore
SplineSet
210 -12 m 0,0,1
 54 -12 54 -12 54 192 c 2,2,-1
 54 500 l 1,3,-1
 226 500 l 1,4,-1
 226 214 l 2,5,6
 226 168 226 168 237.5 151 c 128,-1,7
 249 134 249 134 276 134 c 0,8,9
 318 134 318 134 348 178 c 1,10,-1
 348 500 l 1,11,-1
 520 500 l 1,12,-1
 520 0 l 1,13,-1
 380 0 l 1,14,-1
 368 66 l 1,15,-1
 364 66 l 1,16,17
 299 -12 299 -12 210 -12 c 0,0,1
176 562 m 128,-1,19
 141 562 141 562 118.5 585 c 128,-1,20
 96 608 96 608 96 642 c 128,-1,21
 96 676 96 676 118.5 699 c 128,-1,22
 141 722 141 722 176 722 c 128,-1,23
 211 722 211 722 233.5 699 c 128,-1,24
 256 676 256 676 256 642 c 128,-1,25
 256 608 256 608 233.5 585 c 128,-1,18
 211 562 211 562 176 562 c 128,-1,19
404 562 m 128,-1,27
 369 562 369 562 346.5 585 c 128,-1,28
 324 608 324 608 324 642 c 128,-1,29
 324 676 324 676 346.5 699 c 128,-1,30
 369 722 369 722 404 722 c 128,-1,31
 439 722 439 722 461.5 699 c 128,-1,32
 484 676 484 676 484 642 c 128,-1,33
 484 608 484 608 461.5 585 c 128,-1,26
 439 562 439 562 404 562 c 128,-1,27
EndSplineSet
Validated: 1
Substitution2: "<3,3> Small Caps in Latin lookup 4 subtable" Udieresis.sc
EndChar

StartChar: yacute
Encoding: 253 253 191
Width: 542
Flags: W
LayerCount: 2
Back
Fore
SplineSet
132 -188 m 0,0,1
 93 -188 93 -188 56 -178 c 1,2,-1
 86 -48 l 1,3,4
 113 -54 113 -54 118 -54 c 0,5,6
 179 -54 179 -54 196 -4 c 2,7,-1
 202 18 l 1,8,-1
 12 500 l 1,9,-1
 184 500 l 1,10,-1
 244 308 l 2,11,12
 253 278 253 278 280 166 c 1,13,-1
 284 166 l 1,14,15
 302 250 302 250 316 308 c 2,16,-1
 366 500 l 1,17,-1
 530 500 l 1,18,-1
 362 8 l 1,19,20
 321 -98 321 -98 271.5 -143 c 128,-1,21
 222 -188 222 -188 132 -188 c 0,0,1
296 572 m 1,22,-1
 212 656 l 1,23,-1
 370 844 l 1,24,-1
 486 730 l 1,25,-1
 296 572 l 1,22,-1
EndSplineSet
Validated: 1
Substitution2: "<3,3> Small Caps in Latin lookup 4 subtable" Yacute.sc
EndChar

StartChar: thorn
Encoding: 254 254 192
Width: 580
Flags: W
LayerCount: 2
Back
Fore
SplineSet
58 -176 m 1,0,-1
 58 696 l 1,1,-1
 230 696 l 1,2,-1
 230 533 l 1,3,-1
 226 468 l 1,4,5
 275 512 275 512 340 512 c 0,6,7
 433 512 433 512 488.5 443 c 128,-1,8
 544 374 544 374 544 258 c 0,9,10
 544 135 544 135 482 61.5 c 128,-1,11
 420 -12 420 -12 336 -12 c 0,12,13
 273 -12 273 -12 226 32 c 1,14,-1
 230 -38 l 1,15,-1
 230 -176 l 1,16,-1
 58 -176 l 1,0,-1
294 128 m 0,17,18
 368 128 368 128 368 256 c 0,19,20
 368 372 368 372 298 372 c 0,21,22
 260 372 260 372 230 336 c 1,23,-1
 230 152 l 1,24,25
 257 128 257 128 294 128 c 0,17,18
EndSplineSet
Validated: 1
Substitution2: "<3,3> Small Caps in Latin lookup 4 subtable" Thorn.sc
EndChar

StartChar: ydieresis
Encoding: 255 255 193
Width: 542
Flags: W
LayerCount: 2
Back
Fore
SplineSet
132 -188 m 0,0,1
 93 -188 93 -188 56 -178 c 1,2,-1
 86 -48 l 1,3,4
 113 -54 113 -54 118 -54 c 0,5,6
 179 -54 179 -54 196 -4 c 2,7,-1
 202 18 l 1,8,-1
 12 500 l 1,9,-1
 184 500 l 1,10,-1
 244 308 l 2,11,12
 253 278 253 278 280 166 c 1,13,-1
 284 166 l 1,14,15
 302 250 302 250 316 308 c 2,16,-1
 366 500 l 1,17,-1
 530 500 l 1,18,-1
 362 8 l 1,19,20
 321 -98 321 -98 271.5 -143 c 128,-1,21
 222 -188 222 -188 132 -188 c 0,0,1
162 562 m 128,-1,23
 127 562 127 562 104.5 585 c 128,-1,24
 82 608 82 608 82 642 c 128,-1,25
 82 676 82 676 104.5 699 c 128,-1,26
 127 722 127 722 162 722 c 128,-1,27
 197 722 197 722 219.5 699 c 128,-1,28
 242 676 242 676 242 642 c 128,-1,29
 242 608 242 608 219.5 585 c 128,-1,22
 197 562 197 562 162 562 c 128,-1,23
390 562 m 128,-1,31
 355 562 355 562 332.5 585 c 128,-1,32
 310 608 310 608 310 642 c 128,-1,33
 310 676 310 676 332.5 699 c 128,-1,34
 355 722 355 722 390 722 c 128,-1,35
 425 722 425 722 447.5 699 c 128,-1,36
 470 676 470 676 470 642 c 128,-1,37
 470 608 470 608 447.5 585 c 128,-1,30
 425 562 425 562 390 562 c 128,-1,31
EndSplineSet
Validated: 1
Substitution2: "<3,3> Small Caps in Latin lookup 4 subtable" Ydieresis.sc
EndChar

StartChar: Amacron
Encoding: 256 256 194
Width: 584
Flags: W
LayerCount: 2
Back
Fore
SplineSet
240 316 m 2,0,-1
 229 271 l 1,1,-1
 349 271 l 1,2,-1
 338 316 l 2,3,4
 329 350 329 350 313 421.5 c 128,-1,5
 297 493 297 493 290 522 c 1,6,-1
 286 522 l 1,7,8
 253 366 253 366 240 316 c 2,0,-1
-10 0 m 1,9,-1
 188 650 l 1,10,-1
 396 650 l 1,11,-1
 594 0 l 1,12,-1
 412 0 l 1,13,-1
 380 138 l 1,14,-1
 198 138 l 1,15,-1
 166 0 l 1,16,-1
 -10 0 l 1,9,-1
130 716 m 1,17,-1
 130 824 l 1,18,-1
 446 824 l 1,19,-1
 446 716 l 1,20,-1
 130 716 l 1,17,-1
EndSplineSet
Validated: 1
EndChar

StartChar: amacron
Encoding: 257 257 195
Width: 536
Flags: W
LayerCount: 2
Back
Fore
SplineSet
188 -12 m 0,0,1
 120 -12 120 -12 79 33 c 128,-1,2
 38 78 38 78 38 142 c 0,3,4
 38 221 38 221 102.5 265 c 128,-1,5
 167 309 167 309 310 324 c 1,6,7
 304 376 304 376 240 376 c 0,8,9
 192 376 192 376 114 334 c 1,10,-1
 54 446 l 1,11,12
 164 512 164 512 274 512 c 0,13,14
 482 512 482 512 482 278 c 2,15,-1
 482 0 l 1,16,-1
 342 0 l 1,17,-1
 330 48 l 1,18,-1
 326 48 l 1,19,20
 259 -12 259 -12 188 -12 c 0,0,1
248 120 m 0,21,22
 279 120 279 120 310 154 c 1,23,-1
 310 222 l 1,24,25
 202 206 202 206 202 156 c 0,26,27
 202 120 202 120 248 120 c 0,21,22
127 588 m 1,28,-1
 127 696 l 1,29,-1
 435 696 l 1,30,-1
 435 588 l 1,31,-1
 127 588 l 1,28,-1
EndSplineSet
Validated: 1
Substitution2: "<3,3> Small Caps in Latin lookup 4 subtable" Amacron.sc
EndChar

StartChar: Abreve
Encoding: 258 258 196
Width: 584
Flags: W
LayerCount: 2
Back
Fore
SplineSet
240 316 m 2,0,-1
 229 271 l 1,1,-1
 349 271 l 1,2,-1
 338 316 l 2,3,4
 329 350 329 350 313 421.5 c 128,-1,5
 297 493 297 493 290 522 c 1,6,-1
 286 522 l 1,7,8
 253 366 253 366 240 316 c 2,0,-1
-10 0 m 1,9,-1
 188 650 l 1,10,-1
 396 650 l 1,11,-1
 594 0 l 1,12,-1
 412 0 l 1,13,-1
 380 138 l 1,14,-1
 198 138 l 1,15,-1
 166 0 l 1,16,-1
 -10 0 l 1,9,-1
288 694 m 128,-1,18
 133 694 133 694 118 834 c 1,19,-1
 210 850 l 1,20,21
 223 792 223 792 288 792 c 128,-1,22
 353 792 353 792 366 850 c 1,23,-1
 458 834 l 1,24,17
 443 694 443 694 288 694 c 128,-1,18
EndSplineSet
Validated: 1
EndChar

StartChar: abreve
Encoding: 259 259 197
Width: 536
Flags: W
LayerCount: 2
Back
Fore
SplineSet
188 -12 m 0,0,1
 120 -12 120 -12 79 33 c 128,-1,2
 38 78 38 78 38 142 c 0,3,4
 38 221 38 221 102.5 265 c 128,-1,5
 167 309 167 309 310 324 c 1,6,7
 304 376 304 376 240 376 c 0,8,9
 192 376 192 376 114 334 c 1,10,-1
 54 446 l 1,11,12
 164 512 164 512 274 512 c 0,13,14
 482 512 482 512 482 278 c 2,15,-1
 482 0 l 1,16,-1
 342 0 l 1,17,-1
 330 48 l 1,18,-1
 326 48 l 1,19,20
 259 -12 259 -12 188 -12 c 0,0,1
248 120 m 0,21,22
 279 120 279 120 310 154 c 1,23,-1
 310 222 l 1,24,25
 202 206 202 206 202 156 c 0,26,27
 202 120 202 120 248 120 c 0,21,22
281 572 m 128,-1,29
 196 572 196 572 152.5 615.5 c 128,-1,30
 109 659 109 659 107 732 c 1,31,-1
 203 748 l 1,32,33
 214 678 214 678 281 678 c 128,-1,34
 348 678 348 678 359 748 c 1,35,-1
 455 732 l 1,36,37
 453 658 453 658 409.5 615 c 128,-1,28
 366 572 366 572 281 572 c 128,-1,29
EndSplineSet
Validated: 1
Substitution2: "<3,3> Small Caps in Latin lookup 4 subtable" Abreve.sc
EndChar

StartChar: Aogonek
Encoding: 260 260 198
Width: 584
Flags: W
LayerCount: 2
Back
Fore
SplineSet
498 -228 m 0,0,1
 445 -228 445 -228 410.5 -201.5 c 128,-1,2
 376 -175 376 -175 376 -130 c 0,3,4
 376 -86 376 -86 403 -51 c 128,-1,5
 430 -16 430 -16 460 0 c 1,6,-1
 412 0 l 1,7,-1
 380 138 l 1,8,-1
 198 138 l 1,9,-1
 166 0 l 1,10,-1
 -10 0 l 1,11,-1
 188 650 l 1,12,-1
 396 650 l 1,13,-1
 594 0 l 1,14,15
 553 0 553 0 526.5 -26 c 128,-1,16
 500 -52 500 -52 500 -84 c 0,17,18
 500 -100 500 -100 510 -109 c 128,-1,19
 520 -118 520 -118 536 -118 c 0,20,21
 556 -118 556 -118 574 -104 c 1,22,-1
 612 -190 l 1,23,24
 591 -207 591 -207 558.5 -217.5 c 128,-1,25
 526 -228 526 -228 498 -228 c 0,0,1
240 316 m 2,26,-1
 229 271 l 1,27,-1
 349 271 l 1,28,-1
 338 316 l 2,29,30
 329 350 329 350 313 421.5 c 128,-1,31
 297 493 297 493 290 522 c 1,32,-1
 286 522 l 1,33,34
 253 366 253 366 240 316 c 2,26,-1
EndSplineSet
Validated: 1
EndChar

StartChar: aogonek
Encoding: 261 261 199
Width: 536
Flags: W
LayerCount: 2
Back
Fore
SplineSet
392 -212 m 0,0,1
 343 -212 343 -212 311.5 -187.5 c 128,-1,2
 280 -163 280 -163 280 -118 c 0,3,4
 280 -49 280 -49 344 -4 c 1,5,-1
 330 48 l 1,6,-1
 326 48 l 1,7,8
 259 -12 259 -12 188 -12 c 0,9,10
 120 -12 120 -12 79 33 c 128,-1,11
 38 78 38 78 38 142 c 0,12,13
 38 221 38 221 102.5 265 c 128,-1,14
 167 309 167 309 310 324 c 1,15,16
 304 376 304 376 240 376 c 0,17,18
 192 376 192 376 114 334 c 1,19,-1
 54 446 l 1,20,21
 164 512 164 512 274 512 c 0,22,23
 482 512 482 512 482 278 c 2,24,-1
 482 0 l 1,25,26
 394 -21 394 -21 394 -78 c 0,27,28
 394 -95 394 -95 405.5 -103.5 c 128,-1,29
 417 -112 417 -112 434 -112 c 0,30,31
 452 -112 452 -112 468 -100 c 1,32,-1
 502 -176 l 1,33,34
 456 -212 456 -212 392 -212 c 0,0,1
248 120 m 0,35,36
 279 120 279 120 310 154 c 1,37,-1
 310 222 l 1,38,39
 202 206 202 206 202 156 c 0,40,41
 202 120 202 120 248 120 c 0,35,36
EndSplineSet
Validated: 1
Substitution2: "<3,3> Small Caps in Latin lookup 4 subtable" Aogonek.sc
EndChar

StartChar: Cacute
Encoding: 262 262 200
Width: 586
Flags: W
LayerCount: 2
Back
Fore
SplineSet
354 -12 m 0,0,1
 222 -12 222 -12 133 74.5 c 128,-1,2
 44 161 44 161 44 320 c 0,3,4
 44 477 44 477 136 569.5 c 128,-1,5
 228 662 228 662 358 662 c 0,6,7
 474 662 474 662 560 576 c 1,8,-1
 470 466 l 1,9,10
 415 514 415 514 362 514 c 0,11,12
 303 514 303 514 261.5 463 c 128,-1,13
 220 412 220 412 220 326 c 0,14,15
 220 236 220 236 258 186 c 128,-1,16
 296 136 296 136 360 136 c 0,17,18
 426 136 426 136 478 192 c 1,19,-1
 568 84 l 1,20,21
 485 -12 485 -12 354 -12 c 0,0,1
340 674 m 1,22,-1
 264 760 l 1,23,-1
 446 904 l 1,24,-1
 536 794 l 1,25,-1
 340 674 l 1,22,-1
EndSplineSet
Validated: 1
EndChar

StartChar: cacute
Encoding: 263 263 201
Width: 472
Flags: W
LayerCount: 2
Back
Fore
SplineSet
284 -12 m 0,0,1
 174 -12 174 -12 103 58.5 c 128,-1,2
 32 129 32 129 32 250 c 0,3,4
 32 370 32 370 110 441 c 128,-1,5
 188 512 188 512 300 512 c 0,6,7
 384 512 384 512 446 460 c 1,8,-1
 366 350 l 1,9,10
 337 374 337 374 310 374 c 0,11,12
 262 374 262 374 235 340.5 c 128,-1,13
 208 307 208 307 208 250 c 0,14,15
 208 194 208 194 235.5 160 c 128,-1,16
 263 126 263 126 304 126 c 0,17,18
 341 126 341 126 384 158 c 1,19,-1
 450 46 l 1,20,21
 384 -12 384 -12 284 -12 c 0,0,1
315 572 m 1,22,-1
 231 656 l 1,23,-1
 389 844 l 1,24,-1
 505 730 l 1,25,-1
 315 572 l 1,22,-1
EndSplineSet
Validated: 1
Substitution2: "<3,3> Small Caps in Latin lookup 4 subtable" Cacute.sc
EndChar

StartChar: Ccircumflex
Encoding: 264 264 202
Width: 586
Flags: W
LayerCount: 2
Back
Fore
SplineSet
354 -12 m 0,0,1
 222 -12 222 -12 133 74.5 c 128,-1,2
 44 161 44 161 44 320 c 0,3,4
 44 477 44 477 136 569.5 c 128,-1,5
 228 662 228 662 358 662 c 0,6,7
 474 662 474 662 560 576 c 1,8,-1
 470 466 l 1,9,10
 415 514 415 514 362 514 c 0,11,12
 303 514 303 514 261.5 463 c 128,-1,13
 220 412 220 412 220 326 c 0,14,15
 220 236 220 236 258 186 c 128,-1,16
 296 136 296 136 360 136 c 0,17,18
 426 136 426 136 478 192 c 1,19,-1
 568 84 l 1,20,21
 485 -12 485 -12 354 -12 c 0,0,1
170 724 m 1,22,-1
 254 834 l 1,23,-1
 442 834 l 1,24,-1
 526 724 l 1,25,-1
 452 680 l 1,26,-1
 350 760 l 1,27,-1
 346 760 l 1,28,-1
 244 680 l 1,29,-1
 170 724 l 1,22,-1
EndSplineSet
Validated: 1
EndChar

StartChar: ccircumflex
Encoding: 265 265 203
Width: 472
Flags: W
LayerCount: 2
Back
Fore
SplineSet
284 -12 m 0,0,1
 174 -12 174 -12 103 58.5 c 128,-1,2
 32 129 32 129 32 250 c 0,3,4
 32 370 32 370 110 441 c 128,-1,5
 188 512 188 512 300 512 c 0,6,7
 384 512 384 512 446 460 c 1,8,-1
 366 350 l 1,9,10
 337 374 337 374 310 374 c 0,11,12
 262 374 262 374 235 340.5 c 128,-1,13
 208 307 208 307 208 250 c 0,14,15
 208 194 208 194 235.5 160 c 128,-1,16
 263 126 263 126 304 126 c 0,17,18
 341 126 341 126 384 158 c 1,19,-1
 450 46 l 1,20,21
 384 -12 384 -12 284 -12 c 0,0,1
101 618 m 1,22,-1
 207 746 l 1,23,-1
 383 746 l 1,24,-1
 489 618 l 1,25,-1
 425 558 l 1,26,-1
 297 642 l 1,27,-1
 293 642 l 1,28,-1
 165 558 l 1,29,-1
 101 618 l 1,22,-1
EndSplineSet
Validated: 1
Substitution2: "<3,3> Small Caps in Latin lookup 4 subtable" Ccircumflex.sc
EndChar

StartChar: Cdotaccent
Encoding: 266 266 204
Width: 586
Flags: W
LayerCount: 2
Back
Fore
SplineSet
354 -12 m 0,0,1
 222 -12 222 -12 133 74.5 c 128,-1,2
 44 161 44 161 44 320 c 0,3,4
 44 477 44 477 136 569.5 c 128,-1,5
 228 662 228 662 358 662 c 0,6,7
 474 662 474 662 560 576 c 1,8,-1
 470 466 l 1,9,10
 415 514 415 514 362 514 c 0,11,12
 303 514 303 514 261.5 463 c 128,-1,13
 220 412 220 412 220 326 c 0,14,15
 220 236 220 236 258 186 c 128,-1,16
 296 136 296 136 360 136 c 0,17,18
 426 136 426 136 478 192 c 1,19,-1
 568 84 l 1,20,21
 485 -12 485 -12 354 -12 c 0,0,1
348 696 m 128,-1,23
 306 696 306 696 279 720 c 128,-1,24
 252 744 252 744 252 782 c 128,-1,25
 252 820 252 820 279 844 c 128,-1,26
 306 868 306 868 348 868 c 128,-1,27
 390 868 390 868 417 844 c 128,-1,28
 444 820 444 820 444 782 c 128,-1,29
 444 744 444 744 417 720 c 128,-1,22
 390 696 390 696 348 696 c 128,-1,23
EndSplineSet
Validated: 1
EndChar

StartChar: cdotaccent
Encoding: 267 267 205
Width: 472
Flags: W
LayerCount: 2
Back
Fore
SplineSet
284 -12 m 0,0,1
 174 -12 174 -12 103 58.5 c 128,-1,2
 32 129 32 129 32 250 c 0,3,4
 32 370 32 370 110 441 c 128,-1,5
 188 512 188 512 300 512 c 0,6,7
 384 512 384 512 446 460 c 1,8,-1
 366 350 l 1,9,10
 337 374 337 374 310 374 c 0,11,12
 262 374 262 374 235 340.5 c 128,-1,13
 208 307 208 307 208 250 c 0,14,15
 208 194 208 194 235.5 160 c 128,-1,16
 263 126 263 126 304 126 c 0,17,18
 341 126 341 126 384 158 c 1,19,-1
 450 46 l 1,20,21
 384 -12 384 -12 284 -12 c 0,0,1
295 562 m 128,-1,23
 255 562 255 562 229 586 c 128,-1,24
 203 610 203 610 203 648 c 128,-1,25
 203 686 203 686 229 710 c 128,-1,26
 255 734 255 734 295 734 c 128,-1,27
 335 734 335 734 361 710 c 128,-1,28
 387 686 387 686 387 648 c 128,-1,29
 387 610 387 610 361 586 c 128,-1,22
 335 562 335 562 295 562 c 128,-1,23
EndSplineSet
Validated: 1
Substitution2: "<3,3> Small Caps in Latin lookup 4 subtable" Cdotaccent.sc
EndChar

StartChar: Ccaron
Encoding: 268 268 206
Width: 586
Flags: W
LayerCount: 2
Back
Fore
SplineSet
354 -12 m 0,0,1
 222 -12 222 -12 133 74.5 c 128,-1,2
 44 161 44 161 44 320 c 0,3,4
 44 477 44 477 136 569.5 c 128,-1,5
 228 662 228 662 358 662 c 0,6,7
 474 662 474 662 560 576 c 1,8,-1
 470 466 l 1,9,10
 415 514 415 514 362 514 c 0,11,12
 303 514 303 514 261.5 463 c 128,-1,13
 220 412 220 412 220 326 c 0,14,15
 220 236 220 236 258 186 c 128,-1,16
 296 136 296 136 360 136 c 0,17,18
 426 136 426 136 478 192 c 1,19,-1
 568 84 l 1,20,21
 485 -12 485 -12 354 -12 c 0,0,1
254 700 m 1,22,-1
 170 810 l 1,23,-1
 244 854 l 1,24,-1
 346 774 l 1,25,-1
 350 774 l 1,26,-1
 452 854 l 1,27,-1
 526 810 l 1,28,-1
 442 700 l 1,29,-1
 254 700 l 1,22,-1
EndSplineSet
Validated: 1
EndChar

StartChar: ccaron
Encoding: 269 269 207
Width: 472
Flags: W
LayerCount: 2
Back
Fore
SplineSet
284 -12 m 0,0,1
 174 -12 174 -12 103 58.5 c 128,-1,2
 32 129 32 129 32 250 c 0,3,4
 32 370 32 370 110 441 c 128,-1,5
 188 512 188 512 300 512 c 0,6,7
 384 512 384 512 446 460 c 1,8,-1
 366 350 l 1,9,10
 337 374 337 374 310 374 c 0,11,12
 262 374 262 374 235 340.5 c 128,-1,13
 208 307 208 307 208 250 c 0,14,15
 208 194 208 194 235.5 160 c 128,-1,16
 263 126 263 126 304 126 c 0,17,18
 341 126 341 126 384 158 c 1,19,-1
 450 46 l 1,20,21
 384 -12 384 -12 284 -12 c 0,0,1
207 578 m 1,22,-1
 101 706 l 1,23,-1
 165 766 l 1,24,-1
 293 682 l 1,25,-1
 297 682 l 1,26,-1
 425 766 l 1,27,-1
 489 706 l 1,28,-1
 383 578 l 1,29,-1
 207 578 l 1,22,-1
EndSplineSet
Validated: 1
Substitution2: "<3,3> Small Caps in Latin lookup 4 subtable" Ccaron.sc
EndChar

StartChar: Dcaron
Encoding: 270 270 208
Width: 642
Flags: W
LayerCount: 2
Back
Fore
SplineSet
72 0 m 1,0,-1
 72 650 l 1,1,-1
 264 650 l 2,2,3
 420 650 420 650 509 572 c 128,-1,4
 598 494 598 494 598 328 c 128,-1,5
 598 162 598 162 510.5 81 c 128,-1,6
 423 0 423 0 274 0 c 2,7,-1
 72 0 l 1,0,-1
244 138 m 1,8,-1
 254 138 l 2,9,10
 333 138 333 138 377.5 180 c 128,-1,11
 422 222 422 222 422 328 c 0,12,13
 422 433 422 433 378 472.5 c 128,-1,14
 334 512 334 512 254 512 c 2,15,-1
 244 512 l 1,16,-1
 244 138 l 1,8,-1
228 700 m 1,17,-1
 144 810 l 1,18,-1
 218 854 l 1,19,-1
 320 774 l 1,20,-1
 324 774 l 1,21,-1
 426 854 l 1,22,-1
 500 810 l 1,23,-1
 416 700 l 1,24,-1
 228 700 l 1,17,-1
EndSplineSet
Validated: 1
EndChar

StartChar: dcaron
Encoding: 271 271 209
Width: 630
Flags: W
LayerCount: 2
Back
Fore
SplineSet
240 -12 m 0,0,1
 147 -12 147 -12 91.5 58.5 c 128,-1,2
 36 129 36 129 36 250 c 0,3,4
 36 368 36 368 97.5 440 c 128,-1,5
 159 512 159 512 240 512 c 0,6,7
 306 512 306 512 356 462 c 1,8,-1
 350 534 l 1,9,-1
 350 696 l 1,10,-1
 522 696 l 1,11,-1
 522 0 l 1,12,-1
 382 0 l 1,13,-1
 370 46 l 1,14,-1
 366 46 l 1,15,16
 308 -12 308 -12 240 -12 c 0,0,1
286 128 m 0,17,18
 327 128 327 128 350 164 c 1,19,-1
 350 348 l 1,20,21
 323 372 323 372 282 372 c 0,22,23
 252 372 252 372 232 343 c 128,-1,24
 212 314 212 314 212 252 c 0,25,26
 212 128 212 128 286 128 c 0,17,18
560 548 m 1,27,-1
 554 774 l 1,28,-1
 662 774 l 1,29,-1
 660 700 l 1,30,-1
 632 548 l 1,31,-1
 560 548 l 1,27,-1
EndSplineSet
Validated: 1
Substitution2: "<3,3> Small Caps in Latin lookup 4 subtable" Dcaron.sc
EndChar

StartChar: Dcroat
Encoding: 272 272 210
Width: 668
Flags: W
LayerCount: 2
Back
Fore
SplineSet
24 294 m 1,0,-1
 24 368 l 1,1,-1
 98 374 l 1,2,-1
 98 650 l 1,3,-1
 290 650 l 2,4,5
 446 650 446 650 535 572 c 128,-1,6
 624 494 624 494 624 328 c 128,-1,7
 624 162 624 162 536.5 81 c 128,-1,8
 449 0 449 0 300 0 c 2,9,-1
 98 0 l 1,10,-1
 98 294 l 1,11,-1
 24 294 l 1,0,-1
270 138 m 1,12,-1
 280 138 l 2,13,14
 359 138 359 138 403.5 180 c 128,-1,15
 448 222 448 222 448 328 c 0,16,17
 448 433 448 433 404 472.5 c 128,-1,18
 360 512 360 512 280 512 c 2,19,-1
 270 512 l 1,20,-1
 270 374 l 1,21,-1
 386 374 l 1,22,-1
 386 294 l 1,23,-1
 270 294 l 1,24,-1
 270 138 l 1,12,-1
EndSplineSet
Validated: 1
EndChar

StartChar: dcroat
Encoding: 273 273 211
Width: 580
Flags: W
LayerCount: 2
Back
Fore
SplineSet
240 -12 m 0,0,1
 147 -12 147 -12 91.5 53.5 c 128,-1,2
 36 119 36 119 36 226 c 0,3,4
 36 327 36 327 98 393.5 c 128,-1,5
 160 460 160 460 240 460 c 0,6,7
 306 460 306 460 356 410 c 1,8,-1
 350 482 l 1,9,-1
 350 550 l 1,10,-1
 206 550 l 1,11,-1
 206 630 l 1,12,-1
 350 630 l 1,13,-1
 350 696 l 1,14,-1
 522 696 l 1,15,-1
 522 630 l 1,16,-1
 588 630 l 1,17,-1
 588 556 l 1,18,-1
 522 551 l 1,19,-1
 522 0 l 1,20,-1
 378 0 l 1,21,-1
 368 40 l 1,22,-1
 364 40 l 1,23,24
 310 -12 310 -12 240 -12 c 0,0,1
286 128 m 0,25,26
 327 128 327 128 350 164 c 1,27,-1
 350 296 l 1,28,29
 323 320 323 320 282 320 c 0,30,31
 253 320 253 320 232.5 296.5 c 128,-1,32
 212 273 212 273 212 228 c 0,33,34
 212 128 212 128 286 128 c 0,25,26
EndSplineSet
Validated: 1
Substitution2: "<3,3> Small Caps in Latin lookup 4 subtable" Dcroat.sc
EndChar

StartChar: Emacron
Encoding: 274 274 212
Width: 556
Flags: W
LayerCount: 2
Back
Fore
SplineSet
72 0 m 1,0,-1
 72 650 l 1,1,-1
 492 650 l 1,2,-1
 492 506 l 1,3,-1
 244 506 l 1,4,-1
 244 404 l 1,5,-1
 456 404 l 1,6,-1
 456 260 l 1,7,-1
 244 260 l 1,8,-1
 244 144 l 1,9,-1
 502 144 l 1,10,-1
 502 0 l 1,11,-1
 72 0 l 1,0,-1
132 716 m 1,12,-1
 132 824 l 1,13,-1
 448 824 l 1,14,-1
 448 716 l 1,15,-1
 132 716 l 1,12,-1
EndSplineSet
Validated: 1
EndChar

StartChar: emacron
Encoding: 275 275 213
Width: 526
Flags: W
LayerCount: 2
Back
Fore
SplineSet
290 -12 m 0,0,1
 177 -12 177 -12 104.5 58.5 c 128,-1,2
 32 129 32 129 32 250 c 0,3,4
 32 367 32 367 104 439.5 c 128,-1,5
 176 512 176 512 272 512 c 0,6,7
 378 512 378 512 434 444 c 128,-1,8
 490 376 490 376 490 270 c 0,9,10
 490 226 490 226 483 198 c 1,11,-1
 198 198 l 1,12,13
 219 118 219 118 314 118 c 0,14,15
 362 118 362 118 416 148 c 1,16,-1
 472 46 l 1,17,18
 390 -12 390 -12 290 -12 c 0,0,1
196 310 m 1,19,-1
 344 310 l 1,20,21
 344 382 344 382 276 382 c 0,22,23
 246 382 246 382 224.5 364 c 128,-1,24
 203 346 203 346 196 310 c 1,19,-1
118 588 m 1,25,-1
 118 696 l 1,26,-1
 426 696 l 1,27,-1
 426 588 l 1,28,-1
 118 588 l 1,25,-1
EndSplineSet
Validated: 1
Substitution2: "<3,3> Small Caps in Latin lookup 4 subtable" Emacron.sc
EndChar

StartChar: Ebreve
Encoding: 276 276 214
Width: 556
Flags: W
LayerCount: 2
Back
Fore
SplineSet
72 0 m 1,0,-1
 72 650 l 1,1,-1
 492 650 l 1,2,-1
 492 506 l 1,3,-1
 244 506 l 1,4,-1
 244 404 l 1,5,-1
 456 404 l 1,6,-1
 456 260 l 1,7,-1
 244 260 l 1,8,-1
 244 144 l 1,9,-1
 502 144 l 1,10,-1
 502 0 l 1,11,-1
 72 0 l 1,0,-1
290 694 m 128,-1,13
 135 694 135 694 120 834 c 1,14,-1
 212 850 l 1,15,16
 225 792 225 792 290 792 c 128,-1,17
 355 792 355 792 368 850 c 1,18,-1
 460 834 l 1,19,12
 445 694 445 694 290 694 c 128,-1,13
EndSplineSet
Validated: 1
EndChar

StartChar: ebreve
Encoding: 277 277 215
Width: 526
Flags: W
LayerCount: 2
Back
Fore
SplineSet
290 -12 m 0,0,1
 177 -12 177 -12 104.5 58.5 c 128,-1,2
 32 129 32 129 32 250 c 0,3,4
 32 367 32 367 104 439.5 c 128,-1,5
 176 512 176 512 272 512 c 0,6,7
 378 512 378 512 434 444 c 128,-1,8
 490 376 490 376 490 270 c 0,9,10
 490 226 490 226 483 198 c 1,11,-1
 198 198 l 1,12,13
 219 118 219 118 314 118 c 0,14,15
 362 118 362 118 416 148 c 1,16,-1
 472 46 l 1,17,18
 390 -12 390 -12 290 -12 c 0,0,1
196 310 m 1,19,-1
 344 310 l 1,20,21
 344 382 344 382 276 382 c 0,22,23
 246 382 246 382 224.5 364 c 128,-1,24
 203 346 203 346 196 310 c 1,19,-1
272 572 m 128,-1,26
 187 572 187 572 143.5 615.5 c 128,-1,27
 100 659 100 659 98 732 c 1,28,-1
 194 748 l 1,29,30
 199 716 199 716 218.5 697 c 128,-1,31
 238 678 238 678 272 678 c 128,-1,32
 306 678 306 678 325.5 697 c 128,-1,33
 345 716 345 716 350 748 c 1,34,-1
 446 732 l 1,35,36
 444 658 444 658 400.5 615 c 128,-1,25
 357 572 357 572 272 572 c 128,-1,26
EndSplineSet
Validated: 1
Substitution2: "<3,3> Small Caps in Latin lookup 4 subtable" Ebreve.sc
EndChar

StartChar: Edotaccent
Encoding: 278 278 216
Width: 556
Flags: W
LayerCount: 2
Back
Fore
SplineSet
72 0 m 1,0,-1
 72 650 l 1,1,-1
 492 650 l 1,2,-1
 492 506 l 1,3,-1
 244 506 l 1,4,-1
 244 404 l 1,5,-1
 456 404 l 1,6,-1
 456 260 l 1,7,-1
 244 260 l 1,8,-1
 244 144 l 1,9,-1
 502 144 l 1,10,-1
 502 0 l 1,11,-1
 72 0 l 1,0,-1
290 696 m 128,-1,13
 248 696 248 696 221 720 c 128,-1,14
 194 744 194 744 194 782 c 128,-1,15
 194 820 194 820 221 844 c 128,-1,16
 248 868 248 868 290 868 c 128,-1,17
 332 868 332 868 359 844 c 128,-1,18
 386 820 386 820 386 782 c 128,-1,19
 386 744 386 744 359 720 c 128,-1,12
 332 696 332 696 290 696 c 128,-1,13
EndSplineSet
Validated: 1
EndChar

StartChar: edotaccent
Encoding: 279 279 217
Width: 526
Flags: W
LayerCount: 2
Back
Fore
SplineSet
290 -12 m 0,0,1
 177 -12 177 -12 104.5 58.5 c 128,-1,2
 32 129 32 129 32 250 c 0,3,4
 32 367 32 367 104 439.5 c 128,-1,5
 176 512 176 512 272 512 c 0,6,7
 378 512 378 512 434 444 c 128,-1,8
 490 376 490 376 490 270 c 0,9,10
 490 226 490 226 483 198 c 1,11,-1
 198 198 l 1,12,13
 219 118 219 118 314 118 c 0,14,15
 362 118 362 118 416 148 c 1,16,-1
 472 46 l 1,17,18
 390 -12 390 -12 290 -12 c 0,0,1
196 310 m 1,19,-1
 344 310 l 1,20,21
 344 382 344 382 276 382 c 0,22,23
 246 382 246 382 224.5 364 c 128,-1,24
 203 346 203 346 196 310 c 1,19,-1
272 562 m 128,-1,26
 232 562 232 562 206 586 c 128,-1,27
 180 610 180 610 180 648 c 128,-1,28
 180 686 180 686 206 710 c 128,-1,29
 232 734 232 734 272 734 c 128,-1,30
 312 734 312 734 338 710 c 128,-1,31
 364 686 364 686 364 648 c 128,-1,32
 364 610 364 610 338 586 c 128,-1,25
 312 562 312 562 272 562 c 128,-1,26
EndSplineSet
Validated: 1
Substitution2: "<3,3> Small Caps in Latin lookup 4 subtable" Edotaccent.sc
EndChar

StartChar: Eogonek
Encoding: 280 280 218
Width: 556
Flags: W
LayerCount: 2
Back
Fore
SplineSet
410 -228 m 0,0,1
 357 -228 357 -228 322.5 -201.5 c 128,-1,2
 288 -175 288 -175 288 -130 c 0,3,4
 288 -87 288 -87 312.5 -53 c 128,-1,5
 337 -19 337 -19 368 0 c 1,6,-1
 72 0 l 1,7,-1
 72 650 l 1,8,-1
 492 650 l 1,9,-1
 492 506 l 1,10,-1
 244 506 l 1,11,-1
 244 404 l 1,12,-1
 456 404 l 1,13,-1
 456 260 l 1,14,-1
 244 260 l 1,15,-1
 244 144 l 1,16,-1
 502 144 l 1,17,-1
 502 0 l 1,18,-1
 496 0 l 2,19,20
 462 0 462 0 437 -26 c 128,-1,21
 412 -52 412 -52 412 -84 c 0,22,23
 412 -101 412 -101 423.5 -109.5 c 128,-1,24
 435 -118 435 -118 452 -118 c 0,25,26
 465 -118 465 -118 486 -104 c 1,27,-1
 524 -190 l 1,28,29
 503 -207 503 -207 470.5 -217.5 c 128,-1,30
 438 -228 438 -228 410 -228 c 0,0,1
EndSplineSet
Validated: 1
EndChar

StartChar: eogonek
Encoding: 281 281 219
Width: 526
Flags: W
LayerCount: 2
Back
Fore
SplineSet
364 -212 m 0,0,1
 316 -212 316 -212 285 -187.5 c 128,-1,2
 254 -163 254 -163 254 -118 c 0,3,4
 254 -60 254 -60 308 -10 c 1,5,6
 298 -12 298 -12 290 -12 c 0,7,8
 177 -12 177 -12 104.5 58.5 c 128,-1,9
 32 129 32 129 32 250 c 0,10,11
 32 367 32 367 104 439.5 c 128,-1,12
 176 512 176 512 272 512 c 0,13,14
 378 512 378 512 434 444 c 128,-1,15
 490 376 490 376 490 270 c 0,16,17
 490 226 490 226 483 198 c 1,18,-1
 198 198 l 1,19,20
 219 118 219 118 314 118 c 0,21,22
 362 118 362 118 416 148 c 1,23,-1
 472 46 l 1,24,25
 408 2 408 2 387 -23 c 128,-1,26
 366 -48 366 -48 366 -78 c 0,27,28
 366 -112 366 -112 407 -112 c 0,29,30
 422 -112 422 -112 440 -100 c 1,31,-1
 474 -176 l 1,32,33
 428 -212 428 -212 364 -212 c 0,0,1
196 310 m 1,34,-1
 344 310 l 1,35,36
 344 382 344 382 276 382 c 0,37,38
 246 382 246 382 224.5 364 c 128,-1,39
 203 346 203 346 196 310 c 1,34,-1
EndSplineSet
Validated: 1
Substitution2: "<3,3> Small Caps in Latin lookup 4 subtable" Eogonek.sc
EndChar

StartChar: Ecaron
Encoding: 282 282 220
Width: 556
Flags: W
LayerCount: 2
Back
Fore
SplineSet
72 0 m 1,0,-1
 72 650 l 1,1,-1
 492 650 l 1,2,-1
 492 506 l 1,3,-1
 244 506 l 1,4,-1
 244 404 l 1,5,-1
 456 404 l 1,6,-1
 456 260 l 1,7,-1
 244 260 l 1,8,-1
 244 144 l 1,9,-1
 502 144 l 1,10,-1
 502 0 l 1,11,-1
 72 0 l 1,0,-1
196 700 m 1,12,-1
 112 810 l 1,13,-1
 186 854 l 1,14,-1
 288 774 l 1,15,-1
 292 774 l 1,16,-1
 394 854 l 1,17,-1
 468 810 l 1,18,-1
 384 700 l 1,19,-1
 196 700 l 1,12,-1
EndSplineSet
Validated: 1
EndChar

StartChar: ecaron
Encoding: 283 283 221
Width: 526
Flags: W
LayerCount: 2
Back
Fore
SplineSet
290 -12 m 0,0,1
 177 -12 177 -12 104.5 58.5 c 128,-1,2
 32 129 32 129 32 250 c 0,3,4
 32 367 32 367 104 439.5 c 128,-1,5
 176 512 176 512 272 512 c 0,6,7
 378 512 378 512 434 444 c 128,-1,8
 490 376 490 376 490 270 c 0,9,10
 490 226 490 226 483 198 c 1,11,-1
 198 198 l 1,12,13
 219 118 219 118 314 118 c 0,14,15
 362 118 362 118 416 148 c 1,16,-1
 472 46 l 1,17,18
 390 -12 390 -12 290 -12 c 0,0,1
196 310 m 1,19,-1
 344 310 l 1,20,21
 344 382 344 382 276 382 c 0,22,23
 246 382 246 382 224.5 364 c 128,-1,24
 203 346 203 346 196 310 c 1,19,-1
184 578 m 1,25,-1
 78 706 l 1,26,-1
 142 766 l 1,27,-1
 270 682 l 1,28,-1
 274 682 l 1,29,-1
 402 766 l 1,30,-1
 466 706 l 1,31,-1
 360 578 l 1,32,-1
 184 578 l 1,25,-1
EndSplineSet
Validated: 1
Substitution2: "<3,3> Small Caps in Latin lookup 4 subtable" Ecaron.sc
EndChar

StartChar: Gcircumflex
Encoding: 284 284 222
Width: 646
Flags: W
LayerCount: 2
Back
Fore
SplineSet
372 -12 m 0,0,1
 228 -12 228 -12 136 74 c 128,-1,2
 44 160 44 160 44 320 c 0,3,4
 44 478 44 478 138 570 c 128,-1,5
 232 662 232 662 368 662 c 0,6,7
 494 662 494 662 580 576 c 1,8,-1
 490 466 l 1,9,10
 435 514 435 514 374 514 c 0,11,12
 306 514 306 514 263 463.5 c 128,-1,13
 220 413 220 413 220 326 c 0,14,15
 220 136 220 136 390 136 c 0,16,17
 422 136 422 136 440 148 c 1,18,-1
 440 238 l 1,19,-1
 344 238 l 1,20,-1
 344 378 l 1,21,-1
 592 378 l 1,22,-1
 592 68 l 1,23,24
 556 33 556 33 497 10.5 c 128,-1,25
 438 -12 438 -12 372 -12 c 0,0,1
194 724 m 1,26,-1
 278 834 l 1,27,-1
 466 834 l 1,28,-1
 550 724 l 1,29,-1
 476 680 l 1,30,-1
 374 760 l 1,31,-1
 370 760 l 1,32,-1
 268 680 l 1,33,-1
 194 724 l 1,26,-1
EndSplineSet
Validated: 1
EndChar

StartChar: gcircumflex
Encoding: 285 285 223
Width: 546
Flags: W
LayerCount: 2
Back
Fore
SplineSet
240 -206 m 0,0,1
 147 -206 147 -206 88.5 -176 c 128,-1,2
 30 -146 30 -146 30 -82 c 0,3,4
 30 -23 30 -23 100 14 c 1,5,-1
 100 18 l 1,6,7
 54 50 54 50 54 104 c 128,-1,8
 54 158 54 158 110 198 c 1,9,-1
 110 202 l 1,10,11
 81 222 81 222 61.5 255.5 c 128,-1,12
 42 289 42 289 42 330 c 0,13,14
 42 418 42 418 104.5 465 c 128,-1,15
 167 512 167 512 256 512 c 0,16,17
 300 512 300 512 336 500 c 1,18,-1
 522 500 l 1,19,-1
 522 376 l 1,20,-1
 450 376 l 1,21,22
 458 352 458 352 458 324 c 0,23,24
 458 240 458 240 402 199 c 128,-1,25
 346 158 346 158 256 158 c 0,26,27
 231 158 231 158 200 165 c 1,28,29
 188 154 188 154 188 136 c 0,30,31
 188 120 188 120 204 113 c 128,-1,32
 220 106 220 106 258 106 c 2,33,-1
 333 106 l 2,34,35
 530 106 530 106 530 -24 c 0,36,37
 530 -106 530 -106 451 -156 c 128,-1,38
 372 -206 372 -206 240 -206 c 0,0,1
256 260 m 128,-1,40
 310 260 310 260 310 330 c 0,41,42
 310 363 310 363 295.5 380.5 c 128,-1,43
 281 398 281 398 256 398 c 128,-1,44
 231 398 231 398 216.5 380.5 c 128,-1,45
 202 363 202 363 202 330 c 0,46,39
 202 260 202 260 256 260 c 128,-1,40
268 -100 m 0,47,48
 311 -100 311 -100 338.5 -87.5 c 128,-1,49
 366 -75 366 -75 366 -54 c 0,50,51
 366 -36 366 -36 350.5 -30 c 128,-1,52
 335 -24 335 -24 299 -24 c 2,53,-1
 260 -24 l 2,54,55
 209 -24 209 -24 188 -18 c 1,56,57
 170 -36 170 -36 170 -54 c 0,58,59
 170 -100 170 -100 268 -100 c 0,47,48
90 618 m 1,60,-1
 196 746 l 1,61,-1
 372 746 l 1,62,-1
 478 618 l 1,63,-1
 414 558 l 1,64,-1
 286 642 l 1,65,-1
 282 642 l 1,66,-1
 154 558 l 1,67,-1
 90 618 l 1,60,-1
EndSplineSet
Validated: 1
Substitution2: "<3,3> Small Caps in Latin lookup 4 subtable" Gcircumflex.sc
EndChar

StartChar: Gbreve
Encoding: 286 286 224
Width: 646
Flags: W
LayerCount: 2
Back
Fore
SplineSet
372 -12 m 0,0,1
 228 -12 228 -12 136 74 c 128,-1,2
 44 160 44 160 44 320 c 0,3,4
 44 478 44 478 138 570 c 128,-1,5
 232 662 232 662 368 662 c 0,6,7
 494 662 494 662 580 576 c 1,8,-1
 490 466 l 1,9,10
 435 514 435 514 374 514 c 0,11,12
 306 514 306 514 263 463.5 c 128,-1,13
 220 413 220 413 220 326 c 0,14,15
 220 136 220 136 390 136 c 0,16,17
 422 136 422 136 440 148 c 1,18,-1
 440 238 l 1,19,-1
 344 238 l 1,20,-1
 344 378 l 1,21,-1
 592 378 l 1,22,-1
 592 68 l 1,23,24
 556 33 556 33 497 10.5 c 128,-1,25
 438 -12 438 -12 372 -12 c 0,0,1
372 694 m 128,-1,27
 217 694 217 694 202 834 c 1,28,-1
 294 850 l 1,29,30
 307 792 307 792 372 792 c 128,-1,31
 437 792 437 792 450 850 c 1,32,-1
 542 834 l 1,33,26
 527 694 527 694 372 694 c 128,-1,27
EndSplineSet
Validated: 1
EndChar

StartChar: gbreve
Encoding: 287 287 225
Width: 546
Flags: W
LayerCount: 2
Back
Fore
SplineSet
240 -206 m 0,0,1
 147 -206 147 -206 88.5 -176 c 128,-1,2
 30 -146 30 -146 30 -82 c 0,3,4
 30 -23 30 -23 100 14 c 1,5,-1
 100 18 l 1,6,7
 54 50 54 50 54 104 c 128,-1,8
 54 158 54 158 110 198 c 1,9,-1
 110 202 l 1,10,11
 81 222 81 222 61.5 255.5 c 128,-1,12
 42 289 42 289 42 330 c 0,13,14
 42 418 42 418 104.5 465 c 128,-1,15
 167 512 167 512 256 512 c 0,16,17
 300 512 300 512 336 500 c 1,18,-1
 522 500 l 1,19,-1
 522 376 l 1,20,-1
 450 376 l 1,21,22
 458 352 458 352 458 324 c 0,23,24
 458 240 458 240 402 199 c 128,-1,25
 346 158 346 158 256 158 c 0,26,27
 231 158 231 158 200 165 c 1,28,29
 188 154 188 154 188 136 c 0,30,31
 188 120 188 120 204 113 c 128,-1,32
 220 106 220 106 258 106 c 2,33,-1
 333 106 l 2,34,35
 530 106 530 106 530 -24 c 0,36,37
 530 -106 530 -106 451 -156 c 128,-1,38
 372 -206 372 -206 240 -206 c 0,0,1
256 260 m 128,-1,40
 310 260 310 260 310 330 c 0,41,42
 310 363 310 363 295.5 380.5 c 128,-1,43
 281 398 281 398 256 398 c 128,-1,44
 231 398 231 398 216.5 380.5 c 128,-1,45
 202 363 202 363 202 330 c 0,46,39
 202 260 202 260 256 260 c 128,-1,40
268 -100 m 0,47,48
 311 -100 311 -100 338.5 -87.5 c 128,-1,49
 366 -75 366 -75 366 -54 c 0,50,51
 366 -36 366 -36 350.5 -30 c 128,-1,52
 335 -24 335 -24 299 -24 c 2,53,-1
 260 -24 l 2,54,55
 209 -24 209 -24 188 -18 c 1,56,57
 170 -36 170 -36 170 -54 c 0,58,59
 170 -100 170 -100 268 -100 c 0,47,48
284 572 m 128,-1,61
 199 572 199 572 155.5 615.5 c 128,-1,62
 112 659 112 659 110 732 c 1,63,-1
 206 748 l 1,64,65
 211 716 211 716 230.5 697 c 128,-1,66
 250 678 250 678 284 678 c 128,-1,67
 318 678 318 678 337.5 697 c 128,-1,68
 357 716 357 716 362 748 c 1,69,-1
 458 732 l 1,70,71
 456 658 456 658 412.5 615 c 128,-1,60
 369 572 369 572 284 572 c 128,-1,61
EndSplineSet
Validated: 1
Substitution2: "<3,3> Small Caps in Latin lookup 4 subtable" Gbreve.sc
EndChar

StartChar: Gdotaccent
Encoding: 288 288 226
Width: 646
Flags: W
LayerCount: 2
Back
Fore
SplineSet
372 -12 m 0,0,1
 228 -12 228 -12 136 74 c 128,-1,2
 44 160 44 160 44 320 c 0,3,4
 44 478 44 478 138 570 c 128,-1,5
 232 662 232 662 368 662 c 0,6,7
 494 662 494 662 580 576 c 1,8,-1
 490 466 l 1,9,10
 435 514 435 514 374 514 c 0,11,12
 306 514 306 514 263 463.5 c 128,-1,13
 220 413 220 413 220 326 c 0,14,15
 220 136 220 136 390 136 c 0,16,17
 422 136 422 136 440 148 c 1,18,-1
 440 238 l 1,19,-1
 344 238 l 1,20,-1
 344 378 l 1,21,-1
 592 378 l 1,22,-1
 592 68 l 1,23,24
 556 33 556 33 497 10.5 c 128,-1,25
 438 -12 438 -12 372 -12 c 0,0,1
372 696 m 128,-1,27
 330 696 330 696 303 720 c 128,-1,28
 276 744 276 744 276 782 c 128,-1,29
 276 820 276 820 303 844 c 128,-1,30
 330 868 330 868 372 868 c 128,-1,31
 414 868 414 868 441 844 c 128,-1,32
 468 820 468 820 468 782 c 128,-1,33
 468 744 468 744 441 720 c 128,-1,26
 414 696 414 696 372 696 c 128,-1,27
EndSplineSet
Validated: 1
EndChar

StartChar: gdotaccent
Encoding: 289 289 227
Width: 546
Flags: W
LayerCount: 2
Back
Fore
SplineSet
240 -206 m 0,0,1
 147 -206 147 -206 88.5 -176 c 128,-1,2
 30 -146 30 -146 30 -82 c 0,3,4
 30 -23 30 -23 100 14 c 1,5,-1
 100 18 l 1,6,7
 54 50 54 50 54 104 c 128,-1,8
 54 158 54 158 110 198 c 1,9,-1
 110 202 l 1,10,11
 81 222 81 222 61.5 255.5 c 128,-1,12
 42 289 42 289 42 330 c 0,13,14
 42 418 42 418 104.5 465 c 128,-1,15
 167 512 167 512 256 512 c 0,16,17
 300 512 300 512 336 500 c 1,18,-1
 522 500 l 1,19,-1
 522 376 l 1,20,-1
 450 376 l 1,21,22
 458 352 458 352 458 324 c 0,23,24
 458 240 458 240 402 199 c 128,-1,25
 346 158 346 158 256 158 c 0,26,27
 231 158 231 158 200 165 c 1,28,29
 188 154 188 154 188 136 c 0,30,31
 188 120 188 120 204 113 c 128,-1,32
 220 106 220 106 258 106 c 2,33,-1
 333 106 l 2,34,35
 530 106 530 106 530 -24 c 0,36,37
 530 -106 530 -106 451 -156 c 128,-1,38
 372 -206 372 -206 240 -206 c 0,0,1
256 260 m 128,-1,40
 310 260 310 260 310 330 c 0,41,42
 310 363 310 363 295.5 380.5 c 128,-1,43
 281 398 281 398 256 398 c 128,-1,44
 231 398 231 398 216.5 380.5 c 128,-1,45
 202 363 202 363 202 330 c 0,46,39
 202 260 202 260 256 260 c 128,-1,40
268 -100 m 0,47,48
 311 -100 311 -100 338.5 -87.5 c 128,-1,49
 366 -75 366 -75 366 -54 c 0,50,51
 366 -36 366 -36 350.5 -30 c 128,-1,52
 335 -24 335 -24 299 -24 c 2,53,-1
 260 -24 l 2,54,55
 209 -24 209 -24 188 -18 c 1,56,57
 170 -36 170 -36 170 -54 c 0,58,59
 170 -100 170 -100 268 -100 c 0,47,48
284 562 m 128,-1,61
 244 562 244 562 218 586 c 128,-1,62
 192 610 192 610 192 648 c 128,-1,63
 192 686 192 686 218 710 c 128,-1,64
 244 734 244 734 284 734 c 128,-1,65
 324 734 324 734 350 710 c 128,-1,66
 376 686 376 686 376 648 c 128,-1,67
 376 610 376 610 350 586 c 128,-1,60
 324 562 324 562 284 562 c 128,-1,61
EndSplineSet
Validated: 1
Substitution2: "<3,3> Small Caps in Latin lookup 4 subtable" Gdotaccent.sc
EndChar

StartChar: uni0122
Encoding: 290 290 228
Width: 646
Flags: W
LayerCount: 2
Back
Fore
SplineSet
372 -12 m 0,0,1
 228 -12 228 -12 136 74 c 128,-1,2
 44 160 44 160 44 320 c 0,3,4
 44 478 44 478 138 570 c 128,-1,5
 232 662 232 662 368 662 c 0,6,7
 494 662 494 662 580 576 c 1,8,-1
 490 466 l 1,9,10
 435 514 435 514 374 514 c 0,11,12
 306 514 306 514 263 463.5 c 128,-1,13
 220 413 220 413 220 326 c 0,14,15
 220 136 220 136 390 136 c 0,16,17
 422 136 422 136 440 148 c 1,18,-1
 440 238 l 1,19,-1
 344 238 l 1,20,-1
 344 378 l 1,21,-1
 592 378 l 1,22,-1
 592 68 l 1,23,24
 556 33 556 33 497 10.5 c 128,-1,25
 438 -12 438 -12 372 -12 c 0,0,1
260 -244 m 1,26,-1
 248 -178 l 1,27,28
 304 -175 304 -175 326 -167 c 128,-1,29
 348 -159 348 -159 348 -142 c 0,30,31
 348 -115 348 -115 288 -110 c 1,32,-1
 320 -50 l 1,33,34
 403 -56 403 -56 436.5 -76.5 c 128,-1,35
 470 -97 470 -97 470 -136 c 0,36,37
 470 -238 470 -238 260 -244 c 1,26,-1
EndSplineSet
Validated: 1
EndChar

StartChar: uni0123
Encoding: 291 291 229
Width: 546
Flags: W
LayerCount: 2
Back
Fore
SplineSet
240 -206 m 0,0,1
 147 -206 147 -206 88.5 -176 c 128,-1,2
 30 -146 30 -146 30 -82 c 0,3,4
 30 -23 30 -23 100 14 c 1,5,-1
 100 18 l 1,6,7
 54 50 54 50 54 104 c 128,-1,8
 54 158 54 158 110 198 c 1,9,-1
 110 202 l 1,10,11
 81 222 81 222 61.5 255.5 c 128,-1,12
 42 289 42 289 42 330 c 0,13,14
 42 418 42 418 104.5 465 c 128,-1,15
 167 512 167 512 256 512 c 0,16,17
 300 512 300 512 336 500 c 1,18,-1
 522 500 l 1,19,-1
 522 376 l 1,20,-1
 450 376 l 1,21,22
 458 352 458 352 458 324 c 0,23,24
 458 240 458 240 402 199 c 128,-1,25
 346 158 346 158 256 158 c 0,26,27
 231 158 231 158 200 165 c 1,28,29
 188 154 188 154 188 136 c 0,30,31
 188 120 188 120 204 113 c 128,-1,32
 220 106 220 106 258 106 c 2,33,-1
 333 106 l 2,34,35
 530 106 530 106 530 -24 c 0,36,37
 530 -106 530 -106 451 -156 c 128,-1,38
 372 -206 372 -206 240 -206 c 0,0,1
256 260 m 128,-1,40
 310 260 310 260 310 330 c 0,41,42
 310 363 310 363 295.5 380.5 c 128,-1,43
 281 398 281 398 256 398 c 128,-1,44
 231 398 231 398 216.5 380.5 c 128,-1,45
 202 363 202 363 202 330 c 0,46,39
 202 260 202 260 256 260 c 128,-1,40
268 -100 m 0,47,48
 311 -100 311 -100 338.5 -87.5 c 128,-1,49
 366 -75 366 -75 366 -54 c 0,50,51
 366 -36 366 -36 350.5 -30 c 128,-1,52
 335 -24 335 -24 299 -24 c 2,53,-1
 260 -24 l 2,54,55
 209 -24 209 -24 188 -18 c 1,56,57
 170 -36 170 -36 170 -54 c 0,58,59
 170 -100 170 -100 268 -100 c 0,47,48
332 566 m 1,60,61
 249 572 249 572 215.5 592.5 c 128,-1,62
 182 613 182 613 182 652 c 0,63,64
 182 754 182 754 392 760 c 1,65,-1
 404 694 l 1,66,67
 348 691 348 691 326 683 c 128,-1,68
 304 675 304 675 304 658 c 0,69,70
 304 631 304 631 364 626 c 1,71,-1
 332 566 l 1,60,61
EndSplineSet
Validated: 1
Substitution2: "<3,3> Small Caps in Latin lookup 4 subtable" uni0122.sc
EndChar

StartChar: Hcircumflex
Encoding: 292 292 230
Width: 682
Flags: W
LayerCount: 2
Back
Fore
SplineSet
72 0 m 1,0,-1
 72 650 l 1,1,-1
 244 650 l 1,2,-1
 244 408 l 1,3,-1
 438 408 l 1,4,-1
 438 650 l 1,5,-1
 610 650 l 1,6,-1
 610 0 l 1,7,-1
 438 0 l 1,8,-1
 438 258 l 1,9,-1
 244 258 l 1,10,-1
 244 0 l 1,11,-1
 72 0 l 1,0,-1
162 724 m 1,12,-1
 246 834 l 1,13,-1
 434 834 l 1,14,-1
 518 724 l 1,15,-1
 444 680 l 1,16,-1
 342 760 l 1,17,-1
 338 760 l 1,18,-1
 236 680 l 1,19,-1
 162 724 l 1,12,-1
EndSplineSet
Validated: 1
EndChar

StartChar: hcircumflex
Encoding: 293 293 231
Width: 582
Flags: W
LayerCount: 2
Back
Fore
SplineSet
58 0 m 1,0,-1
 58 696 l 1,1,-1
 230 696 l 1,2,-1
 230 534 l 1,3,-1
 222 448 l 1,4,5
 295 512 295 512 372 512 c 0,6,7
 528 512 528 512 528 308 c 2,8,-1
 528 0 l 1,9,-1
 356 0 l 1,10,-1
 356 286 l 2,11,12
 356 332 356 332 344.5 349 c 128,-1,13
 333 366 333 366 306 366 c 0,14,15
 271 366 271 366 230 328 c 1,16,-1
 230 0 l 1,17,-1
 58 0 l 1,0,-1
-36 774 m 1,18,-1
 48 884 l 1,19,-1
 236 884 l 1,20,-1
 320 774 l 1,21,-1
 246 730 l 1,22,-1
 144 810 l 1,23,-1
 140 810 l 1,24,-1
 38 730 l 1,25,-1
 -36 774 l 1,18,-1
EndSplineSet
Validated: 1
Substitution2: "<3,3> Small Caps in Latin lookup 4 subtable" Hcircumflex.sc
EndChar

StartChar: Hbar
Encoding: 294 294 232
Width: 722
Flags: W
LayerCount: 2
Back
Fore
SplineSet
22 484 m 1,0,-1
 22 558 l 1,1,-1
 92 564 l 1,2,-1
 92 650 l 1,3,-1
 264 650 l 1,4,-1
 264 564 l 1,5,-1
 458 564 l 1,6,-1
 458 650 l 1,7,-1
 630 650 l 1,8,-1
 630 564 l 1,9,-1
 700 564 l 1,10,-1
 700 484 l 1,11,-1
 630 484 l 1,12,-1
 630 0 l 1,13,-1
 458 0 l 1,14,-1
 458 258 l 1,15,-1
 264 258 l 1,16,-1
 264 0 l 1,17,-1
 92 0 l 1,18,-1
 92 484 l 1,19,-1
 22 484 l 1,0,-1
264 408 m 1,20,-1
 458 408 l 1,21,-1
 458 484 l 1,22,-1
 264 484 l 1,23,-1
 264 408 l 1,20,-1
EndSplineSet
Validated: 1
EndChar

StartChar: hbar
Encoding: 295 295 233
Width: 582
Flags: W
LayerCount: 2
Back
Fore
SplineSet
58 0 m 1,0,-1
 58 550 l 1,1,-1
 -8 550 l 1,2,-1
 -8 624 l 1,3,-1
 58 629 l 1,4,-1
 58 696 l 1,5,-1
 230 696 l 1,6,-1
 230 630 l 1,7,-1
 394 630 l 1,8,-1
 394 550 l 1,9,-1
 230 550 l 1,10,-1
 230 482 l 1,11,-1
 222 396 l 1,12,13
 295 460 295 460 372 460 c 0,14,15
 528 460 528 460 528 256 c 2,16,-1
 528 0 l 1,17,-1
 356 0 l 1,18,-1
 356 234 l 2,19,20
 356 280 356 280 344.5 297 c 128,-1,21
 333 314 333 314 306 314 c 0,22,23
 271 314 271 314 230 276 c 1,24,-1
 230 0 l 1,25,-1
 58 0 l 1,0,-1
EndSplineSet
Validated: 1
Substitution2: "<3,3> Small Caps in Latin lookup 4 subtable" Hbar.sc
EndChar

StartChar: Itilde
Encoding: 296 296 234
Width: 316
Flags: W
LayerCount: 2
Back
Fore
SplineSet
72 0 m 1,0,-1
 72 650 l 1,1,-1
 244 650 l 1,2,-1
 244 0 l 1,3,-1
 72 0 l 1,0,-1
228 686 m 0,4,5
 188 686 188 686 145.5 712 c 128,-1,6
 103 738 103 738 94 738 c 0,7,8
 67 738 67 738 62 696 c 1,9,-1
 -48 704 l 1,10,11
 -44 782 -44 782 -7.5 819 c 128,-1,12
 29 856 29 856 88 856 c 0,13,14
 128 856 128 856 170.5 830 c 128,-1,15
 213 804 213 804 222 804 c 0,16,17
 249 804 249 804 254 846 c 1,18,-1
 364 838 l 1,19,20
 360 760 360 760 323.5 723 c 128,-1,21
 287 686 287 686 228 686 c 0,4,5
EndSplineSet
Validated: 1
EndChar

StartChar: itilde
Encoding: 297 297 235
Width: 288
Flags: W
LayerCount: 2
Back
Fore
SplineSet
58 0 m 1,0,-1
 58 500 l 1,1,-1
 230 500 l 1,2,-1
 230 0 l 1,3,-1
 58 0 l 1,0,-1
208 572 m 0,4,5
 174 572 174 572 133.5 600 c 128,-1,6
 93 628 93 628 84 628 c 0,7,8
 59 628 59 628 54 582 c 1,9,-1
 -52 588 l 1,10,11
 -49 746 -49 746 80 746 c 0,12,13
 114 746 114 746 154.5 718 c 128,-1,14
 195 690 195 690 204 690 c 0,15,16
 229 690 229 690 234 736 c 1,17,-1
 340 730 l 1,18,19
 337 572 337 572 208 572 c 0,4,5
EndSplineSet
Validated: 1
Substitution2: "<3,3> Small Caps in Latin lookup 4 subtable" Itilde.sc
EndChar

StartChar: Imacron
Encoding: 298 298 236
Width: 316
Flags: W
LayerCount: 2
Back
Fore
SplineSet
72 0 m 1,0,-1
 72 650 l 1,1,-1
 244 650 l 1,2,-1
 244 0 l 1,3,-1
 72 0 l 1,0,-1
0 716 m 1,4,-1
 0 824 l 1,5,-1
 316 824 l 1,6,-1
 316 716 l 1,7,-1
 0 716 l 1,4,-1
EndSplineSet
Validated: 1
EndChar

StartChar: imacron
Encoding: 299 299 237
Width: 288
Flags: W
LayerCount: 2
Back
Fore
SplineSet
58 0 m 1,0,-1
 58 500 l 1,1,-1
 230 500 l 1,2,-1
 230 0 l 1,3,-1
 58 0 l 1,0,-1
-10 588 m 1,4,-1
 -10 696 l 1,5,-1
 298 696 l 1,6,-1
 298 588 l 1,7,-1
 -10 588 l 1,4,-1
EndSplineSet
Validated: 1
Substitution2: "<3,3> Small Caps in Latin lookup 4 subtable" Imacron.sc
EndChar

StartChar: uni012C
Encoding: 300 300 238
Width: 316
Flags: W
LayerCount: 2
Back
Fore
SplineSet
72 0 m 1,0,-1
 72 650 l 1,1,-1
 244 650 l 1,2,-1
 244 0 l 1,3,-1
 72 0 l 1,0,-1
158 694 m 128,-1,5
 3 694 3 694 -12 834 c 1,6,-1
 80 850 l 1,7,8
 93 792 93 792 158 792 c 128,-1,9
 223 792 223 792 236 850 c 1,10,-1
 328 834 l 1,11,4
 313 694 313 694 158 694 c 128,-1,5
EndSplineSet
Validated: 1
EndChar

StartChar: uni012D
Encoding: 301 301 239
Width: 288
Flags: W
LayerCount: 2
Back
Fore
SplineSet
58 0 m 1,0,-1
 58 500 l 1,1,-1
 230 500 l 1,2,-1
 230 0 l 1,3,-1
 58 0 l 1,0,-1
144 572 m 128,-1,5
 59 572 59 572 15.5 615.5 c 128,-1,6
 -28 659 -28 659 -30 732 c 1,7,-1
 66 748 l 1,8,9
 71 716 71 716 90.5 697 c 128,-1,10
 110 678 110 678 144 678 c 128,-1,11
 178 678 178 678 197.5 697 c 128,-1,12
 217 716 217 716 222 748 c 1,13,-1
 318 732 l 1,14,15
 316 658 316 658 272.5 615 c 128,-1,4
 229 572 229 572 144 572 c 128,-1,5
EndSplineSet
Validated: 1
Substitution2: "<3,3> Small Caps in Latin lookup 4 subtable" uni012C.sc
EndChar

StartChar: Iogonek
Encoding: 302 302 240
Width: 316
Flags: W
LayerCount: 2
Back
Fore
SplineSet
164 -228 m 0,0,1
 111 -228 111 -228 76.5 -201.5 c 128,-1,2
 42 -175 42 -175 42 -130 c 0,3,4
 42 -86 42 -86 66.5 -52 c 128,-1,5
 91 -18 91 -18 119 0 c 1,6,-1
 72 0 l 1,7,-1
 72 650 l 1,8,-1
 244 650 l 1,9,-1
 244 0 l 1,10,11
 166 -24 166 -24 166 -84 c 0,12,13
 166 -101 166 -101 177.5 -109.5 c 128,-1,14
 189 -118 189 -118 205 -118 c 128,-1,15
 221 -118 221 -118 240 -104 c 1,16,-1
 278 -190 l 1,17,18
 257 -207 257 -207 224.5 -217.5 c 128,-1,19
 192 -228 192 -228 164 -228 c 0,0,1
EndSplineSet
Validated: 1
EndChar

StartChar: iogonek
Encoding: 303 303 241
Width: 288
Flags: W
LayerCount: 2
Back
Fore
SplineSet
154 -212 m 0,0,1
 105 -212 105 -212 73.5 -187.5 c 128,-1,2
 42 -163 42 -163 42 -118 c 0,3,4
 42 -47 42 -47 108 0 c 1,5,-1
 58 0 l 1,6,-1
 58 500 l 1,7,-1
 230 500 l 1,8,-1
 230 0 l 1,9,10
 156 -20 156 -20 156 -78 c 0,11,12
 156 -94 156 -94 167.5 -103 c 128,-1,13
 179 -112 179 -112 197 -112 c 0,14,15
 208 -112 208 -112 230 -100 c 1,16,-1
 264 -176 l 1,17,18
 218 -212 218 -212 154 -212 c 0,0,1
144 562 m 128,-1,20
 102 562 102 562 75 586 c 128,-1,21
 48 610 48 610 48 648 c 128,-1,22
 48 686 48 686 75 710 c 128,-1,23
 102 734 102 734 144 734 c 128,-1,24
 186 734 186 734 213 710 c 128,-1,25
 240 686 240 686 240 648 c 128,-1,26
 240 610 240 610 213 586 c 128,-1,19
 186 562 186 562 144 562 c 128,-1,20
EndSplineSet
Validated: 1
Substitution2: "<11,2> Diagonal Fractions lookup 12 nested-substitutions 0 subtable" iogonek.d
Substitution2: "<11,2> Diagonal Fractions lookup 10 nested-substitutions 0 subtable" iogonek.d
Substitution2: "<11,2> Diagonal Fractions lookup 8 nested-substitutions 0 subtable" iogonek.d
Substitution2: "<3,3> Small Caps in Latin lookup 4 subtable" Iogonek.sc
EndChar

StartChar: Idotaccent
Encoding: 304 304 242
Width: 316
Flags: W
LayerCount: 2
Back
Fore
SplineSet
72 0 m 1,0,-1
 72 650 l 1,1,-1
 244 650 l 1,2,-1
 244 0 l 1,3,-1
 72 0 l 1,0,-1
158 696 m 128,-1,5
 116 696 116 696 89 720 c 128,-1,6
 62 744 62 744 62 782 c 128,-1,7
 62 820 62 820 89 844 c 128,-1,8
 116 868 116 868 158 868 c 128,-1,9
 200 868 200 868 227 844 c 128,-1,10
 254 820 254 820 254 782 c 128,-1,11
 254 744 254 744 227 720 c 128,-1,4
 200 696 200 696 158 696 c 128,-1,5
EndSplineSet
Validated: 1
EndChar

StartChar: dotlessi
Encoding: 305 305 243
Width: 288
Flags: W
LayerCount: 2
Back
Fore
SplineSet
58 0 m 1,0,-1
 58 500 l 1,1,-1
 230 500 l 1,2,-1
 230 0 l 1,3,-1
 58 0 l 1,0,-1
EndSplineSet
Validated: 1
EndChar

StartChar: uni0132
Encoding: 306 306 244
Width: 632
Flags: W
LayerCount: 2
Back
Fore
SplineSet
72 0 m 1,0,-1
 72 650 l 1,1,-1
 244 650 l 1,2,-1
 244 0 l 1,3,-1
 72 0 l 1,0,-1
366 -188 m 0,4,5
 310 -188 310 -188 272 -174 c 1,6,-1
 302 -48 l 1,7,8
 323 -54 323 -54 338 -54 c 0,9,10
 365 -54 365 -54 376.5 -37 c 128,-1,11
 388 -20 388 -20 388 20 c 2,12,-1
 388 650 l 1,13,-1
 560 650 l 1,14,-1
 560 26 l 2,15,16
 560 -69 560 -69 515 -128.5 c 128,-1,17
 470 -188 470 -188 366 -188 c 0,4,5
EndSplineSet
Validated: 1
EndChar

StartChar: uni0133
Encoding: 307 307 245
Width: 578
Flags: W
LayerCount: 2
Back
Fore
SplineSet
58 0 m 1,0,-1
 58 500 l 1,1,-1
 230 500 l 1,2,-1
 230 0 l 1,3,-1
 58 0 l 1,0,-1
144 562 m 128,-1,5
 102 562 102 562 75 586 c 128,-1,6
 48 610 48 610 48 648 c 128,-1,7
 48 686 48 686 75 710 c 128,-1,8
 102 734 102 734 144 734 c 128,-1,9
 186 734 186 734 213 710 c 128,-1,10
 240 686 240 686 240 648 c 128,-1,11
 240 610 240 610 213 586 c 128,-1,4
 186 562 186 562 144 562 c 128,-1,5
326 -188 m 0,12,13
 270 -188 270 -188 232 -174 c 1,14,-1
 262 -48 l 1,15,16
 283 -54 283 -54 298 -54 c 0,17,18
 325 -54 325 -54 336.5 -37 c 128,-1,19
 348 -20 348 -20 348 20 c 2,20,-1
 348 500 l 1,21,-1
 520 500 l 1,22,-1
 520 26 l 2,23,24
 520 -69 520 -69 475 -128.5 c 128,-1,25
 430 -188 430 -188 326 -188 c 0,12,13
434 562 m 128,-1,27
 392 562 392 562 365 586 c 128,-1,28
 338 610 338 610 338 648 c 128,-1,29
 338 686 338 686 365 710 c 128,-1,30
 392 734 392 734 434 734 c 128,-1,31
 476 734 476 734 503 710 c 128,-1,32
 530 686 530 686 530 648 c 128,-1,33
 530 610 530 610 503 586 c 128,-1,26
 476 562 476 562 434 562 c 128,-1,27
EndSplineSet
Validated: 1
Substitution2: "<3,3> Small Caps in Latin lookup 4 subtable" uni0132.sc
EndChar

StartChar: Jcircumflex
Encoding: 308 308 246
Width: 520
Flags: W
LayerCount: 2
Back
Fore
SplineSet
232 -12 m 0,0,1
 81 -12 81 -12 10 111 c 1,2,-1
 126 198 l 1,3,4
 158 136 158 136 208 136 c 0,5,6
 245 136 245 136 262.5 158.5 c 128,-1,7
 280 181 280 181 280 240 c 2,8,-1
 280 650 l 1,9,-1
 452 650 l 1,10,-1
 452 226 l 2,11,12
 452 122 452 122 395.5 55 c 128,-1,13
 339 -12 339 -12 232 -12 c 0,0,1
186 724 m 1,14,-1
 270 834 l 1,15,-1
 458 834 l 1,16,-1
 542 724 l 1,17,-1
 468 680 l 1,18,-1
 366 760 l 1,19,-1
 362 760 l 1,20,-1
 260 680 l 1,21,-1
 186 724 l 1,14,-1
EndSplineSet
Validated: 1
EndChar

StartChar: jcircumflex
Encoding: 309 309 247
Width: 290
Flags: W
LayerCount: 2
Back
Fore
SplineSet
38 -188 m 0,0,1
 -18 -188 -18 -188 -56 -174 c 1,2,-1
 -26 -48 l 1,3,4
 -5 -54 -5 -54 10 -54 c 0,5,6
 37 -54 37 -54 48.5 -37 c 128,-1,7
 60 -20 60 -20 60 20 c 2,8,-1
 60 500 l 1,9,-1
 232 500 l 1,10,-1
 232 26 l 2,11,12
 232 -69 232 -69 187 -128.5 c 128,-1,13
 142 -188 142 -188 38 -188 c 0,0,1
-48 618 m 1,14,-1
 58 746 l 1,15,-1
 234 746 l 1,16,-1
 340 618 l 1,17,-1
 276 558 l 1,18,-1
 148 642 l 1,19,-1
 144 642 l 1,20,-1
 16 558 l 1,21,-1
 -48 618 l 1,14,-1
EndSplineSet
Validated: 1
Substitution2: "<3,3> Small Caps in Latin lookup 4 subtable" Jcircumflex.sc
EndChar

StartChar: uni0136
Encoding: 310 310 248
Width: 628
Flags: W
LayerCount: 2
Back
Fore
SplineSet
72 0 m 1,0,-1
 72 650 l 1,1,-1
 244 650 l 1,2,-1
 244 408 l 1,3,-1
 248 408 l 1,4,-1
 412 650 l 1,5,-1
 600 650 l 1,6,-1
 406 386 l 1,7,-1
 638 0 l 1,8,-1
 450 0 l 1,9,-1
 306 250 l 1,10,-1
 244 162 l 1,11,-1
 244 0 l 1,12,-1
 72 0 l 1,0,-1
226 -244 m 1,13,-1
 214 -178 l 1,14,15
 270 -175 270 -175 292 -167 c 128,-1,16
 314 -159 314 -159 314 -142 c 0,17,18
 314 -115 314 -115 254 -110 c 1,19,-1
 286 -50 l 1,20,21
 369 -56 369 -56 402.5 -76.5 c 128,-1,22
 436 -97 436 -97 436 -136 c 0,23,24
 436 -238 436 -238 226 -244 c 1,13,-1
EndSplineSet
Validated: 1
EndChar

StartChar: uni0137
Encoding: 311 311 249
Width: 568
Flags: W
LayerCount: 2
Back
Fore
SplineSet
58 0 m 1,0,-1
 58 696 l 1,1,-1
 226 696 l 1,2,-1
 226 326 l 1,3,-1
 230 326 l 1,4,-1
 368 500 l 1,5,-1
 554 500 l 1,6,-1
 376 292 l 1,7,-1
 564 0 l 1,8,-1
 378 0 l 1,9,-1
 278 178 l 1,10,-1
 226 120 l 1,11,-1
 226 0 l 1,12,-1
 58 0 l 1,0,-1
196 -244 m 1,13,-1
 184 -178 l 1,14,15
 240 -175 240 -175 262 -167 c 128,-1,16
 284 -159 284 -159 284 -142 c 0,17,18
 284 -115 284 -115 224 -110 c 1,19,-1
 256 -50 l 1,20,21
 339 -56 339 -56 372.5 -76.5 c 128,-1,22
 406 -97 406 -97 406 -136 c 0,23,24
 406 -238 406 -238 196 -244 c 1,13,-1
EndSplineSet
Validated: 1
Substitution2: "<3,3> Small Caps in Latin lookup 4 subtable" uni0136.sc
EndChar

StartChar: kgreenlandic
Encoding: 312 312 250
Width: 568
Flags: W
LayerCount: 2
Back
Fore
SplineSet
58 0 m 1,0,-1
 58 500 l 1,1,-1
 230 500 l 1,2,-1
 230 322 l 1,3,-1
 234 322 l 1,4,-1
 368 500 l 1,5,-1
 554 500 l 1,6,-1
 380 292 l 1,7,-1
 564 0 l 1,8,-1
 378 0 l 1,9,-1
 278 172 l 1,10,-1
 230 114 l 1,11,-1
 230 0 l 1,12,-1
 58 0 l 1,0,-1
EndSplineSet
Validated: 1
EndChar

StartChar: Lacute
Encoding: 313 313 251
Width: 530
Flags: W
LayerCount: 2
Back
Fore
SplineSet
72 0 m 1,0,-1
 72 650 l 1,1,-1
 244 650 l 1,2,-1
 244 144 l 1,3,-1
 490 144 l 1,4,-1
 490 0 l 1,5,-1
 72 0 l 1,0,-1
154 674 m 1,6,-1
 78 760 l 1,7,-1
 260 904 l 1,8,-1
 350 794 l 1,9,-1
 154 674 l 1,6,-1
EndSplineSet
Validated: 1
EndChar

StartChar: lacute
Encoding: 314 314 252
Width: 298
Flags: W
LayerCount: 2
Back
Fore
SplineSet
212 -12 m 0,0,1
 58 -12 58 -12 58 176 c 2,2,-1
 58 696 l 1,3,-1
 230 696 l 1,4,-1
 230 170 l 2,5,6
 230 147 230 147 238.5 136.5 c 128,-1,7
 247 126 247 126 258 126 c 0,8,9
 268 126 268 126 276 128 c 1,10,-1
 296 2 l 1,11,12
 264 -12 264 -12 212 -12 c 0,0,1
141 730 m 1,13,-1
 65 816 l 1,14,-1
 247 960 l 1,15,-1
 337 850 l 1,16,-1
 141 730 l 1,13,-1
EndSplineSet
Validated: 1
Substitution2: "<3,3> Small Caps in Latin lookup 4 subtable" Lacute.sc
EndChar

StartChar: uni013B
Encoding: 315 315 253
Width: 530
Flags: W
LayerCount: 2
Back
Fore
SplineSet
72 0 m 1,0,-1
 72 650 l 1,1,-1
 244 650 l 1,2,-1
 244 144 l 1,3,-1
 490 144 l 1,4,-1
 490 0 l 1,5,-1
 72 0 l 1,0,-1
183 -244 m 1,6,-1
 171 -178 l 1,7,8
 227 -175 227 -175 249 -167 c 128,-1,9
 271 -159 271 -159 271 -142 c 0,10,11
 271 -115 271 -115 211 -110 c 1,12,-1
 243 -50 l 1,13,14
 326 -56 326 -56 359.5 -76.5 c 128,-1,15
 393 -97 393 -97 393 -136 c 0,16,17
 393 -238 393 -238 183 -244 c 1,6,-1
EndSplineSet
Validated: 1
EndChar

StartChar: uni013C
Encoding: 316 316 254
Width: 298
Flags: W
LayerCount: 2
Back
Fore
SplineSet
212 -12 m 0,0,1
 58 -12 58 -12 58 176 c 2,2,-1
 58 696 l 1,3,-1
 230 696 l 1,4,-1
 230 170 l 2,5,6
 230 147 230 147 238.5 136.5 c 128,-1,7
 247 126 247 126 258 126 c 0,8,9
 268 126 268 126 276 128 c 1,10,-1
 296 2 l 1,11,12
 264 -12 264 -12 212 -12 c 0,0,1
90 -244 m 1,13,-1
 78 -178 l 1,14,15
 134 -175 134 -175 156 -167 c 128,-1,16
 178 -159 178 -159 178 -142 c 0,17,18
 178 -115 178 -115 118 -110 c 1,19,-1
 150 -50 l 1,20,21
 233 -56 233 -56 266.5 -76.5 c 128,-1,22
 300 -97 300 -97 300 -136 c 0,23,24
 300 -238 300 -238 90 -244 c 1,13,-1
EndSplineSet
Validated: 1
Substitution2: "<3,3> Small Caps in Latin lookup 4 subtable" uni013B.sc
EndChar

StartChar: Lcaron
Encoding: 317 317 255
Width: 530
Flags: W
LayerCount: 2
Back
Fore
SplineSet
72 0 m 1,0,-1
 72 650 l 1,1,-1
 244 650 l 1,2,-1
 244 144 l 1,3,-1
 490 144 l 1,4,-1
 490 0 l 1,5,-1
 72 0 l 1,0,-1
360 508 m 1,6,-1
 354 734 l 1,7,-1
 462 734 l 1,8,-1
 460 660 l 1,9,-1
 432 508 l 1,10,-1
 360 508 l 1,6,-1
EndSplineSet
Validated: 1
EndChar

StartChar: lcaron
Encoding: 318 318 256
Width: 338
Flags: W
LayerCount: 2
Back
Fore
SplineSet
212 -12 m 0,0,1
 58 -12 58 -12 58 176 c 2,2,-1
 58 696 l 1,3,-1
 230 696 l 1,4,-1
 230 170 l 2,5,6
 230 147 230 147 238.5 136.5 c 128,-1,7
 247 126 247 126 258 126 c 0,8,9
 268 126 268 126 276 128 c 1,10,-1
 296 2 l 1,11,12
 264 -12 264 -12 212 -12 c 0,0,1
268 548 m 1,13,-1
 262 774 l 1,14,-1
 370 774 l 1,15,-1
 368 700 l 1,16,-1
 340 548 l 1,17,-1
 268 548 l 1,13,-1
EndSplineSet
Validated: 1
Substitution2: "<3,3> Small Caps in Latin lookup 4 subtable" Lcaron.sc
EndChar

StartChar: Ldot
Encoding: 319 319 257
Width: 530
Flags: W
LayerCount: 2
Back
Fore
SplineSet
72 0 m 1,0,-1
 72 650 l 1,1,-1
 244 650 l 1,2,-1
 244 144 l 1,3,-1
 490 144 l 1,4,-1
 490 0 l 1,5,-1
 72 0 l 1,0,-1
423 226 m 128,-1,7
 380 226 380 226 351.5 256 c 128,-1,8
 323 286 323 286 323 330 c 128,-1,9
 323 374 323 374 351.5 404 c 128,-1,10
 380 434 380 434 423 434 c 128,-1,11
 466 434 466 434 494.5 404 c 128,-1,12
 523 374 523 374 523 330 c 128,-1,13
 523 286 523 286 494.5 256 c 128,-1,6
 466 226 466 226 423 226 c 128,-1,7
EndSplineSet
Validated: 1
EndChar

StartChar: ldot
Encoding: 320 320 258
Width: 488
Flags: W
LayerCount: 2
Back
Fore
SplineSet
212 -12 m 0,0,1
 58 -12 58 -12 58 176 c 2,2,-1
 58 696 l 1,3,-1
 230 696 l 1,4,-1
 230 170 l 2,5,6
 230 147 230 147 238.5 136.5 c 128,-1,7
 247 126 247 126 258 126 c 0,8,9
 268 126 268 126 276 128 c 1,10,-1
 296 2 l 1,11,12
 264 -12 264 -12 212 -12 c 0,0,1
388 226 m 128,-1,14
 345 226 345 226 316.5 256 c 128,-1,15
 288 286 288 286 288 330 c 128,-1,16
 288 374 288 374 316.5 404 c 128,-1,17
 345 434 345 434 388 434 c 128,-1,18
 431 434 431 434 459.5 404 c 128,-1,19
 488 374 488 374 488 330 c 128,-1,20
 488 286 488 286 459.5 256 c 128,-1,13
 431 226 431 226 388 226 c 128,-1,14
EndSplineSet
Validated: 1
Substitution2: "<3,3> Small Caps in Latin lookup 4 subtable" Ldot.sc
EndChar

StartChar: Lslash
Encoding: 321 321 259
Width: 538
Flags: W
LayerCount: 2
Back
Fore
SplineSet
28 166 m 1,0,-1
 -30 268 l 1,1,-1
 80 331 l 1,2,-1
 80 650 l 1,3,-1
 252 650 l 1,4,-1
 252 410 l 1,5,-1
 402 494 l 1,6,-1
 460 392 l 1,7,-1
 252 277 l 1,8,-1
 252 144 l 1,9,-1
 498 144 l 1,10,-1
 498 0 l 1,11,-1
 80 0 l 1,12,-1
 80 198 l 1,13,-1
 28 166 l 1,0,-1
EndSplineSet
Validated: 1
EndChar

StartChar: lslash
Encoding: 322 322 260
Width: 318
Flags: W
LayerCount: 2
Back
Fore
SplineSet
224 -12 m 0,0,1
 70 -12 70 -12 70 176 c 2,2,-1
 70 255 l 1,3,-1
 30 232 l 1,4,-1
 -28 338 l 1,5,-1
 70 392 l 1,6,-1
 70 696 l 1,7,-1
 242 696 l 1,8,-1
 242 474 l 1,9,-1
 288 500 l 1,10,-1
 346 394 l 1,11,-1
 242 338 l 1,12,-1
 242 170 l 2,13,14
 242 147 242 147 250.5 136.5 c 128,-1,15
 259 126 259 126 270 126 c 0,16,17
 280 126 280 126 288 128 c 1,18,-1
 308 2 l 1,19,20
 276 -12 276 -12 224 -12 c 0,0,1
EndSplineSet
Validated: 1
Substitution2: "<3,3> Small Caps in Latin lookup 4 subtable" Lslash.sc
EndChar

StartChar: Nacute
Encoding: 323 323 261
Width: 672
Flags: W
LayerCount: 2
Back
Fore
SplineSet
72 0 m 1,0,-1
 72 650 l 1,1,-1
 248 650 l 1,2,-1
 392 360 l 1,3,-1
 454 214 l 1,4,-1
 458 214 l 1,5,6
 436 406 436 406 436 462 c 2,7,-1
 436 650 l 1,8,-1
 600 650 l 1,9,-1
 600 0 l 1,10,-1
 424 0 l 1,11,-1
 280 291 l 1,12,-1
 218 436 l 1,13,-1
 214 436 l 1,14,15
 216 420 216 420 220.5 379 c 128,-1,16
 225 338 225 338 228 312.5 c 128,-1,17
 231 287 231 287 233.5 251.5 c 128,-1,18
 236 216 236 216 236 188 c 2,19,-1
 236 0 l 1,20,-1
 72 0 l 1,0,-1
328 674 m 1,21,-1
 252 760 l 1,22,-1
 434 904 l 1,23,-1
 524 794 l 1,24,-1
 328 674 l 1,21,-1
EndSplineSet
Validated: 1
EndChar

StartChar: nacute
Encoding: 324 324 262
Width: 582
Flags: W
LayerCount: 2
Back
Fore
SplineSet
58 0 m 1,0,-1
 58 500 l 1,1,-1
 198 500 l 1,2,-1
 210 440 l 1,3,-1
 214 440 l 1,4,5
 290 512 290 512 372 512 c 0,6,7
 528 512 528 512 528 308 c 2,8,-1
 528 0 l 1,9,-1
 356 0 l 1,10,-1
 356 286 l 2,11,12
 356 332 356 332 344.5 349 c 128,-1,13
 333 366 333 366 306 366 c 0,14,15
 271 366 271 366 230 328 c 1,16,-1
 230 0 l 1,17,-1
 58 0 l 1,0,-1
334 572 m 1,18,-1
 250 656 l 1,19,-1
 408 844 l 1,20,-1
 524 730 l 1,21,-1
 334 572 l 1,18,-1
EndSplineSet
Validated: 1
Substitution2: "<3,3> Small Caps in Latin lookup 4 subtable" Nacute.sc
EndChar

StartChar: uni0145
Encoding: 325 325 263
Width: 672
Flags: W
LayerCount: 2
Back
Fore
SplineSet
72 0 m 1,0,-1
 72 650 l 1,1,-1
 248 650 l 1,2,-1
 392 360 l 1,3,-1
 454 214 l 1,4,-1
 458 214 l 1,5,6
 436 406 436 406 436 462 c 2,7,-1
 436 650 l 1,8,-1
 600 650 l 1,9,-1
 600 0 l 1,10,-1
 424 0 l 1,11,-1
 280 291 l 1,12,-1
 218 436 l 1,13,-1
 214 436 l 1,14,15
 216 420 216 420 220.5 379 c 128,-1,16
 225 338 225 338 228 312.5 c 128,-1,17
 231 287 231 287 233.5 251.5 c 128,-1,18
 236 216 236 216 236 188 c 2,19,-1
 236 0 l 1,20,-1
 72 0 l 1,0,-1
242 -244 m 1,21,-1
 230 -178 l 1,22,23
 286 -175 286 -175 308 -167 c 128,-1,24
 330 -159 330 -159 330 -142 c 0,25,26
 330 -115 330 -115 270 -110 c 1,27,-1
 302 -50 l 1,28,29
 385 -56 385 -56 418.5 -76.5 c 128,-1,30
 452 -97 452 -97 452 -136 c 0,31,32
 452 -238 452 -238 242 -244 c 1,21,-1
EndSplineSet
Validated: 1
EndChar

StartChar: uni0146
Encoding: 326 326 264
Width: 582
Flags: W
LayerCount: 2
Back
Fore
SplineSet
58 0 m 1,0,-1
 58 500 l 1,1,-1
 198 500 l 1,2,-1
 210 440 l 1,3,-1
 214 440 l 1,4,5
 290 512 290 512 372 512 c 0,6,7
 528 512 528 512 528 308 c 2,8,-1
 528 0 l 1,9,-1
 356 0 l 1,10,-1
 356 286 l 2,11,12
 356 332 356 332 344.5 349 c 128,-1,13
 333 366 333 366 306 366 c 0,14,15
 271 366 271 366 230 328 c 1,16,-1
 230 0 l 1,17,-1
 58 0 l 1,0,-1
188 -244 m 1,18,-1
 176 -178 l 1,19,20
 232 -175 232 -175 254 -167 c 128,-1,21
 276 -159 276 -159 276 -142 c 0,22,23
 276 -115 276 -115 216 -110 c 1,24,-1
 248 -50 l 1,25,26
 331 -56 331 -56 364.5 -76.5 c 128,-1,27
 398 -97 398 -97 398 -136 c 0,28,29
 398 -238 398 -238 188 -244 c 1,18,-1
EndSplineSet
Validated: 1
Substitution2: "<3,3> Small Caps in Latin lookup 4 subtable" uni0145.sc
EndChar

StartChar: Ncaron
Encoding: 327 327 265
Width: 672
Flags: W
LayerCount: 2
Back
Fore
SplineSet
72 0 m 1,0,-1
 72 650 l 1,1,-1
 248 650 l 1,2,-1
 392 360 l 1,3,-1
 454 214 l 1,4,-1
 458 214 l 1,5,6
 436 406 436 406 436 462 c 2,7,-1
 436 650 l 1,8,-1
 600 650 l 1,9,-1
 600 0 l 1,10,-1
 424 0 l 1,11,-1
 280 291 l 1,12,-1
 218 436 l 1,13,-1
 214 436 l 1,14,15
 216 420 216 420 220.5 379 c 128,-1,16
 225 338 225 338 228 312.5 c 128,-1,17
 231 287 231 287 233.5 251.5 c 128,-1,18
 236 216 236 216 236 188 c 2,19,-1
 236 0 l 1,20,-1
 72 0 l 1,0,-1
242 700 m 1,21,-1
 158 810 l 1,22,-1
 232 854 l 1,23,-1
 334 774 l 1,24,-1
 338 774 l 1,25,-1
 440 854 l 1,26,-1
 514 810 l 1,27,-1
 430 700 l 1,28,-1
 242 700 l 1,21,-1
EndSplineSet
Validated: 1
EndChar

StartChar: ncaron
Encoding: 328 328 266
Width: 582
Flags: W
LayerCount: 2
Back
Fore
SplineSet
58 0 m 1,0,-1
 58 500 l 1,1,-1
 198 500 l 1,2,-1
 210 440 l 1,3,-1
 214 440 l 1,4,5
 290 512 290 512 372 512 c 0,6,7
 528 512 528 512 528 308 c 2,8,-1
 528 0 l 1,9,-1
 356 0 l 1,10,-1
 356 286 l 2,11,12
 356 332 356 332 344.5 349 c 128,-1,13
 333 366 333 366 306 366 c 0,14,15
 271 366 271 366 230 328 c 1,16,-1
 230 0 l 1,17,-1
 58 0 l 1,0,-1
226 578 m 1,18,-1
 120 706 l 1,19,-1
 184 766 l 1,20,-1
 312 682 l 1,21,-1
 316 682 l 1,22,-1
 444 766 l 1,23,-1
 508 706 l 1,24,-1
 402 578 l 1,25,-1
 226 578 l 1,18,-1
EndSplineSet
Validated: 1
Substitution2: "<3,3> Small Caps in Latin lookup 4 subtable" Ncaron.sc
EndChar

StartChar: napostrophe
Encoding: 329 329 267
Width: 882
Flags: W
LayerCount: 2
Back
Fore
SplineSet
358 0 m 1,0,-1
 358 500 l 1,1,-1
 498 500 l 1,2,-1
 510 440 l 1,3,-1
 514 440 l 1,4,5
 590 512 590 512 672 512 c 0,6,7
 828 512 828 512 828 308 c 2,8,-1
 828 0 l 1,9,-1
 656 0 l 1,10,-1
 656 286 l 2,11,12
 656 332 656 332 644.5 349 c 128,-1,13
 633 366 633 366 606 366 c 0,14,15
 571 366 571 366 530 328 c 1,16,-1
 530 0 l 1,17,-1
 358 0 l 1,0,-1
110 322 m 1,18,-1
 74 396 l 1,19,20
 170 438 170 438 170 523 c 1,21,22
 167 522 167 522 160 522 c 0,23,24
 123 522 123 522 98.5 544.5 c 128,-1,25
 74 567 74 567 74 604 c 0,26,27
 74 646 74 646 98 671 c 128,-1,28
 122 696 122 696 160 696 c 0,29,30
 212 696 212 696 239 658 c 128,-1,31
 266 620 266 620 266 550 c 0,32,33
 266 396 266 396 110 322 c 1,18,-1
EndSplineSet
Validated: 1
EndChar

